<svg width="2252" height="1200" viewBox="0 0 2252 1200" fill="none" xmlns="http://www.w3.org/2000/svg">
<rect width="2252" height="1200" fill="#D9D9D9"/>
<path d="M1130.46 681.278L1127.83 671.635C1134.53 668.737 1139.23 664.621 1139.23 664.621C1139.23 664.621 1139.23 673.388 1147.99 681.278L1139.23 690.045L1137.47 703.195C1137.7 703.283 1137.93 703.37 1138.15 703.46C1141.23 704.699 1143.39 706.152 1146.24 709.332C1147.53 711.846 1148 713.331 1147.99 716.345L1141.86 717.222L1133.09 716.345V710.208C1131.65 706.445 1129.97 705.303 1126.08 704.948V701.442L1129.58 697.058C1132.21 692.675 1132.17 685.513 1130.46 681.278Z" fill="#00FF19" fill-opacity="0.78"/>
<path d="M1127.83 671.635L1127.63 671.176L1127.23 671.348L1127.35 671.766L1127.83 671.635ZM1130.46 681.278L1129.98 681.41L1129.98 681.438L1130 681.465L1130.46 681.278ZM1129.58 697.058L1129.97 697.371L1129.99 697.344L1130.01 697.316L1129.58 697.058ZM1126.08 701.442L1125.69 701.129L1125.58 701.266V701.442H1126.08ZM1126.08 704.948H1125.58V705.405L1126.03 705.446L1126.08 704.948ZM1133.09 716.345H1132.59V716.798L1133.04 716.843L1133.09 716.345ZM1141.86 717.222L1141.81 717.719L1141.87 717.725L1141.93 717.717L1141.86 717.222ZM1147.99 716.345L1148.06 716.84L1148.49 716.779L1148.49 716.346L1147.99 716.345ZM1146.24 709.332L1146.68 709.103L1146.65 709.046L1146.61 708.998L1146.24 709.332ZM1137.47 703.195L1136.98 703.129L1136.92 703.522L1137.3 703.663L1137.47 703.195ZM1139.23 690.045L1138.87 689.691L1138.75 689.811L1138.73 689.979L1139.23 690.045ZM1147.99 681.278L1148.35 681.632L1148.72 681.259L1148.33 680.907L1147.99 681.278ZM1139.23 664.621H1139.73C1139.73 664.425 1139.61 664.247 1139.43 664.166C1139.25 664.085 1139.04 664.116 1138.9 664.245L1139.23 664.621ZM1127.35 671.766L1129.98 681.41L1130.94 681.147L1128.31 671.503L1127.35 671.766ZM1130 681.465C1130.82 683.504 1131.25 686.28 1131.15 689.094C1131.05 691.91 1130.41 694.705 1129.15 696.801L1130.01 697.316C1131.38 695.028 1132.04 692.051 1132.15 689.13C1132.25 686.209 1131.81 683.287 1130.92 681.091L1130 681.465ZM1129.19 696.746L1125.69 701.129L1126.47 701.754L1129.97 697.371L1129.19 696.746ZM1125.58 701.442V704.948H1126.58V701.442H1125.58ZM1126.03 705.446C1127.95 705.621 1129.23 705.983 1130.21 706.703C1131.18 707.42 1131.92 708.543 1132.62 710.387L1133.56 710.03C1132.82 708.11 1132 706.78 1130.8 705.898C1129.6 705.017 1128.1 704.631 1126.12 704.45L1126.03 705.446ZM1132.59 710.208V716.345H1133.59V710.208H1132.59ZM1133.04 716.843L1141.81 717.719L1141.91 716.724L1133.14 715.848L1133.04 716.843ZM1141.93 717.717L1148.06 716.84L1147.92 715.85L1141.79 716.727L1141.93 717.717ZM1148.49 716.346C1148.5 714.813 1148.38 713.642 1148.09 712.525C1147.8 711.41 1147.34 710.372 1146.68 709.103L1145.79 709.56C1146.43 710.806 1146.86 711.768 1147.12 712.778C1147.38 713.785 1147.5 714.864 1147.49 716.344L1148.49 716.346ZM1146.61 708.998C1143.71 705.766 1141.49 704.266 1138.34 702.996L1137.96 703.923C1140.96 705.132 1143.06 706.538 1145.87 709.666L1146.61 708.998ZM1138.34 702.996C1138.11 702.905 1137.88 702.816 1137.65 702.727L1137.3 703.663C1137.52 703.749 1137.75 703.836 1137.96 703.923L1138.34 702.996ZM1137.97 703.261L1139.72 690.111L1138.73 689.979L1136.98 703.129L1137.97 703.261ZM1139.58 690.398L1148.35 681.632L1147.64 680.925L1138.87 689.691L1139.58 690.398ZM1133.49 710.508L1138.55 703.76L1137.75 703.16L1132.69 709.908L1133.49 710.508ZM1138.55 703.76L1138.75 703.495L1137.95 702.895L1137.75 703.16L1138.55 703.76ZM1139.23 664.621C1138.73 664.621 1138.73 664.622 1138.73 664.622C1138.73 664.622 1138.73 664.622 1138.73 664.623C1138.73 664.623 1138.73 664.624 1138.73 664.625C1138.73 664.627 1138.73 664.629 1138.73 664.632C1138.73 664.637 1138.73 664.645 1138.73 664.655C1138.73 664.674 1138.73 664.702 1138.73 664.738C1138.73 664.81 1138.74 664.913 1138.74 665.047C1138.76 665.314 1138.8 665.7 1138.87 666.186C1139.01 667.158 1139.29 668.532 1139.85 670.154C1140.97 673.401 1143.2 677.641 1147.66 681.65L1148.33 680.907C1144.02 677.026 1141.87 672.937 1140.79 669.828C1140.26 668.272 1139.99 666.961 1139.86 666.043C1139.79 665.584 1139.76 665.223 1139.74 664.98C1139.73 664.858 1139.73 664.766 1139.73 664.706C1139.73 664.675 1139.73 664.653 1139.73 664.639C1139.73 664.632 1139.73 664.627 1139.73 664.624C1139.73 664.622 1139.73 664.621 1139.73 664.621C1139.73 664.621 1139.73 664.621 1139.73 664.621C1139.73 664.621 1139.73 664.621 1139.73 664.621C1139.73 664.621 1139.73 664.621 1139.23 664.621ZM1128.03 672.094C1131.42 670.628 1134.29 668.857 1136.32 667.453C1137.34 666.75 1138.14 666.139 1138.7 665.702C1138.97 665.483 1139.19 665.309 1139.33 665.188C1139.4 665.127 1139.46 665.08 1139.5 665.048C1139.52 665.032 1139.53 665.02 1139.54 665.011C1139.54 665.007 1139.55 665.004 1139.55 665.001C1139.55 665 1139.55 664.999 1139.55 664.999C1139.55 664.998 1139.55 664.998 1139.56 664.998C1139.56 664.998 1139.56 664.998 1139.56 664.998C1139.56 664.998 1139.56 664.997 1139.23 664.621C1138.9 664.245 1138.9 664.245 1138.9 664.245C1138.9 664.245 1138.9 664.245 1138.9 664.245C1138.9 664.245 1138.9 664.245 1138.9 664.246C1138.9 664.246 1138.9 664.246 1138.89 664.247C1138.89 664.249 1138.89 664.252 1138.89 664.255C1138.88 664.263 1138.86 664.274 1138.85 664.288C1138.81 664.318 1138.76 664.362 1138.69 664.42C1138.55 664.536 1138.35 664.705 1138.08 664.918C1137.54 665.343 1136.75 665.941 1135.76 666.63C1133.76 668.009 1130.94 669.744 1127.63 671.176L1128.03 672.094Z" fill="black"/>
<path d="M1027.28 697.532C1027.28 697.532 1029.9 692.601 1029.03 687.888C1028.16 683.167 1024.16 679.81 1022.63 678.67C1024.44 675.635 1026.4 672.985 1026.4 672.985C1026.4 672.985 1029.39 669.229 1032.13 666.375L1037.8 671.231V687.012L1044.81 701.038L1048.32 703.668L1051.83 708.928C1051.83 708.928 1048.23 710.963 1045.69 711.558C1042.36 712.34 1036.92 711.558 1036.92 711.558L1036.05 705.422C1035.17 698.408 1029.91 698.408 1027.28 697.532Z" fill="#467D00"/>
<path d="M1036.05 705.422C1035.17 698.408 1029.91 698.408 1027.28 697.532C1027.28 697.532 1029.9 692.601 1029.03 687.888C1028.16 683.167 1024.16 679.81 1022.63 678.67C1024.44 675.635 1026.4 672.985 1026.4 672.985C1026.4 672.985 1029.39 669.229 1032.13 666.375L1037.8 671.231V687.012L1044.81 701.038M1036.05 705.422L1036.92 711.558C1036.92 711.558 1042.36 712.34 1045.69 711.558C1048.23 710.963 1051.83 708.928 1051.83 708.928L1048.32 703.668L1044.81 701.038M1036.05 705.422L1044.81 701.038" stroke="black"/>
<path fill-rule="evenodd" clip-rule="evenodd" d="M969.15 593.705C974.446 592.885 981.424 587.569 981.424 587.569C985.407 583.556 987.736 573.127 989.66 564.509C989.84 563.703 990.016 562.913 990.19 562.145C992.191 556.242 994.085 553.235 997.535 547.755C997.982 547.046 998.455 546.295 998.957 545.491C1003.34 538.477 1010.35 534.965 1024.38 527.955C1035.16 516.543 1041.81 521.183 1048.65 525.951C1051.26 527.775 1053.91 529.617 1056.82 530.588C1063.12 532.69 1067.23 532.969 1072.1 533.301C1074.57 533.469 1077.24 533.651 1080.49 534.091C1084.07 534.576 1087.09 535.252 1089.95 535.89C1095.29 537.084 1100.06 538.148 1106.79 537.598C1115.29 536.903 1118.64 535.357 1120.93 534.297C1122.43 533.608 1123.47 533.125 1125.2 533.215C1127.21 533.319 1129.96 534.434 1133.27 535.78C1137.19 537.369 1141.89 539.28 1147.12 540.228C1153.62 541.409 1162.9 534.091 1162.9 534.091C1166.53 537.292 1168.85 538.534 1174.29 539.351C1173.83 559.387 1176.35 571.095 1188.32 589.324C1173.42 600.724 1173.3 617.167 1173.42 636.662C1172.76 647.887 1166.59 652.251 1160.61 656.49L1160.27 656.731C1160.01 674.872 1161.67 685.944 1164.65 704.071L1156.88 711.961L1155.88 710.208L1152.38 709.331C1153.86 696.94 1153.36 690.849 1148.87 682.154C1145.16 680.444 1141.68 676.533 1139.23 665.498C1135.12 669.603 1124.49 673.79 1121.35 675.029L1121.34 675.029C1121.13 675.113 1120.95 675.183 1120.82 675.239C1106.38 681.004 1098.35 678.851 1085.47 675.398L1084.87 675.239C1079.77 673.872 1076.46 671.863 1073.18 669.871C1069.99 667.935 1066.83 666.016 1062.08 664.719C1051.71 661.887 1045.42 661.426 1034.9 668.223C1024.39 675.02 1019.97 680.834 1012.98 691.016C1012.5 691.715 1012.06 692.323 1011.64 692.895C1010.46 694.504 1009.5 695.821 1008.6 698.03L1008.52 698.218C1007.26 701.347 1006.42 703.4 1006.85 706.796C1007.12 708.945 1008.6 712.057 1008.6 712.057C1007.1 711.316 1000.73 715.356 998.957 719.072C998.906 713.509 994.547 711.891 992.325 711.065C991.489 710.755 990.956 710.557 991.067 710.303C998.607 708.202 1006.85 681.375 1004.22 649.813C1003.79 644.741 1003.32 639.891 1002.86 635.197C1000.29 609.123 998.199 587.88 1008.6 560.392C1013.17 548.308 1026.13 532.338 1026.13 532.338C1026.13 532.338 1005.09 541.981 998.08 553.378C991.067 564.775 987.56 588.445 987.56 588.445C987.56 588.445 986.684 595.459 981.424 605.102C976.164 614.746 972.657 616.499 972.657 616.499L976.164 611.239L978.794 605.102C978.794 605.102 975.984 609.679 973.534 611.239C970.793 612.982 966.52 612.992 966.52 612.992L973.534 607.732C973.534 607.732 968.467 609.485 965.643 609.485C962.82 609.485 958.63 607.732 958.63 607.732C960.974 607.397 962.679 607.318 964.134 607.251C966.49 607.141 968.194 607.062 970.903 605.979C972.757 605.237 975.287 603.349 975.287 603.349C975.287 603.349 969.56 602.985 964.767 602.472C959.974 601.958 956 597.212 956 597.212C956 597.212 960.738 598.8 963.89 598.965C966.986 599.128 971.78 598.089 971.78 598.089C971.78 598.089 966.437 597.362 963.013 596.335C959.59 595.308 958.63 592.829 958.63 592.829C958.63 592.829 965.076 594.336 969.15 593.705Z" fill="#8FFF00"/>
<path d="M1012.11 716.44C1010.96 714.573 1008.6 712.057 1008.6 712.057C1007.1 711.316 1000.73 715.356 998.957 719.072V725.207C998.957 725.207 1004.94 726.101 1008.6 725.207C1011.13 724.588 1014.74 722.577 1014.74 722.577C1014.74 722.577 1013.47 718.661 1012.11 716.44Z" fill="#620DF8"/>
<path d="M1171.66 710.208L1164.65 704.071L1156.88 711.961L1159.39 716.345L1167.28 718.098L1174.29 717.222L1171.66 710.208Z" fill="#5B5C6C"/>
<path d="M1160.27 656.731C1162.05 642.119 1163.65 634.494 1169.03 623.417M1160.27 656.731C1160.01 674.872 1161.67 685.944 1164.65 704.071M1160.27 656.731C1160.38 656.651 1160.49 656.571 1160.61 656.49M1160.27 656.731L1160.61 656.49M1084.87 675.239C1079.77 673.872 1076.46 671.863 1073.18 669.871C1069.99 667.935 1066.83 666.016 1062.08 664.719C1051.71 661.887 1045.42 661.426 1034.9 668.223C1024.39 675.02 1019.97 680.834 1012.98 691.016C1012.5 691.715 1012.06 692.323 1011.64 692.895C1010.46 694.504 1009.5 695.821 1008.6 698.03M1084.87 675.239C1085.07 675.292 1085.27 675.345 1085.47 675.398M1084.87 675.239L1085.47 675.398M1008.6 698.03L1008.52 698.218M1008.6 698.03C1008.57 698.093 1008.55 698.156 1008.52 698.218M1008.6 712.057C1008.6 712.057 1007.12 708.945 1006.85 706.796C1006.42 703.4 1007.26 701.347 1008.52 698.218M1008.6 712.057C1008.6 712.057 1010.96 714.573 1012.11 716.44C1013.47 718.661 1014.74 722.577 1014.74 722.577C1014.74 722.577 1011.13 724.588 1008.6 725.207C1004.94 726.101 998.957 725.207 998.957 725.207M1008.6 712.057C1007.1 711.316 1000.73 715.356 998.957 719.072M998.957 725.207C998.957 725.207 998.957 721.469 998.957 719.072M998.957 725.207V719.072M998.957 719.072C998.906 713.509 994.547 711.891 992.325 711.065C991.489 710.755 990.956 710.557 991.067 710.303C998.607 708.202 1006.85 681.375 1004.22 649.813C1003.79 644.741 1003.32 639.891 1002.86 635.197C1000.29 609.123 998.199 587.88 1008.6 560.392C1013.17 548.308 1026.13 532.338 1026.13 532.338C1026.13 532.338 1005.09 541.981 998.08 553.378C991.067 564.775 987.56 588.445 987.56 588.445C987.56 588.445 986.684 595.459 981.424 605.102C976.164 614.746 972.657 616.499 972.657 616.499L976.164 611.239L978.794 605.102C978.794 605.102 975.984 609.679 973.534 611.239C970.793 612.982 966.52 612.992 966.52 612.992L973.534 607.732C973.534 607.732 968.467 609.485 965.643 609.485C962.82 609.485 958.63 607.732 958.63 607.732C960.974 607.397 962.679 607.318 964.134 607.251C966.49 607.141 968.194 607.062 970.903 605.979C972.757 605.237 975.287 603.349 975.287 603.349C975.287 603.349 969.56 602.985 964.767 602.472C959.974 601.958 956 597.212 956 597.212C956 597.212 960.738 598.8 963.89 598.965C966.986 599.128 971.78 598.089 971.78 598.089C971.78 598.089 966.437 597.362 963.013 596.335C959.59 595.308 958.63 592.829 958.63 592.829C958.63 592.829 965.076 594.336 969.15 593.705C974.446 592.885 981.424 587.569 981.424 587.569C985.407 583.556 987.736 573.127 989.66 564.509C989.84 563.703 990.016 562.913 990.19 562.145C992.191 556.242 994.085 553.235 997.535 547.755C997.982 547.046 998.455 546.295 998.957 545.491C1003.34 538.477 1010.35 534.965 1024.38 527.955C1035.16 516.543 1041.81 521.183 1048.65 525.951C1051.26 527.775 1053.91 529.617 1056.82 530.588C1063.12 532.69 1067.23 532.969 1072.1 533.301C1074.57 533.469 1077.24 533.651 1080.49 534.091C1084.07 534.576 1087.09 535.252 1089.95 535.89C1095.29 537.084 1100.06 538.148 1106.79 537.598C1115.29 536.903 1118.64 535.357 1120.93 534.297C1122.43 533.608 1123.47 533.125 1125.2 533.215C1127.21 533.319 1129.96 534.434 1133.27 535.78C1137.19 537.369 1141.89 539.28 1147.12 540.228C1153.62 541.409 1162.9 534.091 1162.9 534.091C1166.53 537.292 1168.85 538.534 1174.29 539.351C1173.83 559.387 1176.35 571.095 1188.32 589.324C1173.42 600.724 1173.3 617.167 1173.42 636.662C1172.76 647.887 1166.59 652.251 1160.61 656.49M1139.23 665.498C1141.68 676.533 1145.16 680.444 1148.87 682.154C1153.36 690.849 1153.86 696.94 1152.38 709.331L1155.88 710.208L1156.88 711.961M1139.23 665.498C1141.63 651.966 1140.76 644.461 1134.84 631.307M1139.23 665.498C1135.12 669.603 1124.49 673.79 1121.35 675.029L1121.34 675.029C1121.13 675.113 1120.95 675.183 1120.82 675.239C1106.38 681.004 1098.35 678.851 1085.47 675.398M1164.65 704.071L1171.66 710.208L1174.29 717.222L1167.28 718.098L1159.39 716.345L1156.88 711.961M1164.65 704.071L1156.88 711.961" stroke="black"/>
<path d="M1018.78 587.515C1018.78 587.515 1012.3 590.155 1010.01 593.652C1006.64 598.808 1005.02 605.824 1010.01 609.432C1013.62 612.038 1018.35 606.203 1021.41 609.432C1023.58 611.722 1020.93 615.09 1023.16 617.322C1026.32 620.479 1034.56 619.185 1034.56 616.446V609.432C1034.56 606.693 1037.4 605.421 1039.82 605.926C1042.69 606.523 1039.53 612.724 1042.45 612.939C1044.64 613.1 1045.94 611.432 1046.84 609.432C1048.16 606.469 1043.55 604.724 1044.2 601.542C1044.84 598.45 1049.66 598.556 1049.47 595.405C1049.3 592.755 1047.38 591.569 1045.13 590.175L1045.08 590.145C1041.3 587.803 1037.59 592.284 1033.68 590.145C1029.77 588.001 1031.96 581.19 1027.55 580.502C1023.22 579.827 1018.78 587.515 1018.78 587.515Z" fill="#FF00C7" stroke="black"/>
<path d="M1154.38 546.646C1152.41 552.018 1149.09 551.861 1147.54 550.411C1146 548.962 1140.49 552.441 1140.12 557C1139.86 560.255 1142.06 562.773 1143.85 563.592C1146.9 564.994 1147.24 567.318 1146.49 573.007C1145.45 580.82 1155.82 586.047 1157.58 578.656C1158.86 573.277 1160.72 571.967 1165.47 571.123C1168.61 570.565 1171.25 561.22 1169.16 557C1168.1 554.848 1164.43 553.895 1163.91 546.646C1163.39 539.396 1156.35 541.273 1154.38 546.646Z" fill="#FF00C7" stroke="black"/>
<path d="M1125.37 562.037C1106.68 561.151 1101.91 576.538 1060.42 574.681C1051.17 574.267 1090.01 590.339 1093.91 599.036C1099.78 612.107 1052.37 600.732 1060.42 613.037C1071.38 629.802 1112.25 644.299 1131.54 633.361C1149.98 622.905 1118.1 616.422 1111.86 599.036C1105.51 581.345 1148.33 563.125 1125.37 562.037Z" fill="#FF0000" stroke="black"/>
<path d="M1037.94 692.39C1030.48 693.614 1034.78 683.839 1033.55 683.227C1033.55 683.227 1031.36 682.134 1030.05 681.279C1027.61 679.688 1024.38 676.423 1024.38 676.423C1024.82 675.966 1025.25 675.533 1025.66 675.142C1039.98 661.554 1050.5 661.115 1051.09 661.115C1064.24 661.115 1071.79 669.492 1072.6 669.882C1071.78 675.668 1070.38 677.889 1060.73 683.032C1060.73 683.032 1062.76 688.791 1061.61 690.922C1060.8 692.429 1059.45 692.85 1058.1 691.799C1057.5 691.329 1057.57 690.73 1057.22 690.046C1056.35 691.157 1051.96 693.552 1051.96 686.539C1047.03 687.983 1045.93 687.341 1042.32 686.539C1042.96 688.874 1042.97 694.702 1040.57 694.429C1037.51 694.081 1037.94 692.39 1037.94 692.39Z" fill="#00FFD1"/>
<path d="M1037.94 692.39V685.662C1036.57 685.054 1035.84 684.371 1033.55 683.227M1037.94 692.39C1030.48 693.614 1034.78 683.839 1033.55 683.227M1037.94 692.39C1037.94 692.39 1037.51 694.081 1040.57 694.429C1042.97 694.702 1042.96 688.874 1042.32 686.539C1045.93 687.341 1047.03 687.983 1051.96 686.539M1033.55 683.227C1033.55 683.227 1031.36 682.134 1030.05 681.279C1027.61 679.688 1024.38 676.423 1024.38 676.423C1024.82 675.966 1025.25 675.533 1025.66 675.142C1039.98 661.554 1050.5 661.115 1051.09 661.115C1064.24 661.115 1071.79 669.492 1072.6 669.882C1071.78 675.668 1070.38 677.889 1060.73 683.032C1060.73 683.032 1062.76 688.791 1061.61 690.922C1060.8 692.429 1059.45 692.85 1058.1 691.799C1057.5 691.329 1057.57 690.73 1057.22 690.046M1051.96 686.539C1051.96 693.552 1056.35 691.157 1057.22 690.046M1051.96 686.539C1053.72 686.393 1056.35 684.785 1056.35 684.785C1056.35 684.785 1056.54 687.991 1057.22 690.046" stroke="#FF478E"/>
<path d="M1185.52 589.371H1179.38C1179.38 589.371 1170.83 588.262 1168.86 584.111C1167.24 580.693 1168.79 578.127 1169.74 574.467C1171.72 566.838 1175.29 563.095 1181.14 557.81C1184.24 555.008 1186.19 553.6 1189.9 551.674C1197.95 547.496 1203.65 546.782 1212.7 547.29C1217.92 547.584 1221.12 547.66 1225.85 549.92C1233.28 553.478 1237.94 557.685 1239.87 565.7C1240.84 569.694 1241.31 572.374 1239.87 576.22C1236.97 583.967 1220.59 584.987 1220.59 584.987C1220.72 585.531 1213.33 594.719 1206.56 596.384C1196.52 598.852 1184.42 590.385 1185.52 589.371Z" fill="#BCEA73"/>
<path d="M1185.52 589.371H1179.38C1179.38 589.371 1170.83 588.262 1168.86 584.111C1167.24 580.693 1168.79 578.127 1169.74 574.467C1171.72 566.838 1175.29 563.095 1181.14 557.81C1184.24 555.008 1186.19 553.6 1189.9 551.674C1197.95 547.496 1203.65 546.782 1212.7 547.29C1217.92 547.584 1221.12 547.66 1225.85 549.92C1233.28 553.478 1237.94 557.685 1239.87 565.7C1240.84 569.694 1241.31 572.374 1239.87 576.22C1236.97 583.967 1220.59 584.987 1220.59 584.987M1185.52 589.371C1184.42 590.385 1196.52 598.852 1206.56 596.384C1213.33 594.719 1220.72 585.531 1220.59 584.987M1185.52 589.371C1199.58 589.184 1207.54 588.316 1220.59 584.987M1224.09 571.837C1222.17 573.906 1219.75 574.512 1217.08 573.59C1214.55 572.717 1213.42 570.904 1212.7 568.33C1211.18 562.966 1217.45 557.891 1222.34 557.811M1182.89 562.192C1183.74 561.315 1190.35 563.323 1192.53 565.7C1199.29 573.068 1187.07 583.261 1181.14 578.849" stroke="black"/>
<path d="M1234.57 555.814L1234.78 555.914C1231.49 543.523 1220.07 526.107 1234.78 526.107C1249.5 526.107 1252.18 526.522 1261.5 521.5C1273.83 514.857 1278.84 506.125 1283 492.794C1283 492.794 1269.55 494.678 1262.84 490.164C1256.13 485.649 1246.18 491.917 1242.67 493.67C1239.17 495.424 1230.4 496.3 1228.65 491.917C1224.51 485.584 1219.87 482.631 1208.48 484.027C1211.13 480.571 1208.48 470 1208.48 470C1208.48 470 1210.24 477.89 1201.47 483.15C1204.01 478.238 1203.5 475.831 1201.47 471.753C1200.71 477.082 1198.13 479.982 1194.46 483.15C1196.57 477.013 1197.09 470.877 1197.09 470.877L1190.95 478.328L1184.81 485.78C1184.81 485.78 1178.14 493.392 1172.54 496.3C1168.7 498.295 1168.68 497.844 1162.02 499.807C1151.76 501.874 1149.49 500.633 1139.23 498.93C1131.46 499.439 1128.62 501.176 1125.2 505.944C1120.55 512.152 1117.67 514.654 1112.05 516.464C1106.43 518.273 1101.53 516.464 1101.53 516.464L1110.3 526.984C1118.44 533.221 1124.01 535.902 1133.97 538.381C1141.64 540.29 1146.58 542.468 1154.13 540.134C1159.12 538.591 1161.08 535.175 1165.53 533.121C1169.41 531.256 1170.9 531.646 1171.66 536.627C1173.41 551.011 1173.08 557.315 1171.66 571.694C1174.76 568.892 1180.43 558.544 1190.95 552.408C1198.78 547.84 1204.69 547.515 1213.74 548.024C1218.9 548.314 1229.74 553.501 1234.57 555.814Z" fill="#BCEA73"/>
<path d="M1244.92 498.054C1244.92 498.054 1251.87 499.42 1255.82 499.807C1260.93 500.307 1268.97 498.93 1268.97 498.93C1268.97 498.93 1263.98 506.373 1260.21 509.45C1256.44 512.528 1247.93 515.587 1247.93 515.587M1153.25 526.107C1147.82 526.569 1142.03 533.741 1133.97 530.491C1131.49 529.491 1119.06 524.354 1119.06 524.354C1119.06 524.354 1133.06 515.699 1138.06 506.82M1157.64 505.944C1155.08 507.641 1151.5 507.697 1147.12 507.697C1142.73 507.697 1138.06 506.82 1138.06 506.82M1133.97 505.944L1138.06 506.82M1110.3 526.984L1101.53 516.464C1101.53 516.464 1106.43 518.273 1112.05 516.464C1117.67 514.654 1120.55 512.152 1125.2 505.944C1128.62 501.176 1131.46 499.439 1139.23 498.93C1149.49 500.633 1151.76 501.874 1162.02 499.807C1168.68 497.844 1168.7 498.295 1172.54 496.3C1178.14 493.392 1184.81 485.78 1184.81 485.78L1190.95 478.328L1197.09 470.877C1197.09 470.877 1196.57 477.013 1194.46 483.15C1198.13 479.982 1200.71 477.082 1201.47 471.753C1203.5 475.831 1204.01 478.238 1201.47 483.15C1210.24 477.89 1208.48 470 1208.48 470C1208.48 470 1211.13 480.571 1208.48 484.027C1219.87 482.631 1224.51 485.584 1228.65 491.917C1230.4 496.3 1239.17 495.424 1242.67 493.67C1246.18 491.917 1256.13 485.649 1262.84 490.164C1269.55 494.678 1283 492.794 1283 492.794C1278.84 506.125 1273.83 514.857 1261.5 521.5C1252.18 526.522 1249.5 526.107 1234.78 526.107C1220.07 526.107 1231.49 543.523 1234.78 555.914C1230.06 553.654 1218.97 548.318 1213.74 548.024C1204.69 547.515 1198.78 547.84 1190.95 552.408C1180.43 558.544 1174.76 568.892 1171.66 571.694C1173.08 557.315 1173.41 551.011 1171.66 536.627C1170.9 531.646 1169.41 531.256 1165.53 533.121C1161.08 535.175 1159.12 538.591 1154.13 540.134C1146.58 542.468 1141.64 540.29 1133.97 538.381C1124.01 535.902 1118.44 533.221 1110.3 526.984Z" stroke="black"/>
<path fill-rule="evenodd" clip-rule="evenodd" d="M1186.73 523.418C1186.73 523.418 1174.61 525.64 1171.83 522.542C1168.61 518.968 1169.8 514.102 1172.7 510.268C1173.71 508.94 1174.9 507.659 1176.21 506.701C1175.15 517.402 1178.01 517.502 1186.35 512.022C1186.65 513.506 1186.73 514.652 1186.73 514.652V523.418Z" fill="white"/>
<path d="M1176.21 506.701C1175.15 517.402 1178.01 517.502 1186.35 512.022C1186.09 510.737 1185.66 509.198 1184.98 507.927C1181 510.779 1179.5 510.177 1177.96 505.657C1177.36 505.929 1176.78 506.285 1176.21 506.701Z" fill="#A6DFFF"/>
<path d="M1184.98 507.927C1184.52 507.072 1183.94 506.338 1183.22 505.885C1181.48 504.785 1179.67 504.883 1177.96 505.657C1179.5 510.177 1181 510.779 1184.98 507.927Z" fill="#FF7C7C"/>
<path d="M1186.35 512.022C1186.65 513.506 1186.73 514.652 1186.73 514.652V523.418C1186.73 523.418 1174.61 525.64 1171.83 522.542C1168.61 518.968 1169.8 514.102 1172.7 510.268C1173.71 508.94 1174.9 507.659 1176.21 506.701M1186.35 512.022C1178.01 517.502 1175.15 517.402 1176.21 506.701M1186.35 512.022C1186.09 510.737 1185.66 509.198 1184.98 507.927M1176.21 506.701C1176.78 506.285 1177.36 505.929 1177.96 505.657M1184.98 507.927C1184.52 507.072 1183.94 506.338 1183.22 505.885C1181.48 504.785 1179.67 504.883 1177.96 505.657M1184.98 507.927C1181 510.779 1179.5 510.177 1177.96 505.657" stroke="black"/>
<path fill-rule="evenodd" clip-rule="evenodd" d="M1210.24 521.665C1210.24 521.665 1222.36 523.886 1225.14 520.788C1228.35 517.214 1227.16 512.348 1224.26 508.515C1223.26 507.187 1222.06 505.906 1220.76 504.948C1221.81 515.649 1218.96 515.748 1210.62 510.268C1210.32 511.753 1210.24 512.898 1210.24 512.898V521.665Z" fill="white"/>
<path d="M1220.76 504.948C1221.81 515.649 1218.96 515.748 1210.62 510.268C1210.88 508.983 1211.31 507.444 1211.99 506.173C1215.97 509.026 1217.47 508.423 1219 503.904C1219.6 504.176 1220.19 504.532 1220.76 504.948Z" fill="#A6DFFF"/>
<path d="M1211.99 506.173C1212.45 505.318 1213.02 504.585 1213.74 504.132C1215.49 503.032 1217.3 503.129 1219 503.904C1217.47 508.423 1215.97 509.026 1211.99 506.173Z" fill="#FF7C7C"/>
<path d="M1210.62 510.268C1210.32 511.753 1210.24 512.898 1210.24 512.898V521.665C1210.24 521.665 1222.36 523.886 1225.14 520.788C1228.35 517.214 1227.16 512.348 1224.26 508.515C1223.26 507.187 1222.06 505.906 1220.76 504.948M1210.62 510.268C1218.96 515.748 1221.81 515.649 1220.76 504.948M1210.62 510.268C1210.88 508.983 1211.31 507.444 1211.99 506.173M1220.76 504.948C1220.19 504.532 1219.6 504.176 1219 503.904M1211.99 506.173C1212.45 505.318 1213.02 504.585 1213.74 504.132C1215.49 503.032 1217.3 503.129 1219 503.904M1211.99 506.173C1215.97 509.026 1217.47 508.423 1219 503.904" stroke="black"/>
<path d="M1178.51 535.7C1178.51 535.7 1172.37 540.084 1161.85 533.07C1152.57 527.732 1153.63 516.093 1159.99 508.571C1160.35 508.154 1160.72 507.75 1161.1 507.36C1165.56 502.839 1172.1 500.259 1179.38 502.387C1193.17 505.313 1201.58 503.968 1217.08 499.757C1221.89 498.353 1226.37 498.998 1230.14 500.898C1234.54 503.815 1237.78 507.647 1237.78 507.647C1239.6 510.285 1240.81 513.282 1241.24 516.274C1242.03 521.764 1240.18 527.237 1234.61 530.44C1232.34 531.956 1230.27 532.94 1228.43 533.55C1221.73 535.764 1217.96 533.07 1217.96 533.07C1210.91 526.731 1206.1 521.666 1203.54 517.498C1198.25 508.858 1202.67 504.069 1217.08 499.757C1201.58 503.968 1193.17 505.313 1179.38 502.387C1200.74 508.78 1200.16 516.218 1178.51 535.7Z" fill="#FF0000"/>
<path d="M1179.38 502.387C1200.74 508.78 1200.16 516.218 1178.51 535.7C1178.51 535.7 1172.37 540.084 1161.85 533.07C1152.57 527.732 1153.63 516.093 1159.99 508.571C1160.35 508.154 1160.72 507.75 1161.1 507.36M1179.38 502.387C1172.1 500.259 1165.56 502.839 1161.1 507.36M1179.38 502.387C1193.17 505.313 1201.58 503.968 1217.08 499.757M1217.08 499.757C1202.67 504.069 1198.25 508.858 1203.54 517.498M1217.08 499.757C1221.89 498.353 1226.37 498.998 1230.14 500.898C1234.54 503.815 1237.78 507.647 1237.78 507.647C1239.6 510.285 1240.81 513.282 1241.24 516.274C1242.03 521.764 1240.18 527.237 1234.61 530.44C1232.34 531.956 1230.27 532.94 1228.43 533.55C1221.73 535.764 1217.96 533.07 1217.96 533.07C1210.91 526.731 1206.1 521.666 1203.54 517.498M1203.54 517.498C1199.77 513.092 1197.92 513.428 1194.46 517.884M1161.1 507.36C1156.33 505.26 1153.01 511.489 1156.36 514.66M1161.1 507.36C1161.12 507.368 1161.14 507.376 1161.16 507.384M1240.11 512.03C1243.47 508.847 1240.11 502.583 1235.31 504.754" stroke="black"/>
<path d="M1382.85 331.219C1254.02 327.722 1263.53 365.189 1197 510.559L1269.33 583.994C1326.18 601.978 1447.79 637.546 1479.47 635.948C1519.07 633.95 1671.13 578.499 1671.13 571.505C1671.13 564.511 1684.33 437.125 1671.13 420.639C1657.93 404.154 1511.68 334.716 1382.85 331.219Z" stroke="#0066FF" stroke-width="3"/>
</svg>
