<svg viewBox="0 0 267 395" fill="none" xmlns="http://www.w3.org/2000/svg">
<path d="M267 352.26H0L100.125 50.4832H166.875L267 352.26Z" fill="#B7E8C4" fill-opacity="0.53"/>
<path d="M267 351.701C267 327.845 207.23 308.508 133.502 308.508C59.7702 308.508 0 327.845 0 351.701C0 375.553 59.7702 394.89 133.502 394.89C207.23 394.89 267 375.553 267 351.701Z" fill="#4CC66E" fill-opacity="0.22"/>
<path d="M222.12 59.2528C222.12 40.5524 180.432 25.3938 129.007 25.3938C77.5805 25.3938 35.8928 40.5524 35.8928 59.2528C35.8928 77.9532 77.5805 93.1134 129.007 93.1134C180.432 93.1134 222.12 77.9532 222.12 59.2528Z" fill="#D6DEFF"/>
<path d="M222.12 59.2528C222.12 40.5524 180.432 25.3938 129.007 25.3938C77.5805 25.3938 35.8928 40.5524 35.8928 59.2528C35.8928 77.9532 77.5805 93.1134 129.007 93.1134C180.432 93.1134 222.12 77.9532 222.12 59.2528Z" fill="#33527D"/>
<path d="M213.649 50.7884C213.649 36.7627 175.75 25.3938 129 25.3938C82.2505 25.3938 44.3506 36.7627 44.3506 50.7884C44.3506 64.8142 82.2505 76.1831 129 76.1831C175.75 76.1831 213.649 64.8142 213.649 50.7884Z" fill="#5E7599"/>
<path d="M205.196 55.0221C205.196 43.3339 176.771 33.8589 141.709 33.8589C106.646 33.8589 78.2227 43.3339 78.2227 55.0221C78.2227 66.7088 106.646 76.1838 141.709 76.1838C176.771 76.1838 205.196 66.7088 205.196 55.0221Z" fill="#435E88"/>
<path d="M78.2227 50.7893C78.2227 22.7397 100.961 0 129.012 0C157.062 0 179.801 22.7397 179.801 50.7893C179.801 50.7893 162.871 59.2537 129.012 59.2537C95.1514 59.2537 78.2227 50.7893 78.2227 50.7893Z" fill="#5E7599"/>
<path d="M128.268 12.2453C125.515 7.25244 116.042 7.19808 107.109 12.1242C98.1755 17.0484 93.166 25.0882 95.917 30.0806C98.6699 35.0715 108.143 35.1254 117.076 30.2013C126.01 25.2755 131.019 17.2377 128.268 12.2453Z" fill="#7D8FAC"/>
<path d="M110.325 10.2253C107.469 7.37159 102.154 8.06002 98.4543 11.7629C94.7546 15.4657 94.0709 20.7804 96.9274 23.6341C99.7823 26.487 105.097 25.7994 108.797 22.0961C112.497 18.3929 113.18 13.0786 110.325 10.2253Z" fill="#ADB9CA"/>
<path d="M103.612 33.8591C103.612 38.5353 99.8222 42.3251 95.1456 42.3251C90.471 42.3251 86.6813 38.5357 86.6813 33.8591C86.6813 29.1845 90.4706 25.3948 95.1456 25.3948C99.8218 25.3948 103.612 29.1841 103.612 33.8591ZM137.471 42.3251C137.471 46.9997 133.681 50.7894 129.006 50.7894C124.33 50.7894 120.54 47.0001 120.54 42.3251C120.54 37.6489 124.33 33.8591 129.006 33.8591C133.681 33.8591 137.471 37.6485 137.471 42.3251ZM171.33 33.8591C171.33 38.5353 167.54 42.3251 162.865 42.3251C158.19 42.3251 154.401 38.5357 154.401 33.8591C154.401 29.1845 158.19 25.3948 162.865 25.3948C167.54 25.3948 171.33 29.1841 171.33 33.8591Z" fill="#EFF2FF"/>
<path d="M86.6784 177.768C85.2782 177.765 83.9007 177.415 82.6689 176.75C81.4372 176.084 80.3896 175.123 79.6198 173.954C78.8498 172.785 78.3814 171.443 78.2565 170.049C78.1315 168.655 78.354 167.251 78.904 165.964L104.299 106.709C106.14 102.411 111.117 100.417 115.415 102.26C119.713 104.103 121.703 109.083 119.857 113.38L94.4622 172.635C93.8097 174.158 92.7243 175.457 91.3406 176.37C89.9569 177.282 88.3359 177.769 86.6784 177.768Z" fill="#D5F1DD"/>
<path d="M156.498 337.116L154.816 330.946C159.101 329.092 162.108 326.458 162.108 326.458C162.108 326.458 162.108 332.068 167.717 337.116L162.108 342.725L160.986 351.139C161.134 351.195 161.278 351.251 161.42 351.308C163.388 352.101 164.771 353.031 166.595 355.066C167.422 356.674 167.722 357.625 167.717 359.553L163.79 360.114L158.181 359.553V355.627C157.26 353.218 156.187 352.488 153.694 352.261V350.017L155.938 347.213C157.62 344.408 157.591 339.825 156.498 337.116Z" fill="#00FF19" fill-opacity="0.78"/>
<path d="M154.816 330.946L154.617 330.487L154.219 330.659L154.333 331.077L154.816 330.946ZM156.498 337.116L156.016 337.248L156.024 337.276L156.035 337.303L156.498 337.116ZM155.938 347.213L156.328 347.525L156.349 347.499L156.366 347.47L155.938 347.213ZM153.694 350.017L153.303 349.705L153.194 349.842V350.017H153.694ZM153.694 352.261H153.194V352.718L153.649 352.759L153.694 352.261ZM158.181 359.553H157.681V360.006L158.131 360.051L158.181 359.553ZM163.79 360.114L163.741 360.611L163.801 360.618L163.861 360.609L163.79 360.114ZM167.717 359.553L167.788 360.048L168.216 359.987L168.217 359.554L167.717 359.553ZM166.595 355.066L167.04 354.837L167.01 354.78L166.967 354.732L166.595 355.066ZM160.986 351.139L160.49 351.073L160.438 351.466L160.809 351.607L160.986 351.139ZM162.108 342.725L161.754 342.372L161.634 342.491L161.612 342.659L162.108 342.725ZM167.717 337.116L168.071 337.47L168.443 337.097L168.051 336.744L167.717 337.116ZM162.108 326.458H162.608C162.608 326.262 162.493 326.084 162.314 326.003C162.135 325.922 161.926 325.953 161.778 326.082L162.108 326.458ZM154.333 331.077L156.016 337.248L156.981 336.984L155.298 330.814L154.333 331.077ZM156.035 337.303C156.55 338.579 156.824 340.33 156.759 342.111C156.695 343.893 156.293 345.649 155.509 346.955L156.366 347.47C157.265 345.972 157.69 344.034 157.759 342.147C157.827 340.258 157.54 338.362 156.962 336.929L156.035 337.303ZM155.547 346.9L153.303 349.705L154.084 350.33L156.328 347.525L155.547 346.9ZM153.194 350.017V352.261H154.194V350.017H153.194ZM153.649 352.759C154.863 352.87 155.645 353.097 156.23 353.528C156.814 353.958 157.268 354.639 157.714 355.805L158.648 355.448C158.173 354.206 157.63 353.318 156.824 352.723C156.019 352.131 155.018 351.88 153.739 351.763L153.649 352.759ZM157.681 355.627V359.553H158.681V355.627H157.681ZM158.131 360.051L163.741 360.611L163.84 359.616L158.231 359.056L158.131 360.051ZM163.861 360.609L167.788 360.048L167.646 359.058L163.72 359.619L163.861 360.609ZM168.217 359.554C168.22 358.563 168.144 357.798 167.952 357.063C167.76 356.331 167.459 355.653 167.04 354.837L166.15 355.294C166.558 356.087 166.82 356.689 166.984 357.316C167.148 357.941 167.219 358.614 167.217 359.552L168.217 359.554ZM166.967 354.732C165.097 352.645 163.651 351.668 161.607 350.845L161.233 351.772C163.124 352.534 164.446 353.417 166.223 355.399L166.967 354.732ZM161.607 350.845C161.462 350.786 161.314 350.729 161.163 350.671L160.809 351.607C160.954 351.662 161.095 351.717 161.233 351.772L161.607 350.845ZM161.481 351.205L162.603 342.791L161.612 342.659L160.49 351.073L161.481 351.205ZM162.461 343.079L168.071 337.47L167.363 336.763L161.754 342.372L162.461 343.079ZM158.581 355.927L161.82 351.608L161.02 351.008L157.781 355.327L158.581 355.927ZM161.82 351.608L161.947 351.439L161.147 350.839L161.02 351.008L161.82 351.608ZM162.108 326.458C161.608 326.458 161.608 326.459 161.608 326.459C161.608 326.459 161.608 326.459 161.608 326.46C161.608 326.46 161.608 326.461 161.608 326.461C161.608 326.463 161.608 326.465 161.608 326.467C161.608 326.471 161.608 326.476 161.608 326.483C161.608 326.496 161.609 326.515 161.609 326.539C161.611 326.587 161.614 326.655 161.62 326.743C161.632 326.918 161.655 327.17 161.701 327.486C161.792 328.117 161.974 329.007 162.336 330.057C163.061 332.159 164.506 334.899 167.382 337.488L168.051 336.744C165.318 334.284 163.959 331.696 163.282 329.731C162.942 328.748 162.774 327.92 162.69 327.342C162.648 327.053 162.628 326.827 162.618 326.676C162.612 326.6 162.61 326.543 162.609 326.507C162.608 326.488 162.608 326.475 162.608 326.467C162.608 326.463 162.608 326.46 162.608 326.459C162.608 326.458 162.608 326.458 162.608 326.458C162.608 326.458 162.608 326.458 162.608 326.458C162.608 326.458 162.608 326.458 162.608 326.458C162.608 326.458 162.608 326.458 162.108 326.458ZM155.014 331.405C157.195 330.461 159.047 329.321 160.353 328.418C161.007 327.966 161.525 327.573 161.881 327.291C162.059 327.15 162.197 327.037 162.291 326.959C162.338 326.92 162.373 326.889 162.398 326.868C162.41 326.858 162.42 326.85 162.426 326.844C162.43 326.841 162.432 326.839 162.434 326.837C162.435 326.837 162.436 326.836 162.436 326.836C162.436 326.835 162.437 326.835 162.437 326.835C162.437 326.835 162.437 326.835 162.437 326.835C162.437 326.835 162.437 326.835 162.108 326.458C161.778 326.082 161.778 326.082 161.778 326.082C161.778 326.082 161.778 326.082 161.778 326.082C161.778 326.082 161.778 326.082 161.778 326.082C161.778 326.083 161.778 326.083 161.777 326.083C161.776 326.084 161.774 326.086 161.772 326.088C161.767 326.093 161.759 326.099 161.748 326.109C161.726 326.127 161.693 326.155 161.65 326.191C161.562 326.264 161.432 326.372 161.261 326.507C160.919 326.777 160.418 327.158 159.784 327.596C158.516 328.473 156.722 329.577 154.617 330.487L155.014 331.405Z" fill="black"/>
<path d="M90.4913 347.515C90.4913 347.515 92.1718 344.36 91.6132 341.345C91.0535 338.324 88.4989 336.176 87.5143 335.447C88.6763 333.504 89.9304 331.809 89.9304 331.809C89.9304 331.809 91.8438 329.406 93.5975 327.58L97.2224 330.687V340.784L101.71 349.758L103.953 351.441L106.197 354.807C106.197 354.807 103.895 356.109 102.271 356.489C100.138 356.989 96.6615 356.489 96.6615 356.489L96.1005 352.563C95.5396 348.076 92.1741 348.076 90.4913 347.515Z" fill="#467D00"/>
<path d="M96.1005 352.563C95.5396 348.076 92.1741 348.076 90.4913 347.515C90.4913 347.515 92.1718 344.36 91.6132 341.345C91.0535 338.324 88.4989 336.176 87.5143 335.447C88.6763 333.504 89.9304 331.809 89.9304 331.809C89.9304 331.809 91.8438 329.406 93.5975 327.58L97.2224 330.687V340.784L101.71 349.758M96.1005 352.563L96.6615 356.489C96.6615 356.489 100.138 356.989 102.271 356.489C103.895 356.109 106.197 354.807 106.197 354.807L103.953 351.441L101.71 349.758M96.1005 352.563L101.71 349.758" stroke="black"/>
<path fill-rule="evenodd" clip-rule="evenodd" d="M53.2981 281.086C56.6865 280.561 61.1511 277.16 61.1511 277.16C63.7001 274.592 65.1899 267.919 66.421 262.405C66.5361 261.89 66.649 261.384 66.7603 260.893C68.0406 257.116 69.2523 255.192 71.4596 251.686C71.7455 251.232 72.048 250.751 72.3696 250.237C75.1742 245.749 79.6616 243.502 88.6364 239.017C95.5336 231.715 99.7897 234.684 104.164 237.734C105.837 238.901 107.528 240.081 109.391 240.701C113.425 242.046 116.055 242.225 119.168 242.437C120.75 242.545 122.457 242.661 124.536 242.943C126.824 243.254 128.759 243.686 130.587 244.094C134.008 244.858 137.058 245.539 141.363 245.187C146.802 244.742 148.945 243.753 150.414 243.075C151.368 242.634 152.038 242.325 153.143 242.382C154.429 242.449 156.186 243.163 158.307 244.024C160.813 245.04 163.825 246.263 167.166 246.87C171.328 247.625 177.262 242.943 177.262 242.943C179.586 244.991 181.075 245.786 184.554 246.309C184.256 259.128 185.868 266.619 193.529 278.283C183.994 285.577 183.919 296.098 183.994 308.571C183.573 315.753 179.629 318.545 175.797 321.258L175.58 321.412C175.417 333.019 176.477 340.103 178.384 351.702L173.416 356.75L172.775 355.628L170.531 355.067C171.482 347.139 171.163 343.242 168.288 337.679C165.916 336.584 163.687 334.082 162.117 327.021C159.491 329.648 152.691 332.326 150.678 333.119L150.677 333.12C150.541 333.173 150.427 333.218 150.338 333.254C141.102 336.943 135.963 335.565 127.721 333.356L127.34 333.254C124.076 332.379 121.959 331.094 119.86 329.819C117.82 328.581 115.797 327.353 112.756 326.523C106.12 324.711 102.096 324.416 95.3675 328.765C88.6393 333.113 85.8149 336.834 81.3444 343.349C81.0377 343.796 80.7524 344.185 80.4843 344.551C79.7302 345.58 79.1125 346.423 78.5397 347.836L78.4908 347.957C77.679 349.958 77.1462 351.272 77.4179 353.445C77.5897 354.82 78.5397 356.811 78.5397 356.811C77.5765 356.337 73.507 358.922 72.3696 361.3C72.3368 357.74 69.5481 356.705 68.1262 356.177C67.5915 355.978 67.2501 355.851 67.3213 355.689C72.1456 354.345 77.4179 337.18 75.7351 316.985C75.4647 313.74 75.1594 310.637 74.8638 307.634C73.2222 290.95 71.8848 277.359 78.5397 259.771C81.4651 252.04 89.7582 241.821 89.7582 241.821C89.7582 241.821 76.296 247.991 71.8086 255.284C67.3213 262.576 65.0776 277.72 65.0776 277.72C65.0776 277.72 64.5166 282.208 61.1511 288.378C57.7855 294.548 55.5418 295.67 55.5418 295.67L57.7855 292.304L59.4683 288.378C59.4683 288.378 57.6709 291.307 56.1028 292.304C54.3495 293.42 51.6154 293.426 51.6154 293.426L56.1028 290.061C56.1028 290.061 52.8608 291.183 51.0544 291.183C49.2481 291.183 46.5671 290.061 46.5671 290.061C48.0668 289.847 49.1574 289.796 50.0889 289.753C51.5961 289.683 52.6866 289.632 54.42 288.939C55.6059 288.465 57.2246 287.256 57.2246 287.256C57.2246 287.256 53.5603 287.024 50.4935 286.695C47.4268 286.367 44.8843 283.33 44.8843 283.33C44.8843 283.33 47.9158 284.346 49.9326 284.452C51.9135 284.556 54.9809 283.891 54.9809 283.891C54.9809 283.891 51.5622 283.426 49.3717 282.769C47.1811 282.112 46.5671 280.525 46.5671 280.525C46.5671 280.525 50.6915 281.49 53.2981 281.086Z" fill="#8FFF00"/>
<path d="M80.7834 359.615C80.0484 358.421 78.5397 356.811 78.5397 356.811C77.5765 356.337 73.507 358.922 72.3696 361.3V365.225C72.3696 365.225 76.1991 365.797 78.5397 365.225C80.1603 364.829 82.4662 363.542 82.4662 363.542C82.4662 363.542 81.6576 361.036 80.7834 359.615Z" fill="#620DF8"/>
<path d="M182.872 355.628L178.384 351.702L173.416 356.75L175.019 359.555L180.067 360.676L184.554 360.116L182.872 355.628Z" fill="#5B5C6C"/>
<path d="M175.58 321.412C176.72 312.063 177.746 307.184 181.189 300.097M175.58 321.412C175.417 333.019 176.477 340.103 178.384 351.702M175.58 321.412C175.652 321.36 175.725 321.309 175.797 321.258M175.58 321.412L175.797 321.258M127.34 333.254C124.076 332.379 121.959 331.094 119.86 329.819C117.82 328.581 115.797 327.353 112.756 326.523C106.12 324.711 102.096 324.416 95.3675 328.765C88.6393 333.113 85.8149 336.834 81.3444 343.349C81.0377 343.796 80.7524 344.185 80.4843 344.551C79.7302 345.58 79.1125 346.423 78.5397 347.836M127.34 333.254C127.468 333.288 127.595 333.322 127.721 333.356M127.34 333.254L127.721 333.356M78.5397 347.836L78.4908 347.957M78.5397 347.836C78.5233 347.877 78.507 347.917 78.4908 347.957M78.5397 356.811C78.5397 356.811 77.5897 354.82 77.4179 353.445C77.1462 351.272 77.679 349.958 78.4908 347.957M78.5397 356.811C78.5397 356.811 80.0484 358.421 80.7834 359.615C81.6576 361.036 82.4662 363.542 82.4662 363.542C82.4662 363.542 80.1603 364.829 78.5397 365.225C76.1991 365.797 72.3696 365.225 72.3696 365.225M78.5397 356.811C77.5765 356.337 73.507 358.922 72.3696 361.3M72.3696 365.225C72.3696 365.225 72.3696 362.833 72.3696 361.3M72.3696 365.225V361.3M72.3696 361.3C72.3368 357.74 69.5481 356.705 68.1262 356.177C67.5915 355.978 67.2501 355.851 67.3213 355.689C72.1456 354.345 77.4179 337.18 75.7351 316.985C75.4647 313.74 75.1594 310.637 74.8638 307.634C73.2222 290.95 71.8848 277.359 78.5397 259.771C81.4651 252.04 89.7582 241.821 89.7582 241.821C89.7582 241.821 76.296 247.991 71.8086 255.284C67.3213 262.576 65.0776 277.72 65.0776 277.72C65.0776 277.72 64.5166 282.208 61.1511 288.378C57.7855 294.548 55.5418 295.67 55.5418 295.67L57.7855 292.304L59.4683 288.378C59.4683 288.378 57.6709 291.307 56.1028 292.304C54.3495 293.42 51.6154 293.426 51.6154 293.426L56.1028 290.061C56.1028 290.061 52.8608 291.183 51.0544 291.183C49.2481 291.183 46.5671 290.061 46.5671 290.061C48.0668 289.846 49.1574 289.796 50.0889 289.753C51.5961 289.683 52.6866 289.632 54.42 288.939C55.6059 288.465 57.2246 287.256 57.2246 287.256C57.2246 287.256 53.5603 287.024 50.4935 286.695C47.4268 286.367 44.8843 283.33 44.8843 283.33C44.8843 283.33 47.9158 284.346 49.9326 284.452C51.9135 284.556 54.9809 283.891 54.9809 283.891C54.9809 283.891 51.5622 283.426 49.3717 282.769C47.1811 282.112 46.5671 280.525 46.5671 280.525C46.5671 280.525 50.6915 281.49 53.2981 281.086C56.6865 280.561 61.1511 277.16 61.1511 277.16C63.7001 274.592 65.1899 267.919 66.421 262.405C66.5361 261.89 66.649 261.384 66.7603 260.893C68.0406 257.116 69.2523 255.192 71.4596 251.686C71.7455 251.232 72.048 250.751 72.3696 250.237C75.1742 245.749 79.6616 243.502 88.6364 239.017C95.5336 231.715 99.7897 234.684 104.164 237.734C105.837 238.901 107.528 240.081 109.391 240.701C113.425 242.046 116.055 242.225 119.168 242.437C120.75 242.545 122.457 242.661 124.536 242.943C126.824 243.254 128.759 243.686 130.587 244.094C134.008 244.858 137.058 245.539 141.363 245.187C146.802 244.742 148.945 243.753 150.414 243.075C151.368 242.634 152.038 242.325 153.143 242.382C154.429 242.449 156.186 243.163 158.307 244.024C160.813 245.04 163.825 246.263 167.166 246.87C171.328 247.625 177.262 242.943 177.262 242.943C179.586 244.991 181.075 245.786 184.554 246.309C184.256 259.128 185.868 266.619 193.529 278.283C183.994 285.577 183.919 296.098 183.994 308.571C183.573 315.753 179.629 318.545 175.797 321.258M162.117 327.021C163.687 334.082 165.916 336.584 168.288 337.679C171.163 343.242 171.482 347.139 170.531 355.067L172.775 355.628L173.416 356.75M162.117 327.021C163.656 318.363 163.099 313.561 159.313 305.145M162.117 327.021C159.491 329.648 152.691 332.326 150.678 333.119L150.677 333.12C150.541 333.173 150.427 333.218 150.338 333.254C141.102 336.943 135.963 335.565 127.721 333.356M178.384 351.702L182.872 355.628L184.554 360.116L180.067 360.676L175.019 359.555L173.416 356.75M178.384 351.702L173.416 356.75" stroke="black"/>
<path d="M85.0412 277.126C85.0412 277.126 80.8964 278.815 79.432 281.052C77.2726 284.351 76.2355 288.84 79.432 291.149C81.7406 292.816 84.764 289.083 86.724 291.149C88.114 292.614 86.4178 294.769 87.8458 296.197C89.8654 298.217 95.1379 297.389 95.1379 295.636V291.149C95.1379 289.396 96.9571 288.582 98.5034 288.905C100.336 289.287 98.3196 293.255 100.186 293.392C101.585 293.496 102.417 292.429 102.991 291.149C103.841 289.253 100.892 288.136 101.308 286.1C101.712 284.122 104.8 284.19 104.674 282.174C104.567 280.478 103.341 279.72 101.899 278.827L101.869 278.808C99.4476 277.309 97.0744 280.177 94.5769 278.808C92.0721 277.436 93.4725 273.078 90.6505 272.638C87.8787 272.206 85.0412 277.126 85.0412 277.126Z" fill="#FF00C7" stroke="black"/>
<path d="M171.803 250.976C170.542 254.413 168.417 254.313 167.429 253.385C166.441 252.458 162.919 254.684 162.682 257.601C162.512 259.683 163.921 261.294 165.064 261.819C167.019 262.715 167.238 264.202 166.753 267.842C166.088 272.841 172.722 276.186 173.849 271.457C174.668 268.015 175.861 267.177 178.898 266.637C180.907 266.28 182.598 260.301 181.263 257.601C180.583 256.224 178.234 255.614 177.903 250.976C177.572 246.337 173.065 247.538 171.803 250.976Z" fill="#FF00C7" stroke="black"/>
<path d="M131.674 258.109C119.712 257.542 103.461 259.752 104.371 269.316C104.933 275.212 113.776 275.519 116.272 281.084C120.025 289.447 106.224 295.626 111.372 303.499C118.386 314.226 137.532 313.86 149.875 306.861C161.673 300.171 163.667 289.406 159.676 278.282C155.615 266.963 146.36 258.805 131.674 258.109Z" fill="#FF0000" stroke="black"/>
<path d="M97.31 344.226C92.5375 345.009 95.2891 338.755 94.5054 338.363C94.5054 338.363 93.1015 337.664 92.2617 337.117C90.6995 336.099 88.6367 334.01 88.6367 334.01C88.9171 333.718 89.1933 333.441 89.457 333.19C98.6181 324.496 105.346 324.216 105.724 324.216C114.138 324.216 118.97 329.575 119.488 329.825C118.962 333.527 118.069 334.948 111.894 338.239C111.894 338.239 113.189 341.923 112.455 343.287C111.936 344.251 111.076 344.52 110.211 343.848C109.825 343.547 109.869 343.164 109.65 342.726C109.093 343.437 106.285 344.97 106.285 340.482C103.129 341.407 102.421 340.996 100.115 340.482C100.522 341.977 100.532 345.706 98.9928 345.531C97.0342 345.308 97.31 344.226 97.31 344.226Z" fill="#00FFD1"/>
<path d="M97.31 344.226V339.921C96.4338 339.532 95.9699 339.096 94.5054 338.363M97.31 344.226C92.5375 345.009 95.2891 338.755 94.5054 338.363M97.31 344.226C97.31 344.226 97.0342 345.308 98.9928 345.531C100.532 345.706 100.522 341.977 100.115 340.482C102.421 340.996 103.129 341.407 106.285 340.482M94.5054 338.363C94.5054 338.363 93.1015 337.664 92.2617 337.117C90.6995 336.099 88.6367 334.01 88.6367 334.01C88.9171 333.718 89.1933 333.441 89.457 333.19C98.6181 324.496 105.346 324.216 105.724 324.216C114.138 324.216 118.97 329.575 119.488 329.825C118.962 333.527 118.069 334.948 111.894 338.239C111.894 338.239 113.189 341.923 112.455 343.287C111.936 344.251 111.076 344.52 110.211 343.848C109.825 343.547 109.869 343.164 109.65 342.726M106.285 340.482C106.285 344.97 109.093 343.437 109.65 342.726M106.285 340.482C107.407 340.389 109.089 339.361 109.089 339.361C109.089 339.361 109.212 341.412 109.65 342.726" stroke="#FF478E"/>
<path d="M191.732 278.311H187.806C187.806 278.311 182.332 277.602 181.075 274.946C180.039 272.759 181.027 271.117 181.636 268.776C182.903 263.895 185.186 261.5 188.928 258.118C190.911 256.325 192.164 255.424 194.537 254.192C199.684 251.519 203.33 251.062 209.121 251.387C212.466 251.575 214.512 251.624 217.535 253.07C222.294 255.346 225.272 258.038 226.509 263.166C227.126 265.722 227.432 267.436 226.509 269.897C224.651 274.854 214.169 275.507 214.169 275.507C214.254 275.855 209.529 281.733 205.194 282.799C198.77 284.378 191.031 278.961 191.732 278.311Z" fill="#BCEA73"/>
<path d="M191.732 278.311H187.806C187.806 278.311 182.332 277.602 181.075 274.946C180.039 272.759 181.027 271.117 181.636 268.776C182.903 263.895 185.186 261.5 188.928 258.118C190.911 256.325 192.164 255.424 194.537 254.192C199.684 251.519 203.33 251.062 209.121 251.387C212.466 251.575 214.512 251.624 217.535 253.07C222.294 255.346 225.272 258.038 226.509 263.166C227.126 265.722 227.432 267.436 226.509 269.897C224.651 274.854 214.169 275.507 214.169 275.507M191.732 278.311C191.031 278.961 198.77 284.378 205.194 282.799C209.529 281.733 214.254 275.855 214.169 275.507M191.732 278.311C200.727 278.192 205.82 277.636 214.169 275.507M216.413 267.093C215.184 268.417 213.633 268.804 211.925 268.215C210.308 267.656 209.585 266.496 209.121 264.849C208.154 261.417 212.162 258.17 215.291 258.118M190.049 260.922C190.594 260.361 194.824 261.646 196.22 263.166C200.546 267.881 192.723 274.402 188.928 271.58" stroke="black"/>
<path d="M223.11 256.841L223.244 256.905C221.136 248.977 219.879 237.834 219.879 237.834C231.658 238.395 245.12 231.574 245.12 231.574L254.095 216.519C254.095 216.519 245.486 217.724 241.194 214.836C236.902 211.948 230.536 215.958 228.293 217.08C226.049 218.202 220.44 218.763 219.318 215.958C216.67 211.906 213.702 210.017 206.417 210.91C208.107 208.698 206.417 201.935 206.417 201.935C206.417 201.935 207.539 206.983 201.929 210.349C203.556 207.205 203.229 205.666 201.929 203.057C201.442 206.466 199.794 208.322 197.442 210.349C198.795 206.422 199.125 202.496 199.125 202.496L195.198 207.264L191.272 212.031C191.272 212.031 187.004 216.902 183.419 218.763C180.959 220.039 180.947 219.75 176.688 221.006C170.125 222.328 168.668 221.535 162.104 220.445C157.133 220.771 155.315 221.882 153.129 224.933C150.151 228.905 148.309 230.506 144.715 231.664C141.121 232.822 137.984 231.664 137.984 231.664L143.593 238.395C148.805 242.386 152.368 244.101 158.738 245.687C163.646 246.909 166.808 248.302 171.639 246.809C174.834 245.821 176.084 243.636 178.931 242.321C181.416 241.129 182.369 241.378 182.858 244.565C183.978 253.768 183.762 257.801 182.858 267.002C184.842 265.209 188.467 258.588 195.198 254.662C200.208 251.739 203.992 251.532 209.782 251.857C213.079 252.042 220.017 255.361 223.11 256.841Z" fill="#BCEA73"/>
<path d="M229.728 219.884C229.728 219.884 234.174 220.758 236.707 221.006C239.977 221.326 245.12 220.445 245.12 220.445C245.12 220.445 241.923 225.208 239.511 227.176C237.1 229.145 231.658 231.103 231.658 231.103M171.078 237.834C167.604 238.13 163.898 242.719 158.738 240.639C157.151 239.999 149.202 236.712 149.202 236.712C149.202 236.712 158.156 231.175 161.356 225.494M173.883 224.933C172.248 226.019 169.956 226.055 167.151 226.055C164.347 226.055 161.356 225.494 161.356 225.494M158.738 224.933L161.356 225.494M143.593 238.395L137.984 231.664C137.984 231.664 141.121 232.822 144.715 231.664C148.309 230.506 150.151 228.905 153.129 224.933C155.315 221.882 157.133 220.771 162.104 220.445C168.668 221.535 170.125 222.328 176.688 221.006C180.947 219.75 180.959 220.039 183.419 218.763C187.004 216.902 191.272 212.031 191.272 212.031L195.198 207.264L199.125 202.496C199.125 202.496 198.795 206.422 197.442 210.349C199.794 208.322 201.442 206.466 201.929 203.057C203.229 205.666 203.556 207.205 201.929 210.349C207.539 206.983 206.417 201.935 206.417 201.935C206.417 201.935 208.107 208.698 206.417 210.91C213.702 210.017 216.67 211.906 219.318 215.958C220.44 218.763 226.049 218.202 228.293 217.08C230.536 215.958 236.902 211.948 241.194 214.836C245.486 217.724 254.095 216.519 254.095 216.519L245.12 231.574C245.12 231.574 231.658 238.395 219.879 237.834C219.879 237.834 221.136 248.977 223.244 256.905C220.221 255.46 213.128 252.045 209.782 251.857C203.992 251.532 200.208 251.739 195.198 254.662C188.467 258.588 184.842 265.209 182.858 267.002C183.762 257.801 183.978 253.768 182.858 244.565C182.369 241.378 181.416 241.129 178.931 242.321C176.084 243.636 174.834 245.821 171.639 246.809C166.808 248.302 163.646 246.909 158.738 245.687C152.368 244.101 148.805 242.386 143.593 238.395Z" stroke="black"/>
<path fill-rule="evenodd" clip-rule="evenodd" d="M192.5 236.113C192.5 236.113 184.746 237.534 182.965 235.552C180.91 233.265 181.672 230.152 183.526 227.699C184.169 226.849 184.935 226.03 185.77 225.417C185.093 232.264 186.921 232.327 192.256 228.821C192.449 229.771 192.5 230.504 192.5 230.504V236.113Z" fill="white"/>
<path d="M185.77 225.417C185.093 232.264 186.921 232.327 192.256 228.821C192.089 227.999 191.816 227.014 191.379 226.201C188.834 228.026 187.875 227.641 186.892 224.749C186.508 224.923 186.133 225.151 185.77 225.417Z" fill="#A6DFFF"/>
<path d="M191.379 226.201C191.085 225.654 190.717 225.185 190.257 224.895C189.142 224.191 187.984 224.253 186.892 224.749C187.875 227.641 188.834 228.026 191.379 226.201Z" fill="#FF7C7C"/>
<path d="M192.256 228.821C192.449 229.771 192.5 230.504 192.5 230.504V236.113C192.5 236.113 184.746 237.534 182.965 235.552C180.91 233.265 181.672 230.152 183.526 227.699C184.169 226.849 184.935 226.03 185.77 225.417M192.256 228.821C186.921 232.327 185.093 232.264 185.77 225.417M192.256 228.821C192.089 227.999 191.816 227.014 191.379 226.201M185.77 225.417C186.133 225.151 186.508 224.923 186.892 224.749M191.379 226.201C191.085 225.654 190.717 225.185 190.257 224.895C189.142 224.191 187.984 224.253 186.892 224.749M191.379 226.201C188.834 228.026 187.875 227.641 186.892 224.749" stroke="black"/>
<path fill-rule="evenodd" clip-rule="evenodd" d="M207.538 234.991C207.538 234.991 215.292 236.412 217.073 234.43C219.128 232.143 218.366 229.03 216.512 226.577C215.87 225.727 215.103 224.908 214.269 224.295C214.945 231.141 213.118 231.205 207.782 227.699C207.589 228.649 207.538 229.382 207.538 229.382V234.991Z" fill="white"/>
<path d="M214.269 224.295C214.945 231.141 213.118 231.205 207.782 227.699C207.949 226.877 208.222 225.892 208.659 225.079C211.204 226.904 212.164 226.518 213.147 223.627C213.53 223.801 213.906 224.028 214.269 224.295Z" fill="#A6DFFF"/>
<path d="M208.659 225.079C208.953 224.532 209.321 224.063 209.781 223.772C210.897 223.069 212.055 223.131 213.147 223.627C212.164 226.518 211.204 226.904 208.659 225.079Z" fill="#FF7C7C"/>
<path d="M207.782 227.699C207.589 228.649 207.538 229.382 207.538 229.382V234.991C207.538 234.991 215.292 236.412 217.073 234.43C219.128 232.143 218.366 229.03 216.512 226.577C215.87 225.727 215.103 224.908 214.269 224.295M207.782 227.699C213.118 231.205 214.945 231.141 214.269 224.295M207.782 227.699C207.949 226.877 208.222 225.892 208.659 225.079M214.269 224.295C213.906 224.028 213.53 223.801 213.147 223.627M208.659 225.079C208.953 224.532 209.321 224.063 209.781 223.772C210.897 223.069 212.055 223.131 213.147 223.627M208.659 225.079C211.204 226.904 212.164 226.518 213.147 223.627" stroke="black"/>
<path d="M186.677 244.488C186.677 244.488 182.751 247.292 176.02 242.805C170.081 239.389 170.758 231.942 174.831 227.13C175.057 226.863 175.294 226.604 175.54 226.354C178.394 223.462 182.579 221.811 187.238 223.173C196.06 225.045 201.44 224.184 211.358 221.49C214.431 220.592 217.298 221.005 219.713 222.22C222.527 224.086 224.599 226.538 224.599 226.538C225.764 228.226 226.541 230.144 226.816 232.058C227.321 235.571 226.14 239.072 222.576 241.122C221.121 242.092 219.798 242.721 218.616 243.112C214.331 244.528 211.919 242.805 211.919 242.805C207.411 238.749 204.33 235.508 202.696 232.841C199.309 227.313 202.139 224.249 211.358 221.49C201.44 224.184 196.06 225.045 187.238 223.173C200.904 227.263 200.53 232.022 186.677 244.488Z" fill="#FF0000"/>
<path d="M187.238 223.173C200.904 227.263 200.53 232.022 186.677 244.488C186.677 244.488 182.751 247.292 176.02 242.805C170.081 239.389 170.758 231.942 174.831 227.13C175.057 226.863 175.294 226.604 175.54 226.354M187.238 223.173C182.579 221.811 178.394 223.462 175.54 226.354M187.238 223.173C196.06 225.045 201.44 224.184 211.358 221.49M211.358 221.49C202.139 224.249 199.309 227.313 202.696 232.841M211.358 221.49C214.431 220.592 217.298 221.005 219.713 222.22C222.527 224.086 224.599 226.538 224.599 226.538C225.764 228.226 226.541 230.144 226.816 232.058C227.321 235.571 226.14 239.072 222.576 241.122C221.121 242.092 219.798 242.721 218.616 243.112C214.331 244.528 211.919 242.805 211.919 242.805C207.411 238.749 204.33 235.508 202.696 232.841M202.696 232.841C200.283 230.022 199.096 230.237 196.886 233.088M175.54 226.354C172.489 225.011 170.364 228.996 172.503 231.026M175.54 226.354C175.552 226.359 175.563 226.365 175.575 226.37M226.093 229.343C228.24 227.306 226.09 223.298 223.021 224.687" stroke="black"/>
</svg>
