<svg viewBox="0 0 282 285" fill="none" xmlns="http://www.w3.org/2000/svg">
<g filter="url(#filter0_d_3705_146)">
<path d="M193.579 142.256C193.579 172.22 169.944 196.512 140.789 196.512C111.635 196.512 88 172.22 88 142.256C88 112.291 111.635 88 140.789 88C169.944 88 193.579 112.291 193.579 142.256Z" fill="#112827"/>
<path d="M193.579 142.256C193.579 172.22 169.944 196.512 140.789 196.512C111.635 196.512 88 172.22 88 142.256C88 112.291 111.635 88 140.789 88C169.944 88 193.579 112.291 193.579 142.256Z" fill="url(#paint0_radial_3705_146)"/>
<path d="M193.579 142.256C193.579 172.22 169.944 196.512 140.789 196.512C111.635 196.512 88 172.22 88 142.256C88 112.291 111.635 88 140.789 88C169.944 88 193.579 112.291 193.579 142.256Z" fill="url(#paint1_radial_3705_146)"/>
<path d="M193.579 142.256C193.579 172.22 169.944 196.512 140.789 196.512C111.635 196.512 88 172.22 88 142.256C88 112.291 111.635 88 140.789 88C169.944 88 193.579 112.291 193.579 142.256Z" fill="url(#paint2_radial_3705_146)"/>
<path d="M193.579 142.256C193.579 172.22 169.944 196.512 140.789 196.512C111.635 196.512 88 172.22 88 142.256C88 112.291 111.635 88 140.789 88C169.944 88 193.579 112.291 193.579 142.256Z" fill="url(#paint3_radial_3705_146)"/>
<path d="M193.579 142.256C193.579 172.22 169.944 196.512 140.789 196.512C111.635 196.512 88 172.22 88 142.256C88 112.291 111.635 88 140.789 88C169.944 88 193.579 112.291 193.579 142.256Z" fill="url(#paint4_radial_3705_146)"/>
<path d="M193.579 142.256C193.579 172.22 169.944 196.512 140.789 196.512C111.635 196.512 88 172.22 88 142.256C88 112.291 111.635 88 140.789 88C169.944 88 193.579 112.291 193.579 142.256Z" fill="url(#paint5_radial_3705_146)"/>
<path d="M193.579 142.256C193.579 172.22 169.944 196.512 140.789 196.512C111.635 196.512 88 172.22 88 142.256C88 112.291 111.635 88 140.789 88C169.944 88 193.579 112.291 193.579 142.256Z" fill="url(#paint6_radial_3705_146)"/>
<path d="M193.579 142.256C193.579 172.22 169.944 196.512 140.789 196.512C111.635 196.512 88 172.22 88 142.256C88 112.291 111.635 88 140.789 88C169.944 88 193.579 112.291 193.579 142.256Z" fill="url(#paint7_radial_3705_146)"/>
<path d="M193.579 142.256C193.579 172.22 169.944 196.512 140.789 196.512C111.635 196.512 88 172.22 88 142.256C88 112.291 111.635 88 140.789 88C169.944 88 193.579 112.291 193.579 142.256Z" fill="url(#paint8_radial_3705_146)"/>
<path d="M193.079 142.256C193.079 171.957 169.655 196.012 140.789 196.012C111.924 196.012 88.5 171.957 88.5 142.256C88.5 112.554 111.924 88.5 140.789 88.5C169.655 88.5 193.079 112.554 193.079 142.256Z" stroke="#08D3FF"/>
</g>
<path d="M98.1705 231.512V205.33H113.972V208.142H101.341V216.989H113.153V219.801H101.341V228.699H114.176V231.512H98.1705ZM125.055 231.972C123.811 231.972 122.682 231.738 121.668 231.269C120.653 230.792 119.848 230.105 119.251 229.211C118.655 228.307 118.357 227.216 118.357 225.938C118.357 224.813 118.578 223.901 119.021 223.202C119.464 222.495 120.057 221.941 120.798 221.54C121.54 221.14 122.358 220.841 123.253 220.645C124.156 220.441 125.064 220.279 125.976 220.159C127.169 220.006 128.136 219.891 128.878 219.814C129.628 219.729 130.173 219.588 130.514 219.392C130.864 219.196 131.038 218.855 131.038 218.37V218.267C131.038 217.006 130.693 216.026 130.003 215.327C129.321 214.628 128.286 214.279 126.896 214.279C125.456 214.279 124.327 214.594 123.509 215.225C122.69 215.855 122.115 216.529 121.783 217.245L118.919 216.222C119.43 215.029 120.112 214.1 120.964 213.435C121.825 212.762 122.763 212.293 123.777 212.029C124.8 211.756 125.805 211.62 126.794 211.62C127.425 211.62 128.149 211.696 128.967 211.85C129.794 211.995 130.591 212.297 131.358 212.757C132.134 213.218 132.777 213.912 133.288 214.841C133.8 215.77 134.055 217.015 134.055 218.574V231.512H131.038V228.853H130.885C130.68 229.279 130.339 229.735 129.862 230.221C129.385 230.706 128.75 231.12 127.957 231.461C127.165 231.801 126.197 231.972 125.055 231.972ZM125.516 229.262C126.709 229.262 127.714 229.027 128.533 228.559C129.359 228.09 129.982 227.485 130.399 226.743C130.825 226.002 131.038 225.222 131.038 224.404V221.642C130.911 221.796 130.629 221.936 130.195 222.064C129.768 222.184 129.274 222.29 128.712 222.384C128.158 222.469 127.616 222.546 127.088 222.614C126.568 222.674 126.146 222.725 125.822 222.767C125.038 222.87 124.305 223.036 123.624 223.266C122.95 223.488 122.405 223.824 121.987 224.276C121.578 224.719 121.374 225.324 121.374 226.091C121.374 227.14 121.761 227.932 122.537 228.469C123.321 228.998 124.314 229.262 125.516 229.262ZM139.562 231.512V211.875H142.477V214.841H142.681C143.039 213.87 143.687 213.081 144.625 212.476C145.562 211.871 146.619 211.569 147.795 211.569C148.017 211.569 148.294 211.573 148.626 211.581C148.958 211.59 149.21 211.603 149.38 211.62V214.688C149.278 214.662 149.044 214.624 148.677 214.573C148.319 214.513 147.94 214.483 147.539 214.483C146.585 214.483 145.733 214.684 144.983 215.084C144.241 215.476 143.653 216.022 143.218 216.721C142.792 217.411 142.579 218.199 142.579 219.086V231.512H139.562ZM162.727 211.875V214.432H152.551V211.875H162.727ZM155.517 207.171H158.534V225.887C158.534 226.739 158.657 227.378 158.904 227.804C159.16 228.222 159.484 228.503 159.876 228.648C160.277 228.784 160.699 228.853 161.142 228.853C161.474 228.853 161.747 228.836 161.96 228.801C162.173 228.759 162.343 228.725 162.471 228.699L163.085 231.409C162.88 231.486 162.595 231.563 162.228 231.64C161.862 231.725 161.397 231.767 160.835 231.767C159.983 231.767 159.147 231.584 158.329 231.218C157.52 230.851 156.846 230.293 156.309 229.543C155.781 228.793 155.517 227.847 155.517 226.705V207.171ZM170.704 219.699V231.512H167.687V205.33H170.704V214.944H170.96C171.42 213.929 172.11 213.124 173.031 212.527C173.96 211.922 175.196 211.62 176.738 211.62C178.076 211.62 179.248 211.888 180.254 212.425C181.26 212.953 182.039 213.767 182.593 214.867C183.156 215.958 183.437 217.347 183.437 219.034V231.512H180.42V219.239C180.42 217.679 180.015 216.473 179.206 215.621C178.404 214.76 177.292 214.33 175.869 214.33C174.88 214.33 173.994 214.539 173.21 214.956C172.434 215.374 171.821 215.983 171.369 216.784C170.926 217.586 170.704 218.557 170.704 219.699Z" fill="white"/>
<defs>
<filter id="filter0_d_3705_146" x="0" y="0" width="281.579" height="284.511" filterUnits="userSpaceOnUse" color-interpolation-filters="sRGB">
<feFlood flood-opacity="0" result="BackgroundImageFix"/>
<feColorMatrix in="SourceAlpha" type="matrix" values="0 0 0 0 0 0 0 0 0 0 0 0 0 0 0 0 0 0 127 0" result="hardAlpha"/>
<feOffset/>
<feGaussianBlur stdDeviation="44"/>
<feComposite in2="hardAlpha" operator="out"/>
<feColorMatrix type="matrix" values="0 0 0 0 0.0308334 0 0 0 0 0.82555 0 0 0 0 1 0 0 0 1 0"/>
<feBlend mode="normal" in2="BackgroundImageFix" result="effect1_dropShadow_3705_146"/>
<feBlend mode="normal" in="SourceGraphic" in2="effect1_dropShadow_3705_146" result="shape"/>
</filter>
<radialGradient id="paint0_radial_3705_146" cx="0" cy="0" r="1" gradientUnits="userSpaceOnUse" gradientTransform="translate(161.172 126.419) rotate(149.548) scale(108.355 105.426)">
<stop offset="0.526042" stop-color="#00D1FF"/>
<stop offset="0.880208" stop-opacity="0"/>
</radialGradient>
<radialGradient id="paint1_radial_3705_146" cx="0" cy="0" r="1" gradientUnits="userSpaceOnUse" gradientTransform="translate(142.549 88) rotate(49.3987) scale(18.251 17.7578)">
<stop stop-color="white"/>
<stop offset="1" stop-color="white" stop-opacity="0"/>
</radialGradient>
<radialGradient id="paint2_radial_3705_146" cx="0" cy="0" r="1" gradientUnits="userSpaceOnUse" gradientTransform="translate(139.176 188.813) rotate(-31.2939) scale(85.1151 82.8147)">
<stop stop-color="#3D56CB"/>
<stop offset="1" stop-color="#3D56CB" stop-opacity="0"/>
</radialGradient>
<radialGradient id="paint3_radial_3705_146" cx="0" cy="0" r="1" gradientUnits="userSpaceOnUse" gradientTransform="translate(106.036 151.787) rotate(69.0265) scale(37.6901 36.6714)">
<stop stop-color="#1BCC73"/>
<stop offset="1" stop-color="#A7D16C" stop-opacity="0"/>
</radialGradient>
<radialGradient id="paint4_radial_3705_146" cx="0" cy="0" r="1" gradientUnits="userSpaceOnUse" gradientTransform="translate(144.382 153.767) rotate(102.758) scale(39.8425 38.7656)">
<stop stop-color="#08D3FF"/>
<stop offset="1" stop-color="#08D3FF" stop-opacity="0"/>
</radialGradient>
<radialGradient id="paint5_radial_3705_146" cx="0" cy="0" r="1" gradientUnits="userSpaceOnUse" gradientTransform="translate(178.768 111.462) rotate(132.703) scale(36.2163 35.2375)">
<stop stop-color="#34C759"/>
<stop offset="1" stop-color="#A7D16C" stop-opacity="0"/>
</radialGradient>
<radialGradient id="paint6_radial_3705_146" cx="0" cy="0" r="1" gradientUnits="userSpaceOnUse" gradientTransform="translate(111.975 108.309) rotate(103.363) scale(33.3087 32.4085)">
<stop stop-color="#1BCC73"/>
<stop offset="1" stop-color="#A7D16C" stop-opacity="0"/>
</radialGradient>
<radialGradient id="paint7_radial_3705_146" cx="0" cy="0" r="1" gradientUnits="userSpaceOnUse" gradientTransform="translate(141.963 221.22) rotate(86.4474) scale(33.1304 58.7043)">
<stop stop-color="white"/>
<stop offset="0.0001" stop-color="white" stop-opacity="0.921875"/>
<stop offset="1" stop-color="white" stop-opacity="0"/>
</radialGradient>
<radialGradient id="paint8_radial_3705_146" cx="0" cy="0" r="1" gradientUnits="userSpaceOnUse" gradientTransform="translate(180.601 140.423) rotate(94.8669) scale(37.1599 36.1556)">
<stop stop-color="#1BCC73"/>
<stop offset="1" stop-color="#1BCC73" stop-opacity="0"/>
</radialGradient>
</defs>
</svg>
