<svg width="282" height="285" viewBox="0 0 282 285" fill="none" xmlns="http://www.w3.org/2000/svg">
<rect width="282" height="285" fill="#F5F5F5"/>
<rect x="-915" y="232" width="1920" height="867" fill="#D9D9D9"/>
<g filter="url(#filter0_d_3705_2)">
<rect x="-916" y="-159" width="1920" height="2116" fill="#112827"/>
<rect x="-914" y="-157" width="1916" height="2112" stroke="black" stroke-width="4"/>
</g>
<g filter="url(#filter1_d_3705_2)">
<path d="M431.735 142.256C431.735 172.22 408.1 196.512 378.946 196.512C349.791 196.512 326.156 172.22 326.156 142.256C326.156 112.291 349.791 88 378.946 88C408.1 88 431.735 112.291 431.735 142.256Z" fill="#112827"/>
<path d="M431.735 142.256C431.735 172.22 408.1 196.512 378.946 196.512C349.791 196.512 326.156 172.22 326.156 142.256C326.156 112.291 349.791 88 378.946 88C408.1 88 431.735 112.291 431.735 142.256Z" fill="url(#paint0_radial_3705_2)"/>
<path d="M431.735 142.256C431.735 172.22 408.1 196.512 378.946 196.512C349.791 196.512 326.156 172.22 326.156 142.256C326.156 112.291 349.791 88 378.946 88C408.1 88 431.735 112.291 431.735 142.256Z" fill="url(#paint1_radial_3705_2)"/>
<path d="M431.735 142.256C431.735 172.22 408.1 196.512 378.946 196.512C349.791 196.512 326.156 172.22 326.156 142.256C326.156 112.291 349.791 88 378.946 88C408.1 88 431.735 112.291 431.735 142.256Z" fill="url(#paint2_radial_3705_2)"/>
<path d="M431.735 142.256C431.735 172.22 408.1 196.512 378.946 196.512C349.791 196.512 326.156 172.22 326.156 142.256C326.156 112.291 349.791 88 378.946 88C408.1 88 431.735 112.291 431.735 142.256Z" fill="url(#paint3_radial_3705_2)"/>
<path d="M431.735 142.256C431.735 172.22 408.1 196.512 378.946 196.512C349.791 196.512 326.156 172.22 326.156 142.256C326.156 112.291 349.791 88 378.946 88C408.1 88 431.735 112.291 431.735 142.256Z" fill="#CBAC6F" fill-opacity="0.2"/>
<path d="M431.235 142.256C431.235 171.957 407.811 196.012 378.946 196.012C350.08 196.012 326.656 171.957 326.656 142.256C326.656 112.554 350.08 88.5 378.946 88.5C407.811 88.5 431.235 112.554 431.235 142.256Z" stroke="#CBAC6F"/>
</g>
<g filter="url(#filter2_d_3705_2)">
<path d="M193.735 142.256C193.735 172.22 170.1 196.512 140.946 196.512C111.791 196.512 88.1562 172.22 88.1562 142.256C88.1562 112.291 111.791 88 140.946 88C170.1 88 193.735 112.291 193.735 142.256Z" fill="url(#paint4_radial_3705_2)" shape-rendering="crispEdges"/>
<path d="M193.735 142.256C193.735 172.22 170.1 196.512 140.946 196.512C111.791 196.512 88.1562 172.22 88.1562 142.256C88.1562 112.291 111.791 88 140.946 88C170.1 88 193.735 112.291 193.735 142.256Z" fill="url(#paint5_radial_3705_2)" shape-rendering="crispEdges"/>
<path d="M193.735 142.256C193.735 172.22 170.1 196.512 140.946 196.512C111.791 196.512 88.1562 172.22 88.1562 142.256C88.1562 112.291 111.791 88 140.946 88C170.1 88 193.735 112.291 193.735 142.256Z" fill="url(#paint6_radial_3705_2)" shape-rendering="crispEdges"/>
<path d="M193.735 142.256C193.735 172.22 170.1 196.512 140.946 196.512C111.791 196.512 88.1562 172.22 88.1562 142.256C88.1562 112.291 111.791 88 140.946 88C170.1 88 193.735 112.291 193.735 142.256Z" fill="url(#paint7_radial_3705_2)" shape-rendering="crispEdges"/>
<path d="M193.235 142.256C193.235 171.957 169.811 196.012 140.946 196.012C112.08 196.012 88.6562 171.957 88.6562 142.256C88.6562 112.554 112.08 88.5 140.946 88.5C169.811 88.5 193.235 112.554 193.235 142.256Z" stroke="#80441E" shape-rendering="crispEdges"/>
</g>
<text fill="white" xml:space="preserve" style="white-space: pre" font-family="Inter" font-size="36" letter-spacing="0em"><tspan x="85.1562" y="231.603">Jupiter</tspan></text>
<g filter="url(#filter3_d_3705_2)">
<path d="M-36.843 142.256C-36.843 172.22 -60.4777 196.512 -89.6325 196.512C-118.787 196.512 -142.422 172.22 -142.422 142.256C-142.422 112.291 -118.787 88 -89.6325 88C-60.4777 88 -36.843 112.291 -36.843 142.256Z" fill="#112827"/>
<path d="M-36.843 142.256C-36.843 172.22 -60.4777 196.512 -89.6325 196.512C-118.787 196.512 -142.422 172.22 -142.422 142.256C-142.422 112.291 -118.787 88 -89.6325 88C-60.4777 88 -36.843 112.291 -36.843 142.256Z" fill="url(#paint8_radial_3705_2)"/>
<path d="M-36.843 142.256C-36.843 172.22 -60.4777 196.512 -89.6325 196.512C-118.787 196.512 -142.422 172.22 -142.422 142.256C-142.422 112.291 -118.787 88 -89.6325 88C-60.4777 88 -36.843 112.291 -36.843 142.256Z" fill="url(#paint9_radial_3705_2)"/>
<path d="M-36.843 142.256C-36.843 172.22 -60.4777 196.512 -89.6325 196.512C-118.787 196.512 -142.422 172.22 -142.422 142.256C-142.422 112.291 -118.787 88 -89.6325 88C-60.4777 88 -36.843 112.291 -36.843 142.256Z" fill="url(#paint10_radial_3705_2)"/>
<path d="M-36.843 142.256C-36.843 172.22 -60.4777 196.512 -89.6325 196.512C-118.787 196.512 -142.422 172.22 -142.422 142.256C-142.422 112.291 -118.787 88 -89.6325 88C-60.4777 88 -36.843 112.291 -36.843 142.256Z" fill="url(#paint11_radial_3705_2)"/>
<path d="M-36.843 142.256C-36.843 172.22 -60.4777 196.512 -89.6325 196.512C-118.787 196.512 -142.422 172.22 -142.422 142.256C-142.422 112.291 -118.787 88 -89.6325 88C-60.4777 88 -36.843 112.291 -36.843 142.256Z" fill="url(#paint12_radial_3705_2)"/>
<path d="M-36.843 142.256C-36.843 172.22 -60.4777 196.512 -89.6325 196.512C-118.787 196.512 -142.422 172.22 -142.422 142.256C-142.422 112.291 -118.787 88 -89.6325 88C-60.4777 88 -36.843 112.291 -36.843 142.256Z" fill="url(#paint13_radial_3705_2)"/>
<path d="M-36.843 142.256C-36.843 172.22 -60.4777 196.512 -89.6325 196.512C-118.787 196.512 -142.422 172.22 -142.422 142.256C-142.422 112.291 -118.787 88 -89.6325 88C-60.4777 88 -36.843 112.291 -36.843 142.256Z" fill="url(#paint14_radial_3705_2)"/>
<path d="M-36.843 142.256C-36.843 172.22 -60.4777 196.512 -89.6325 196.512C-118.787 196.512 -142.422 172.22 -142.422 142.256C-142.422 112.291 -118.787 88 -89.6325 88C-60.4777 88 -36.843 112.291 -36.843 142.256Z" fill="url(#paint15_radial_3705_2)"/>
<path d="M-36.843 142.256C-36.843 172.22 -60.4777 196.512 -89.6325 196.512C-118.787 196.512 -142.422 172.22 -142.422 142.256C-142.422 112.291 -118.787 88 -89.6325 88C-60.4777 88 -36.843 112.291 -36.843 142.256Z" fill="url(#paint16_radial_3705_2)"/>
<path d="M-37.343 142.256C-37.343 171.957 -60.7666 196.012 -89.6325 196.012C-118.498 196.012 -141.922 171.957 -141.922 142.256C-141.922 112.554 -118.498 88.5 -89.6325 88.5C-60.7666 88.5 -37.343 112.554 -37.343 142.256Z" stroke="#670707"/>
</g>
<defs>
<filter id="filter0_d_3705_2" x="-931" y="-174" width="1950" height="2146" filterUnits="userSpaceOnUse" color-interpolation-filters="sRGB">
<feFlood flood-opacity="0" result="BackgroundImageFix"/>
<feColorMatrix in="SourceAlpha" type="matrix" values="0 0 0 0 0 0 0 0 0 0 0 0 0 0 0 0 0 0 127 0" result="hardAlpha"/>
<feOffset/>
<feGaussianBlur stdDeviation="7.5"/>
<feComposite in2="hardAlpha" operator="out"/>
<feColorMatrix type="matrix" values="0 0 0 0 0.0308334 0 0 0 0 0.82555 0 0 0 0 1 0 0 0 1 0"/>
<feBlend mode="normal" in2="BackgroundImageFix" result="effect1_dropShadow_3705_2"/>
<feBlend mode="normal" in="SourceGraphic" in2="effect1_dropShadow_3705_2" result="shape"/>
</filter>
<filter id="filter1_d_3705_2" x="238.156" y="0" width="281.579" height="284.511" filterUnits="userSpaceOnUse" color-interpolation-filters="sRGB">
<feFlood flood-opacity="0" result="BackgroundImageFix"/>
<feColorMatrix in="SourceAlpha" type="matrix" values="0 0 0 0 0 0 0 0 0 0 0 0 0 0 0 0 0 0 127 0" result="hardAlpha"/>
<feOffset/>
<feGaussianBlur stdDeviation="44"/>
<feComposite in2="hardAlpha" operator="out"/>
<feColorMatrix type="matrix" values="0 0 0 0 0.796078 0 0 0 0 0.67451 0 0 0 0 0.435294 0 0 0 1 0"/>
<feBlend mode="normal" in2="BackgroundImageFix" result="effect1_dropShadow_3705_2"/>
<feBlend mode="normal" in="SourceGraphic" in2="effect1_dropShadow_3705_2" result="shape"/>
</filter>
<filter id="filter2_d_3705_2" x="0.15625" y="0" width="281.579" height="284.511" filterUnits="userSpaceOnUse" color-interpolation-filters="sRGB">
<feFlood flood-opacity="0" result="BackgroundImageFix"/>
<feColorMatrix in="SourceAlpha" type="matrix" values="0 0 0 0 0 0 0 0 0 0 0 0 0 0 0 0 0 0 127 0" result="hardAlpha"/>
<feOffset/>
<feGaussianBlur stdDeviation="44"/>
<feComposite in2="hardAlpha" operator="out"/>
<feColorMatrix type="matrix" values="0 0 0 0 0.933333 0 0 0 0 0.458824 0 0 0 0 0.109804 0 0 0 1 0"/>
<feBlend mode="normal" in2="BackgroundImageFix" result="effect1_dropShadow_3705_2"/>
<feBlend mode="normal" in="SourceGraphic" in2="effect1_dropShadow_3705_2" result="shape"/>
</filter>
<filter id="filter3_d_3705_2" x="-230.422" y="0" width="281.579" height="284.511" filterUnits="userSpaceOnUse" color-interpolation-filters="sRGB">
<feFlood flood-opacity="0" result="BackgroundImageFix"/>
<feColorMatrix in="SourceAlpha" type="matrix" values="0 0 0 0 0 0 0 0 0 0 0 0 0 0 0 0 0 0 127 0" result="hardAlpha"/>
<feOffset/>
<feGaussianBlur stdDeviation="44"/>
<feComposite in2="hardAlpha" operator="out"/>
<feColorMatrix type="matrix" values="0 0 0 0 0.882353 0 0 0 0 0.117647 0 0 0 0 0.0980392 0 0 0 1 0"/>
<feBlend mode="normal" in2="BackgroundImageFix" result="effect1_dropShadow_3705_2"/>
<feBlend mode="normal" in="SourceGraphic" in2="effect1_dropShadow_3705_2" result="shape"/>
</filter>
<radialGradient id="paint0_radial_3705_2" cx="0" cy="0" r="1" gradientUnits="userSpaceOnUse" gradientTransform="translate(378.946 142.256) rotate(89.9659) scale(91.2442 88.7782)">
<stop stop-color="#CBAC6F"/>
<stop offset="1" stop-color="#CBAC6F" stop-opacity="0"/>
</radialGradient>
<radialGradient id="paint1_radial_3705_2" cx="0" cy="0" r="1" gradientUnits="userSpaceOnUse" gradientTransform="translate(326 105.5) rotate(41.9191) scale(124.985 121.607)">
<stop stop-color="#CBAC6F"/>
<stop offset="1" stop-color="#CBAC6F" stop-opacity="0"/>
</radialGradient>
<radialGradient id="paint2_radial_3705_2" cx="0" cy="0" r="1" gradientUnits="userSpaceOnUse" gradientTransform="translate(400.5 111) rotate(143.13) scale(77.5 142.562)">
<stop stop-color="#CDC4B0"/>
<stop offset="1" stop-color="#CBAC6F" stop-opacity="0"/>
</radialGradient>
<radialGradient id="paint3_radial_3705_2" cx="0" cy="0" r="1" gradientUnits="userSpaceOnUse" gradientTransform="translate(306.5 180.5) rotate(-25.4454) scale(68.6604 118.579)">
<stop stop-color="white"/>
<stop offset="1" stop-color="white" stop-opacity="0"/>
</radialGradient>
<radialGradient id="paint4_radial_3705_2" cx="0" cy="0" r="1" gradientUnits="userSpaceOnUse" gradientTransform="translate(140.946 142.256) rotate(90) scale(54.2558 52.7894)">
<stop stop-color="#FFAE00"/>
<stop offset="1" stop-color="#FFAE00" stop-opacity="0"/>
</radialGradient>
<radialGradient id="paint5_radial_3705_2" cx="0" cy="0" r="1" gradientUnits="userSpaceOnUse" gradientTransform="translate(161 88) rotate(120.754) scale(70.4006 68.4979)">
<stop stop-color="#FFAE00"/>
<stop offset="1" stop-color="#FFAE00" stop-opacity="0"/>
</radialGradient>
<radialGradient id="paint6_radial_3705_2" cx="0" cy="0" r="1" gradientUnits="userSpaceOnUse" gradientTransform="translate(153 125.5) rotate(100.685) scale(53.9351 65.1675)">
<stop stop-color="#F44336"/>
<stop offset="1" stop-color="#F44336" stop-opacity="0"/>
</radialGradient>
<radialGradient id="paint7_radial_3705_2" cx="0" cy="0" r="1" gradientUnits="userSpaceOnUse" gradientTransform="translate(140.946 142.256) rotate(90) scale(54.2558 52.7894)">
<stop stop-color="#FFAE00"/>
<stop offset="1" stop-color="#FFAE00" stop-opacity="0"/>
</radialGradient>
<radialGradient id="paint8_radial_3705_2" cx="0" cy="0" r="1" gradientUnits="userSpaceOnUse" gradientTransform="translate(-48 125.5) rotate(128.752) scale(48.7263 47.4094)">
<stop stop-color="#F0251E"/>
<stop offset="1" stop-color="#F0251E" stop-opacity="0"/>
</radialGradient>
<radialGradient id="paint9_radial_3705_2" cx="0" cy="0" r="1" gradientUnits="userSpaceOnUse" gradientTransform="translate(-142 147) rotate(31.8908) scale(53 48.3897)">
<stop stop-color="#FF0000"/>
<stop offset="1" stop-color="#FF0000" stop-opacity="0"/>
</radialGradient>
<radialGradient id="paint10_radial_3705_2" cx="0" cy="0" r="1" gradientUnits="userSpaceOnUse" gradientTransform="translate(-72.5 188.5) rotate(147.189) scale(45.2134 47.6174)">
<stop stop-color="#FF0000"/>
<stop offset="1" stop-color="#FF0000" stop-opacity="0"/>
</radialGradient>
<radialGradient id="paint11_radial_3705_2" cx="0" cy="0" r="1" gradientUnits="userSpaceOnUse" gradientTransform="translate(-92.5 129.5) rotate(89.2559) scale(38.5032 50.4671)">
<stop stop-color="#FF0000"/>
<stop offset="1" stop-color="#FF0000" stop-opacity="0"/>
</radialGradient>
<radialGradient id="paint12_radial_3705_2" cx="0" cy="0" r="1" gradientUnits="userSpaceOnUse" gradientTransform="translate(-99.5 123) rotate(160.787) scale(34.9464 34.0019)">
<stop/>
<stop offset="1" stop-opacity="0"/>
</radialGradient>
<radialGradient id="paint13_radial_3705_2" cx="0" cy="0" r="1" gradientUnits="userSpaceOnUse" gradientTransform="translate(-108 148.5) rotate(96.953) scale(41.3038 54.5251)">
<stop/>
<stop offset="1" stop-opacity="0"/>
</radialGradient>
<radialGradient id="paint14_radial_3705_2" cx="0" cy="0" r="1" gradientUnits="userSpaceOnUse" gradientTransform="translate(-89.6325 142.256) rotate(90) scale(54.2558 52.7894)">
<stop stop-color="#600F0F"/>
<stop offset="1" stop-opacity="0"/>
</radialGradient>
<radialGradient id="paint15_radial_3705_2" cx="0" cy="0" r="1" gradientUnits="userSpaceOnUse" gradientTransform="translate(-90 130.5) rotate(68.459) scale(40.8534 74.1437)">
<stop stop-color="#600000"/>
<stop offset="1" stop-opacity="0"/>
</radialGradient>
<radialGradient id="paint16_radial_3705_2" cx="0" cy="0" r="1" gradientUnits="userSpaceOnUse" gradientTransform="translate(-125 47) rotate(85.541) scale(109.331 106.376)">
<stop stop-color="#FF0000"/>
<stop offset="1" stop-color="#FF0000" stop-opacity="0"/>
</radialGradient>
</defs>
</svg>
