<svg viewBox="0 0 283 285" fill="none" xmlns="http://www.w3.org/2000/svg">
<g filter="url(#filter0_d_3705_143)">
<path d="M194.157 142.256C194.157 172.22 170.522 196.512 141.368 196.512C112.213 196.512 88.5781 172.22 88.5781 142.256C88.5781 112.291 112.213 88 141.368 88C170.522 88 194.157 112.291 194.157 142.256Z" fill="#112827"/>
<path d="M194.157 142.256C194.157 172.22 170.522 196.512 141.368 196.512C112.213 196.512 88.5781 172.22 88.5781 142.256C88.5781 112.291 112.213 88 141.368 88C170.522 88 194.157 112.291 194.157 142.256Z" fill="url(#paint0_radial_3705_143)"/>
<path d="M194.157 142.256C194.157 172.22 170.522 196.512 141.368 196.512C112.213 196.512 88.5781 172.22 88.5781 142.256C88.5781 112.291 112.213 88 141.368 88C170.522 88 194.157 112.291 194.157 142.256Z" fill="url(#paint1_radial_3705_143)"/>
<path d="M194.157 142.256C194.157 172.22 170.522 196.512 141.368 196.512C112.213 196.512 88.5781 172.22 88.5781 142.256C88.5781 112.291 112.213 88 141.368 88C170.522 88 194.157 112.291 194.157 142.256Z" fill="url(#paint2_radial_3705_143)"/>
<path d="M194.157 142.256C194.157 172.22 170.522 196.512 141.368 196.512C112.213 196.512 88.5781 172.22 88.5781 142.256C88.5781 112.291 112.213 88 141.368 88C170.522 88 194.157 112.291 194.157 142.256Z" fill="url(#paint3_radial_3705_143)"/>
<path d="M194.157 142.256C194.157 172.22 170.522 196.512 141.368 196.512C112.213 196.512 88.5781 172.22 88.5781 142.256C88.5781 112.291 112.213 88 141.368 88C170.522 88 194.157 112.291 194.157 142.256Z" fill="url(#paint4_radial_3705_143)"/>
<path d="M194.157 142.256C194.157 172.22 170.522 196.512 141.368 196.512C112.213 196.512 88.5781 172.22 88.5781 142.256C88.5781 112.291 112.213 88 141.368 88C170.522 88 194.157 112.291 194.157 142.256Z" fill="url(#paint5_radial_3705_143)"/>
<path d="M194.157 142.256C194.157 172.22 170.522 196.512 141.368 196.512C112.213 196.512 88.5781 172.22 88.5781 142.256C88.5781 112.291 112.213 88 141.368 88C170.522 88 194.157 112.291 194.157 142.256Z" fill="url(#paint6_radial_3705_143)"/>
<path d="M194.157 142.256C194.157 172.22 170.522 196.512 141.368 196.512C112.213 196.512 88.5781 172.22 88.5781 142.256C88.5781 112.291 112.213 88 141.368 88C170.522 88 194.157 112.291 194.157 142.256Z" fill="url(#paint7_radial_3705_143)"/>
<path d="M194.157 142.256C194.157 172.22 170.522 196.512 141.368 196.512C112.213 196.512 88.5781 172.22 88.5781 142.256C88.5781 112.291 112.213 88 141.368 88C170.522 88 194.157 112.291 194.157 142.256Z" fill="url(#paint8_radial_3705_143)"/>
<path d="M193.657 142.256C193.657 171.957 170.233 196.012 141.368 196.012C112.502 196.012 89.0781 171.957 89.0781 142.256C89.0781 112.554 112.502 88.5 141.368 88.5C170.233 88.5 193.657 112.554 193.657 142.256Z" stroke="#670707"/>
</g>
<path d="M101.749 205.818H105.533L114.43 227.551H114.737L123.635 205.818H127.419V232H124.453V212.108H124.197L116.016 232H113.152L104.97 212.108H104.714V232H101.749V205.818ZM139.145 232.46C137.901 232.46 136.772 232.226 135.757 231.757C134.743 231.28 133.938 230.594 133.341 229.699C132.745 228.795 132.446 227.705 132.446 226.426C132.446 225.301 132.668 224.389 133.111 223.69C133.554 222.983 134.147 222.429 134.888 222.028C135.63 221.628 136.448 221.33 137.343 221.134C138.246 220.929 139.154 220.767 140.066 220.648C141.259 220.494 142.226 220.379 142.968 220.303C143.718 220.217 144.263 220.077 144.604 219.881C144.953 219.685 145.128 219.344 145.128 218.858V218.756C145.128 217.494 144.783 216.514 144.093 215.815C143.411 215.116 142.375 214.767 140.986 214.767C139.546 214.767 138.417 215.082 137.598 215.713C136.78 216.344 136.205 217.017 135.873 217.733L133.009 216.71C133.52 215.517 134.202 214.588 135.054 213.923C135.915 213.25 136.853 212.781 137.867 212.517C138.89 212.244 139.895 212.108 140.884 212.108C141.515 212.108 142.239 212.185 143.057 212.338C143.884 212.483 144.681 212.786 145.448 213.246C146.223 213.706 146.867 214.401 147.378 215.33C147.89 216.259 148.145 217.503 148.145 219.062V232H145.128V229.341H144.975C144.77 229.767 144.429 230.223 143.952 230.709C143.475 231.195 142.84 231.608 142.047 231.949C141.255 232.29 140.287 232.46 139.145 232.46ZM139.605 229.75C140.799 229.75 141.804 229.516 142.623 229.047C143.449 228.578 144.071 227.973 144.489 227.232C144.915 226.49 145.128 225.71 145.128 224.892V222.131C145 222.284 144.719 222.425 144.284 222.553C143.858 222.672 143.364 222.778 142.801 222.872C142.248 222.957 141.706 223.034 141.178 223.102C140.658 223.162 140.236 223.213 139.912 223.256C139.128 223.358 138.395 223.524 137.713 223.754C137.04 223.976 136.495 224.312 136.077 224.764C135.668 225.207 135.463 225.812 135.463 226.58C135.463 227.628 135.851 228.42 136.627 228.957C137.411 229.486 138.404 229.75 139.605 229.75ZM153.652 232V212.364H156.567V215.33H156.771C157.129 214.358 157.777 213.57 158.714 212.964C159.652 212.359 160.709 212.057 161.885 212.057C162.107 212.057 162.384 212.061 162.716 212.07C163.048 212.078 163.3 212.091 163.47 212.108V215.176C163.368 215.151 163.134 215.112 162.767 215.061C162.409 215.001 162.03 214.972 161.629 214.972C160.675 214.972 159.822 215.172 159.072 215.572C158.331 215.964 157.743 216.51 157.308 217.209C156.882 217.899 156.669 218.687 156.669 219.574V232H153.652ZM180.956 216.761L178.245 217.528C178.075 217.077 177.824 216.638 177.491 216.212C177.167 215.777 176.724 215.419 176.162 215.138C175.599 214.857 174.879 214.716 174.001 214.716C172.799 214.716 171.798 214.993 170.997 215.547C170.204 216.092 169.808 216.787 169.808 217.631C169.808 218.381 170.081 218.973 170.626 219.408C171.172 219.842 172.024 220.205 173.183 220.494L176.098 221.21C177.853 221.636 179.162 222.288 180.022 223.166C180.883 224.036 181.314 225.156 181.314 226.528C181.314 227.653 180.99 228.659 180.342 229.545C179.703 230.432 178.808 231.131 177.657 231.642C176.507 232.153 175.169 232.409 173.643 232.409C171.64 232.409 169.983 231.974 168.67 231.105C167.358 230.236 166.527 228.966 166.177 227.295L169.041 226.58C169.314 227.636 169.829 228.429 170.588 228.957C171.355 229.486 172.356 229.75 173.592 229.75C174.998 229.75 176.115 229.452 176.941 228.855C177.777 228.25 178.194 227.526 178.194 226.682C178.194 226 177.956 225.429 177.478 224.969C177.001 224.5 176.268 224.151 175.279 223.92L172.007 223.153C170.208 222.727 168.887 222.067 168.044 221.172C167.208 220.268 166.791 219.139 166.791 217.784C166.791 216.676 167.102 215.696 167.724 214.844C168.355 213.991 169.211 213.322 170.294 212.837C171.385 212.351 172.62 212.108 174.001 212.108C175.944 212.108 177.47 212.534 178.578 213.386C179.694 214.239 180.487 215.364 180.956 216.761Z" fill="white"/>
<defs>
<filter id="filter0_d_3705_143" x="0.578125" y="0" width="281.579" height="284.511" filterUnits="userSpaceOnUse" color-interpolation-filters="sRGB">
<feFlood flood-opacity="0" result="BackgroundImageFix"/>
<feColorMatrix in="SourceAlpha" type="matrix" values="0 0 0 0 0 0 0 0 0 0 0 0 0 0 0 0 0 0 127 0" result="hardAlpha"/>
<feOffset/>
<feGaussianBlur stdDeviation="44"/>
<feComposite in2="hardAlpha" operator="out"/>
<feColorMatrix type="matrix" values="0 0 0 0 0.882353 0 0 0 0 0.117647 0 0 0 0 0.0980392 0 0 0 1 0"/>
<feBlend mode="normal" in2="BackgroundImageFix" result="effect1_dropShadow_3705_143"/>
<feBlend mode="normal" in="SourceGraphic" in2="effect1_dropShadow_3705_143" result="shape"/>
</filter>
<radialGradient id="paint0_radial_3705_143" cx="0" cy="0" r="1" gradientUnits="userSpaceOnUse" gradientTransform="translate(183 125.5) rotate(128.752) scale(48.7263 47.4094)">
<stop stop-color="#F0251E"/>
<stop offset="1" stop-color="#F0251E" stop-opacity="0"/>
</radialGradient>
<radialGradient id="paint1_radial_3705_143" cx="0" cy="0" r="1" gradientUnits="userSpaceOnUse" gradientTransform="translate(89 147) rotate(31.8908) scale(53 48.3897)">
<stop stop-color="#FF0000"/>
<stop offset="1" stop-color="#FF0000" stop-opacity="0"/>
</radialGradient>
<radialGradient id="paint2_radial_3705_143" cx="0" cy="0" r="1" gradientUnits="userSpaceOnUse" gradientTransform="translate(158.5 188.5) rotate(147.189) scale(45.2134 47.6174)">
<stop stop-color="#FF0000"/>
<stop offset="1" stop-color="#FF0000" stop-opacity="0"/>
</radialGradient>
<radialGradient id="paint3_radial_3705_143" cx="0" cy="0" r="1" gradientUnits="userSpaceOnUse" gradientTransform="translate(138.5 129.5) rotate(89.2559) scale(38.5032 50.4671)">
<stop stop-color="#FF0000"/>
<stop offset="1" stop-color="#FF0000" stop-opacity="0"/>
</radialGradient>
<radialGradient id="paint4_radial_3705_143" cx="0" cy="0" r="1" gradientUnits="userSpaceOnUse" gradientTransform="translate(131.5 123) rotate(160.787) scale(34.9464 34.0019)">
<stop/>
<stop offset="1" stop-opacity="0"/>
</radialGradient>
<radialGradient id="paint5_radial_3705_143" cx="0" cy="0" r="1" gradientUnits="userSpaceOnUse" gradientTransform="translate(123 148.5) rotate(96.953) scale(41.3038 54.5251)">
<stop/>
<stop offset="1" stop-opacity="0"/>
</radialGradient>
<radialGradient id="paint6_radial_3705_143" cx="0" cy="0" r="1" gradientUnits="userSpaceOnUse" gradientTransform="translate(141.368 142.256) rotate(90) scale(54.2558 52.7894)">
<stop stop-color="#600F0F"/>
<stop offset="1" stop-opacity="0"/>
</radialGradient>
<radialGradient id="paint7_radial_3705_143" cx="0" cy="0" r="1" gradientUnits="userSpaceOnUse" gradientTransform="translate(141 130.5) rotate(68.459) scale(40.8534 74.1437)">
<stop stop-color="#600000"/>
<stop offset="1" stop-opacity="0"/>
</radialGradient>
<radialGradient id="paint8_radial_3705_143" cx="0" cy="0" r="1" gradientUnits="userSpaceOnUse" gradientTransform="translate(106 47) rotate(85.541) scale(109.331 106.376)">
<stop stop-color="#FF0000"/>
<stop offset="1" stop-color="#FF0000" stop-opacity="0"/>
</radialGradient>
</defs>
</svg>
