<svg viewBox="0 0 282 285" fill="none" xmlns="http://www.w3.org/2000/svg">
<g filter="url(#filter0_d_3705_152)">
<path d="M193.579 142.256C193.579 172.22 169.944 196.512 140.789 196.512C111.635 196.512 88 172.22 88 142.256C88 112.291 111.635 88 140.789 88C169.944 88 193.579 112.291 193.579 142.256Z" fill="#112827"/>
<path d="M193.579 142.256C193.579 172.22 169.944 196.512 140.789 196.512C111.635 196.512 88 172.22 88 142.256C88 112.291 111.635 88 140.789 88C169.944 88 193.579 112.291 193.579 142.256Z" fill="url(#paint0_radial_3705_152)" fill-opacity="0.3"/>
<path d="M193.579 142.256C193.579 172.22 169.944 196.512 140.789 196.512C111.635 196.512 88 172.22 88 142.256C88 112.291 111.635 88 140.789 88C169.944 88 193.579 112.291 193.579 142.256Z" fill="url(#paint1_radial_3705_152)" fill-opacity="0.81"/>
<path d="M193.579 142.256C193.579 172.22 169.944 196.512 140.789 196.512C111.635 196.512 88 172.22 88 142.256C88 112.291 111.635 88 140.789 88C169.944 88 193.579 112.291 193.579 142.256Z" fill="url(#paint2_radial_3705_152)" fill-opacity="0.61"/>
<path d="M193.579 142.256C193.579 172.22 169.944 196.512 140.789 196.512C111.635 196.512 88 172.22 88 142.256C88 112.291 111.635 88 140.789 88C169.944 88 193.579 112.291 193.579 142.256Z" fill="url(#paint3_radial_3705_152)" fill-opacity="0.44"/>
<path d="M193.579 142.256C193.579 172.22 169.944 196.512 140.789 196.512C111.635 196.512 88 172.22 88 142.256C88 112.291 111.635 88 140.789 88C169.944 88 193.579 112.291 193.579 142.256Z" fill="url(#paint4_radial_3705_152)" fill-opacity="0.58"/>
<path d="M193.079 142.256C193.079 171.957 169.655 196.012 140.789 196.012C111.924 196.012 88.5 171.957 88.5 142.256C88.5 112.554 111.924 88.5 140.789 88.5C169.655 88.5 193.079 112.554 193.079 142.256Z" stroke="#454C4D"/>
</g>
<path d="M75.1705 205.33H78.9545L87.8523 227.063H88.1591L97.0568 205.33H100.841V231.512H97.875V211.62H97.6193L89.4375 231.512H86.5739L78.392 211.62H78.1364V231.512H75.1705V205.33ZM115.022 231.921C113.13 231.921 111.498 231.503 110.125 230.668C108.762 229.824 107.709 228.648 106.968 227.14C106.235 225.623 105.868 223.858 105.868 221.847C105.868 219.836 106.235 218.063 106.968 216.529C107.709 214.986 108.74 213.784 110.061 212.924C111.391 212.054 112.942 211.62 114.715 211.62C115.738 211.62 116.748 211.79 117.745 212.131C118.742 212.472 119.65 213.026 120.468 213.793C121.286 214.551 121.938 215.557 122.424 216.81C122.909 218.063 123.152 219.605 123.152 221.438V222.716H108.016V220.108H120.084C120.084 219 119.863 218.012 119.419 217.142C118.985 216.273 118.363 215.587 117.553 215.084C116.752 214.581 115.806 214.33 114.715 214.33C113.513 214.33 112.473 214.628 111.596 215.225C110.726 215.813 110.057 216.58 109.588 217.526C109.12 218.472 108.885 219.486 108.885 220.569V222.307C108.885 223.79 109.141 225.047 109.652 226.078C110.172 227.101 110.892 227.881 111.813 228.418C112.733 228.946 113.803 229.211 115.022 229.211C115.814 229.211 116.53 229.1 117.169 228.878C117.817 228.648 118.375 228.307 118.844 227.855C119.313 227.395 119.675 226.824 119.931 226.142L122.846 226.961C122.539 227.949 122.023 228.819 121.299 229.569C120.574 230.31 119.679 230.89 118.614 231.307C117.549 231.716 116.351 231.921 115.022 231.921ZM127.742 231.512V211.875H130.657V214.841H130.861C131.219 213.87 131.867 213.081 132.804 212.476C133.742 211.871 134.799 211.569 135.975 211.569C136.196 211.569 136.473 211.573 136.806 211.581C137.138 211.59 137.39 211.603 137.56 211.62V214.688C137.458 214.662 137.223 214.624 136.857 214.573C136.499 214.513 136.12 214.483 135.719 214.483C134.765 214.483 133.912 214.684 133.162 215.084C132.421 215.476 131.833 216.022 131.398 216.721C130.972 217.411 130.759 218.199 130.759 219.086V231.512H127.742ZM148.516 231.921C146.675 231.921 145.09 231.486 143.76 230.617C142.431 229.748 141.408 228.55 140.692 227.025C139.976 225.499 139.618 223.756 139.618 221.796C139.618 219.801 139.985 218.042 140.718 216.516C141.459 214.982 142.49 213.784 143.811 212.924C145.141 212.054 146.692 211.62 148.465 211.62C149.846 211.62 151.09 211.875 152.198 212.387C153.306 212.898 154.213 213.614 154.921 214.534C155.628 215.455 156.067 216.529 156.238 217.756H153.221C152.99 216.861 152.479 216.069 151.686 215.378C150.902 214.679 149.846 214.33 148.516 214.33C147.34 214.33 146.309 214.637 145.422 215.25C144.544 215.855 143.858 216.712 143.364 217.82C142.878 218.919 142.635 220.211 142.635 221.694C142.635 223.211 142.874 224.532 143.351 225.657C143.837 226.782 144.519 227.655 145.397 228.277C146.283 228.9 147.323 229.211 148.516 229.211C149.3 229.211 150.012 229.074 150.651 228.801C151.29 228.529 151.831 228.137 152.275 227.625C152.718 227.114 153.033 226.5 153.221 225.784H156.238C156.067 226.944 155.645 227.988 154.972 228.917C154.307 229.837 153.425 230.57 152.326 231.115C151.235 231.652 149.965 231.921 148.516 231.921ZM173.023 223.483V211.875H176.04V231.512H173.023V228.188H172.819C172.358 229.185 171.642 230.033 170.671 230.732C169.699 231.422 168.472 231.767 166.989 231.767C165.762 231.767 164.671 231.499 163.716 230.962C162.762 230.417 162.012 229.598 161.466 228.507C160.921 227.408 160.648 226.023 160.648 224.353V211.875H163.665V224.148C163.665 225.58 164.066 226.722 164.867 227.574C165.676 228.426 166.708 228.853 167.961 228.853C168.711 228.853 169.473 228.661 170.249 228.277C171.033 227.894 171.689 227.306 172.218 226.513C172.755 225.721 173.023 224.711 173.023 223.483ZM181.566 231.512V211.875H184.481V214.841H184.685C185.043 213.87 185.691 213.081 186.629 212.476C187.566 211.871 188.623 211.569 189.799 211.569C190.021 211.569 190.298 211.573 190.63 211.581C190.962 211.59 191.214 211.603 191.384 211.62V214.688C191.282 214.662 191.048 214.624 190.681 214.573C190.323 214.513 189.944 214.483 189.543 214.483C188.589 214.483 187.737 214.684 186.987 215.084C186.245 215.476 185.657 216.022 185.222 216.721C184.796 217.411 184.583 218.199 184.583 219.086V231.512H181.566ZM197.501 238.875C196.99 238.875 196.534 238.833 196.134 238.748C195.733 238.671 195.456 238.594 195.303 238.517L196.07 235.858C196.803 236.046 197.45 236.114 198.013 236.063C198.575 236.012 199.074 235.76 199.509 235.309C199.952 234.865 200.357 234.145 200.723 233.148L201.286 231.614L194.024 211.875H197.297L202.717 227.523H202.922L208.342 211.875H211.615L203.28 234.375C202.905 235.39 202.44 236.229 201.886 236.894C201.332 237.567 200.689 238.066 199.956 238.39C199.232 238.713 198.413 238.875 197.501 238.875Z" fill="white"/>
<defs>
<filter id="filter0_d_3705_152" x="0" y="0" width="281.579" height="284.511" filterUnits="userSpaceOnUse" color-interpolation-filters="sRGB">
<feFlood flood-opacity="0" result="BackgroundImageFix"/>
<feColorMatrix in="SourceAlpha" type="matrix" values="0 0 0 0 0 0 0 0 0 0 0 0 0 0 0 0 0 0 127 0" result="hardAlpha"/>
<feOffset/>
<feGaussianBlur stdDeviation="44"/>
<feComposite in2="hardAlpha" operator="out"/>
<feColorMatrix type="matrix" values="0 0 0 0 0.454902 0 0 0 0 0.466667 0 0 0 0 0.470588 0 0 0 1 0"/>
<feBlend mode="normal" in2="BackgroundImageFix" result="effect1_dropShadow_3705_152"/>
<feBlend mode="normal" in="SourceGraphic" in2="effect1_dropShadow_3705_152" result="shape"/>
</filter>
<radialGradient id="paint0_radial_3705_152" cx="0" cy="0" r="1" gradientUnits="userSpaceOnUse" gradientTransform="translate(141 88) rotate(133.147) scale(251.508 221.384)">
<stop stop-color="#515457"/>
<stop offset="1" stop-color="#515457" stop-opacity="0"/>
</radialGradient>
<radialGradient id="paint1_radial_3705_152" cx="0" cy="0" r="1" gradientUnits="userSpaceOnUse" gradientTransform="translate(180.601 140.423) rotate(135.011) scale(93.4644 43.5848)">
<stop stop-color="#565759"/>
<stop offset="1" stop-color="#171A18" stop-opacity="0"/>
</radialGradient>
<radialGradient id="paint2_radial_3705_152" cx="0" cy="0" r="1" gradientUnits="userSpaceOnUse" gradientTransform="translate(120.5 137.5) rotate(60.1541) scale(70.3278 47.9635)">
<stop stop-color="#F7F7F7"/>
<stop offset="1" stop-opacity="0"/>
</radialGradient>
<radialGradient id="paint3_radial_3705_152" cx="0" cy="0" r="1" gradientUnits="userSpaceOnUse" gradientTransform="translate(150 178) rotate(-150.068) scale(38.0789 61.3021)">
<stop stop-color="#F4F4F4"/>
<stop offset="1" stop-color="#F4F4F4" stop-opacity="0"/>
</radialGradient>
<radialGradient id="paint4_radial_3705_152" cx="0" cy="0" r="1" gradientUnits="userSpaceOnUse" gradientTransform="translate(140.789 142.256) rotate(-2.25798) scale(57.255 55.7076)">
<stop stop-color="#0B0A0A"/>
<stop offset="1" stop-color="#5B5B5D"/>
</radialGradient>
</defs>
</svg>
