<svg viewBox="0 0 282 285" fill="none" xmlns="http://www.w3.org/2000/svg">
<g filter="url(#filter0_d_3705_131)">
<path d="M193.735 142.256C193.735 172.22 170.1 196.512 140.946 196.512C111.791 196.512 88.1562 172.22 88.1562 142.256C88.1562 112.291 111.791 88 140.946 88C170.1 88 193.735 112.291 193.735 142.256Z" fill="#112827"/>
<path d="M193.735 142.256C193.735 172.22 170.1 196.512 140.946 196.512C111.791 196.512 88.1562 172.22 88.1562 142.256C88.1562 112.291 111.791 88 140.946 88C170.1 88 193.735 112.291 193.735 142.256Z" fill="url(#paint0_radial_3705_131)"/>
<path d="M193.235 142.256C193.235 171.957 169.811 196.012 140.946 196.012C112.08 196.012 88.6562 171.957 88.6562 142.256C88.6562 112.554 112.08 88.5 140.946 88.5C169.811 88.5 193.235 112.554 193.235 142.256Z" stroke="#3D56CB"/>
</g>
<path d="M95.0881 205.33V231.512H92.0199L77.7528 210.955H77.4972V231.512H74.3267V205.33H77.3949L91.7131 225.938H91.9688V205.33H95.0881ZM109.256 231.921C107.364 231.921 105.732 231.503 104.36 230.668C102.996 229.824 101.944 228.648 101.202 227.14C100.469 225.623 100.103 223.858 100.103 221.847C100.103 219.836 100.469 218.063 101.202 216.529C101.944 214.986 102.975 213.784 104.296 212.924C105.625 212.054 107.176 211.62 108.949 211.62C109.972 211.62 110.982 211.79 111.979 212.131C112.976 212.472 113.884 213.026 114.702 213.793C115.52 214.551 116.172 215.557 116.658 216.81C117.144 218.063 117.387 219.605 117.387 221.438V222.716H102.25V220.108H114.319C114.319 219 114.097 218.012 113.654 217.142C113.219 216.273 112.597 215.587 111.787 215.084C110.986 214.581 110.04 214.33 108.949 214.33C107.748 214.33 106.708 214.628 105.83 215.225C104.961 215.813 104.292 216.58 103.823 217.526C103.354 218.472 103.12 219.486 103.12 220.569V222.307C103.12 223.79 103.375 225.047 103.887 226.078C104.407 227.101 105.127 227.881 106.047 228.418C106.968 228.946 108.037 229.211 109.256 229.211C110.049 229.211 110.765 229.1 111.404 228.878C112.051 228.648 112.61 228.307 113.078 227.855C113.547 227.395 113.909 226.824 114.165 226.142L117.08 226.961C116.773 227.949 116.257 228.819 115.533 229.569C114.809 230.31 113.914 230.89 112.848 231.307C111.783 231.716 110.586 231.921 109.256 231.921ZM121.976 238.875V211.875H124.891V214.995H125.249C125.471 214.654 125.777 214.219 126.169 213.691C126.57 213.154 127.141 212.676 127.882 212.259C128.632 211.833 129.647 211.62 130.925 211.62C132.578 211.62 134.036 212.033 135.297 212.86C136.559 213.686 137.543 214.858 138.25 216.375C138.958 217.892 139.311 219.682 139.311 221.745C139.311 223.824 138.958 225.627 138.25 227.152C137.543 228.669 136.563 229.846 135.31 230.681C134.057 231.507 132.613 231.921 130.976 231.921C129.715 231.921 128.705 231.712 127.946 231.294C127.188 230.868 126.604 230.387 126.195 229.85C125.786 229.304 125.471 228.853 125.249 228.495H124.993V238.875H121.976ZM124.942 221.694C124.942 223.176 125.159 224.485 125.594 225.618C126.029 226.743 126.664 227.625 127.499 228.265C128.334 228.895 129.357 229.211 130.567 229.211C131.828 229.211 132.881 228.878 133.725 228.213C134.577 227.54 135.216 226.637 135.642 225.503C136.077 224.361 136.294 223.091 136.294 221.694C136.294 220.313 136.081 219.069 135.655 217.961C135.238 216.844 134.603 215.962 133.75 215.314C132.907 214.658 131.846 214.33 130.567 214.33C129.34 214.33 128.309 214.641 127.473 215.263C126.638 215.877 126.007 216.738 125.581 217.846C125.155 218.945 124.942 220.228 124.942 221.694ZM152.453 211.875V214.432H142.277V211.875H152.453ZM145.243 207.171H148.26V225.887C148.26 226.739 148.384 227.378 148.631 227.804C148.887 228.222 149.211 228.503 149.603 228.648C150.003 228.784 150.425 228.853 150.868 228.853C151.201 228.853 151.473 228.836 151.686 228.801C151.9 228.759 152.07 228.725 152.198 228.699L152.811 231.409C152.607 231.486 152.321 231.563 151.955 231.64C151.588 231.725 151.124 231.767 150.561 231.767C149.709 231.767 148.874 231.584 148.056 231.218C147.246 230.851 146.573 230.293 146.036 229.543C145.507 228.793 145.243 227.847 145.243 226.705V207.171ZM169.367 223.483V211.875H172.384V231.512H169.367V228.188H169.162C168.702 229.185 167.986 230.033 167.015 230.732C166.043 231.422 164.816 231.767 163.333 231.767C162.105 231.767 161.015 231.499 160.06 230.962C159.105 230.417 158.355 229.598 157.81 228.507C157.265 227.408 156.992 226.023 156.992 224.353V211.875H160.009V224.148C160.009 225.58 160.409 226.722 161.211 227.574C162.02 228.426 163.051 228.853 164.304 228.853C165.054 228.853 165.817 228.661 166.593 228.277C167.377 227.894 168.033 227.306 168.561 226.513C169.098 225.721 169.367 224.711 169.367 223.483ZM180.927 219.699V231.512H177.91V211.875H180.825V214.944H181.08C181.54 213.946 182.239 213.145 183.177 212.54C184.114 211.926 185.325 211.62 186.808 211.62C188.137 211.62 189.3 211.892 190.298 212.438C191.295 212.975 192.07 213.793 192.624 214.892C193.178 215.983 193.455 217.364 193.455 219.034V231.512H190.438V219.239C190.438 217.696 190.038 216.495 189.237 215.634C188.435 214.765 187.336 214.33 185.938 214.33C184.975 214.33 184.114 214.539 183.356 214.956C182.606 215.374 182.013 215.983 181.579 216.784C181.144 217.586 180.927 218.557 180.927 219.699ZM207.201 231.921C205.309 231.921 203.677 231.503 202.305 230.668C200.941 229.824 199.889 228.648 199.147 227.14C198.414 225.623 198.048 223.858 198.048 221.847C198.048 219.836 198.414 218.063 199.147 216.529C199.889 214.986 200.92 213.784 202.241 212.924C203.571 212.054 205.122 211.62 206.895 211.62C207.917 211.62 208.927 211.79 209.924 212.131C210.922 212.472 211.829 213.026 212.647 213.793C213.466 214.551 214.118 215.557 214.603 216.81C215.089 218.063 215.332 219.605 215.332 221.438V222.716H200.196V220.108H212.264C212.264 219 212.042 218.012 211.599 217.142C211.164 216.273 210.542 215.587 209.733 215.084C208.931 214.581 207.985 214.33 206.895 214.33C205.693 214.33 204.653 214.628 203.775 215.225C202.906 215.813 202.237 216.58 201.768 217.526C201.299 218.472 201.065 219.486 201.065 220.569V222.307C201.065 223.79 201.321 225.047 201.832 226.078C202.352 227.101 203.072 227.881 203.993 228.418C204.913 228.946 205.983 229.211 207.201 229.211C207.994 229.211 208.71 229.1 209.349 228.878C209.997 228.648 210.555 228.307 211.024 227.855C211.493 227.395 211.855 226.824 212.11 226.142L215.025 226.961C214.718 227.949 214.203 228.819 213.478 229.569C212.754 230.31 211.859 230.89 210.794 231.307C209.728 231.716 208.531 231.921 207.201 231.921Z" fill="white"/>
<defs>
<filter id="filter0_d_3705_131" x="0.15625" y="0" width="281.579" height="284.511" filterUnits="userSpaceOnUse" color-interpolation-filters="sRGB">
<feFlood flood-opacity="0" result="BackgroundImageFix"/>
<feColorMatrix in="SourceAlpha" type="matrix" values="0 0 0 0 0 0 0 0 0 0 0 0 0 0 0 0 0 0 127 0" result="hardAlpha"/>
<feOffset/>
<feGaussianBlur stdDeviation="44"/>
<feComposite in2="hardAlpha" operator="out"/>
<feColorMatrix type="matrix" values="0 0 0 0 0.239216 0 0 0 0 0.337255 0 0 0 0 0.796078 0 0 0 1 0"/>
<feBlend mode="normal" in2="BackgroundImageFix" result="effect1_dropShadow_3705_131"/>
<feBlend mode="normal" in="SourceGraphic" in2="effect1_dropShadow_3705_131" result="shape"/>
</filter>
<radialGradient id="paint0_radial_3705_131" cx="0" cy="0" r="1" gradientUnits="userSpaceOnUse" gradientTransform="translate(131 142) rotate(-150.832) scale(49.2443 64.7371)">
<stop stop-color="#3D56CB"/>
<stop offset="1" stop-color="#3D56CB" stop-opacity="0"/>
</radialGradient>
</defs>
</svg>
