<svg viewBox="0 0 166 166" fill="none" xmlns="http://www.w3.org/2000/svg">
<path d="M143.364 150.91H22.6367L67.9096 45.2727H98.091L143.364 150.91Z" fill="#B7E8C4"/>
<path d="M166 52.8179C166 36.1487 128.84 22.6365 83.0007 22.6365C37.1598 22.6365 0 36.1487 0 52.8179C0 69.4872 37.1598 83.0007 83.0007 83.0007C128.84 83.0007 166 69.4872 166 52.8179Z" fill="#D6DEFF"/>
<path d="M166 52.8179C166 36.1487 128.84 22.6365 83.0007 22.6365C37.1598 22.6365 0 36.1487 0 52.8179C0 69.4872 37.1598 83.0007 83.0007 83.0007C128.84 83.0007 166 69.4872 166 52.8179Z" fill="#33527D"/>
<path d="M158.454 45.2729C158.454 32.7705 124.672 22.6365 82.9997 22.6365C41.3274 22.6365 7.54395 32.7705 7.54395 45.2729C7.54395 57.7753 41.3274 67.9093 82.9997 67.9093C124.672 67.9093 158.454 57.7753 158.454 45.2729Z" fill="#5E7599"/>
<path d="M150.91 49.0458C150.91 38.627 125.573 30.1812 94.3191 30.1812C63.0642 30.1812 37.728 38.627 37.728 49.0458C37.728 59.4631 63.0642 67.909 94.3191 67.909C125.573 67.909 150.91 59.4631 150.91 49.0458Z" fill="#435E88"/>
<path d="M143.364 150.91C143.364 142.575 116.338 135.818 83.001 135.818C49.6625 135.818 22.6367 142.575 22.6367 150.91C22.6367 159.244 49.6625 166 83.001 166C116.338 166 143.364 159.244 143.364 150.91Z" fill="#4CC66E"/>
<path d="M37.728 45.2729C37.728 20.2699 57.9965 0 83.0009 0C108.004 0 128.274 20.2699 128.274 45.2729C128.274 45.2729 113.182 52.8179 83.0009 52.8179C52.818 52.8179 37.728 45.2729 37.728 45.2729Z" fill="#5E7599"/>
<path d="M82.3291 10.915C79.8752 6.46445 71.4307 6.41599 63.4683 10.8071C55.5049 15.1964 51.0395 22.363 53.4917 26.8132C55.9456 31.2619 64.3901 31.31 72.3524 26.9207C80.3159 22.5299 84.7812 15.3648 82.3291 10.9146V10.915Z" fill="#7D8FAC"/>
<path d="M66.3349 9.11442C63.789 6.57065 59.0512 7.18431 55.7534 10.485C52.4555 13.7857 51.8461 18.523 54.3924 21.0668C56.9372 23.6099 61.6749 22.9969 64.9728 19.6959C68.2706 16.3949 68.8797 11.6578 66.3349 9.11442Z" fill="#ADB9CA"/>
<path d="M60.3639 30.1815C60.3639 34.3498 56.9861 37.7279 52.8175 37.7279C48.6506 37.7279 45.2725 34.3501 45.2725 30.1815C45.2725 26.0146 48.6502 22.6365 52.8175 22.6365C56.9858 22.6365 60.3639 26.0143 60.3639 30.1815ZM90.5453 37.7279C90.5453 41.8948 87.1675 45.2729 83.0003 45.2729C78.832 45.2729 75.4539 41.8951 75.4539 37.7279C75.4539 33.5596 78.8317 30.1815 83.0003 30.1815C87.1672 30.1815 90.5453 33.5593 90.5453 37.7279ZM120.727 30.1815C120.727 34.3498 117.349 37.7279 113.182 37.7279C109.015 37.7279 105.637 34.3501 105.637 30.1815C105.637 26.0146 109.015 22.6365 113.182 22.6365C117.349 22.6365 120.727 26.0143 120.727 30.1815Z" fill="#EFF2FF"/>
<path d="M45.2683 158.459C44.0202 158.457 42.7923 158.144 41.6943 157.551C40.5963 156.958 39.6625 156.101 38.9764 155.059C38.29 154.017 37.8724 152.821 37.7611 151.578C37.6497 150.335 37.8481 149.084 38.3383 147.937L60.9748 95.1177C62.6159 91.2865 67.0523 89.5095 70.8835 91.1524C74.7147 92.795 76.4888 97.2342 74.8431 101.064L52.2067 153.883C51.625 155.241 50.6575 156.399 49.4241 157.212C48.1907 158.026 46.7457 158.459 45.2683 158.459Z" fill="#D5F1DD"/>
</svg>
