<svg  viewBox="0 0 282 285" fill="none" xmlns="http://www.w3.org/2000/svg">
<g filter="url(#filter0_d_3705_137)">
<path d="M193.735 142.256C193.735 172.22 170.1 196.512 140.946 196.512C111.791 196.512 88.1562 172.22 88.1562 142.256C88.1562 112.291 111.791 88 140.946 88C170.1 88 193.735 112.291 193.735 142.256Z" fill="#112827"/>
<path d="M193.735 142.256C193.735 172.22 170.1 196.512 140.946 196.512C111.791 196.512 88.1562 172.22 88.1562 142.256C88.1562 112.291 111.791 88 140.946 88C170.1 88 193.735 112.291 193.735 142.256Z" fill="url(#paint0_radial_3705_137)"/>
<path d="M193.735 142.256C193.735 172.22 170.1 196.512 140.946 196.512C111.791 196.512 88.1562 172.22 88.1562 142.256C88.1562 112.291 111.791 88 140.946 88C170.1 88 193.735 112.291 193.735 142.256Z" fill="url(#paint1_radial_3705_137)"/>
<path d="M193.735 142.256C193.735 172.22 170.1 196.512 140.946 196.512C111.791 196.512 88.1562 172.22 88.1562 142.256C88.1562 112.291 111.791 88 140.946 88C170.1 88 193.735 112.291 193.735 142.256Z" fill="url(#paint2_radial_3705_137)"/>
<path d="M193.735 142.256C193.735 172.22 170.1 196.512 140.946 196.512C111.791 196.512 88.1562 172.22 88.1562 142.256C88.1562 112.291 111.791 88 140.946 88C170.1 88 193.735 112.291 193.735 142.256Z" fill="url(#paint3_radial_3705_137)"/>
<path d="M193.735 142.256C193.735 172.22 170.1 196.512 140.946 196.512C111.791 196.512 88.1562 172.22 88.1562 142.256C88.1562 112.291 111.791 88 140.946 88C170.1 88 193.735 112.291 193.735 142.256Z" fill="#CBAC6F" fill-opacity="0.2"/>
<path d="M193.235 142.256C193.235 171.957 169.811 196.012 140.946 196.012C112.08 196.012 88.6562 171.957 88.6562 142.256C88.6562 112.554 112.08 88.5 140.946 88.5C169.811 88.5 193.235 112.554 193.235 142.256Z" stroke="#CBAC6F"/>
</g>
<path d="M105.645 211.875C105.491 210.58 104.869 209.574 103.778 208.858C102.688 208.142 101.349 207.784 99.7642 207.784C98.6051 207.784 97.5909 207.972 96.7216 208.347C95.8608 208.722 95.1875 209.238 94.7017 209.894C94.2244 210.55 93.9858 211.296 93.9858 212.131C93.9858 212.83 94.152 213.431 94.4844 213.934C94.8253 214.428 95.2599 214.841 95.7884 215.174C96.3168 215.498 96.8707 215.766 97.4503 215.979C98.0298 216.184 98.5625 216.35 99.0483 216.478L101.707 217.194C102.389 217.373 103.148 217.62 103.983 217.935C104.827 218.25 105.632 218.681 106.399 219.226C107.175 219.763 107.814 220.453 108.317 221.297C108.82 222.141 109.071 223.176 109.071 224.404C109.071 225.819 108.7 227.097 107.959 228.239C107.226 229.381 106.152 230.289 104.737 230.962C103.331 231.635 101.622 231.972 99.6108 231.972C97.7358 231.972 96.1122 231.669 94.7401 231.064C93.3764 230.459 92.3026 229.615 91.5185 228.533C90.7429 227.451 90.304 226.194 90.2017 224.762H93.4744C93.5597 225.75 93.892 226.569 94.4716 227.216C95.0597 227.855 95.8011 228.333 96.696 228.648C97.5994 228.955 98.571 229.108 99.6108 229.108C100.821 229.108 101.908 228.912 102.871 228.52C103.834 228.12 104.597 227.566 105.159 226.858C105.722 226.142 106.003 225.307 106.003 224.353C106.003 223.483 105.76 222.776 105.274 222.23C104.788 221.685 104.149 221.242 103.357 220.901C102.564 220.56 101.707 220.262 100.787 220.006L97.5653 219.086C95.5199 218.498 93.9006 217.658 92.7074 216.567C91.5142 215.476 90.9176 214.049 90.9176 212.284C90.9176 210.819 91.3139 209.54 92.1065 208.449C92.9077 207.35 93.9815 206.498 95.3281 205.892C96.6832 205.279 98.196 204.972 99.8665 204.972C101.554 204.972 103.054 205.275 104.366 205.88C105.679 206.476 106.719 207.294 107.486 208.334C108.261 209.374 108.67 210.554 108.713 211.875H105.645ZM119.653 231.972C118.409 231.972 117.279 231.738 116.265 231.269C115.251 230.792 114.446 230.105 113.849 229.211C113.252 228.307 112.954 227.216 112.954 225.938C112.954 224.813 113.176 223.901 113.619 223.202C114.062 222.495 114.654 221.941 115.396 221.54C116.137 221.14 116.956 220.841 117.85 220.645C118.754 220.441 119.662 220.279 120.574 220.159C121.767 220.006 122.734 219.891 123.475 219.814C124.225 219.729 124.771 219.588 125.112 219.392C125.461 219.196 125.636 218.855 125.636 218.37V218.267C125.636 217.006 125.291 216.026 124.6 215.327C123.919 214.628 122.883 214.279 121.494 214.279C120.054 214.279 118.924 214.594 118.106 215.225C117.288 215.855 116.713 216.529 116.38 217.245L113.517 216.222C114.028 215.029 114.71 214.1 115.562 213.435C116.423 212.762 117.36 212.293 118.375 212.029C119.397 211.756 120.403 211.62 121.392 211.62C122.022 211.62 122.747 211.696 123.565 211.85C124.392 211.995 125.189 212.297 125.956 212.757C126.731 213.218 127.375 213.912 127.886 214.841C128.397 215.77 128.653 217.015 128.653 218.574V231.512H125.636V228.853H125.483C125.278 229.279 124.937 229.735 124.46 230.221C123.983 230.706 123.348 231.12 122.555 231.461C121.762 231.801 120.795 231.972 119.653 231.972ZM120.113 229.262C121.306 229.262 122.312 229.027 123.13 228.559C123.957 228.09 124.579 227.485 124.997 226.743C125.423 226.002 125.636 225.222 125.636 224.404V221.642C125.508 221.796 125.227 221.936 124.792 222.064C124.366 222.184 123.872 222.29 123.309 222.384C122.755 222.469 122.214 222.546 121.686 222.614C121.166 222.674 120.744 222.725 120.42 222.767C119.636 222.87 118.903 223.036 118.221 223.266C117.548 223.488 117.002 223.824 116.585 224.276C116.176 224.719 115.971 225.324 115.971 226.091C115.971 227.14 116.359 227.932 117.135 228.469C117.919 228.998 118.912 229.262 120.113 229.262ZM142.7 211.875V214.432H132.523V211.875H142.7ZM135.489 207.171H138.506V225.887C138.506 226.739 138.63 227.378 138.877 227.804C139.133 228.222 139.457 228.503 139.849 228.648C140.249 228.784 140.671 228.853 141.114 228.853C141.447 228.853 141.719 228.836 141.933 228.801C142.146 228.759 142.316 228.725 142.444 228.699L143.058 231.409C142.853 231.486 142.567 231.563 142.201 231.64C141.835 231.725 141.37 231.767 140.808 231.767C139.955 231.767 139.12 231.584 138.302 231.218C137.492 230.851 136.819 230.293 136.282 229.543C135.754 228.793 135.489 227.847 135.489 226.705V207.171ZM159.613 223.483V211.875H162.63V231.512H159.613V228.188H159.408C158.948 229.185 158.232 230.033 157.261 230.732C156.289 231.422 155.062 231.767 153.579 231.767C152.352 231.767 151.261 231.499 150.306 230.962C149.352 230.417 148.602 229.598 148.056 228.507C147.511 227.408 147.238 226.023 147.238 224.353V211.875H150.255V224.148C150.255 225.58 150.656 226.722 151.457 227.574C152.266 228.426 153.298 228.853 154.55 228.853C155.3 228.853 156.063 228.661 156.839 228.277C157.623 227.894 158.279 227.306 158.808 226.513C159.344 225.721 159.613 224.711 159.613 223.483ZM168.156 231.512V211.875H171.071V214.841H171.275C171.633 213.87 172.281 213.081 173.218 212.476C174.156 211.871 175.213 211.569 176.389 211.569C176.61 211.569 176.887 211.573 177.22 211.581C177.552 211.59 177.804 211.603 177.974 211.62V214.688C177.872 214.662 177.637 214.624 177.271 214.573C176.913 214.513 176.534 214.483 176.133 214.483C175.179 214.483 174.326 214.684 173.576 215.084C172.835 215.476 172.247 216.022 171.812 216.721C171.386 217.411 171.173 218.199 171.173 219.086V231.512H168.156ZM184.567 219.699V231.512H181.55V211.875H184.465V214.944H184.721C185.181 213.946 185.88 213.145 186.817 212.54C187.755 211.926 188.965 211.62 190.448 211.62C191.778 211.62 192.941 211.892 193.938 212.438C194.935 212.975 195.711 213.793 196.265 214.892C196.819 215.983 197.096 217.364 197.096 219.034V231.512H194.079V219.239C194.079 217.696 193.678 216.495 192.877 215.634C192.076 214.765 190.977 214.33 189.579 214.33C188.616 214.33 187.755 214.539 186.996 214.956C186.246 215.374 185.654 215.983 185.219 216.784C184.785 217.586 184.567 218.557 184.567 219.699Z" fill="white"/>
<defs>
<filter id="filter0_d_3705_137" x="0.15625" y="0" width="281.579" height="284.511" filterUnits="userSpaceOnUse" color-interpolation-filters="sRGB">
<feFlood flood-opacity="0" result="BackgroundImageFix"/>
<feColorMatrix in="SourceAlpha" type="matrix" values="0 0 0 0 0 0 0 0 0 0 0 0 0 0 0 0 0 0 127 0" result="hardAlpha"/>
<feOffset/>
<feGaussianBlur stdDeviation="44"/>
<feComposite in2="hardAlpha" operator="out"/>
<feColorMatrix type="matrix" values="0 0 0 0 0.796078 0 0 0 0 0.67451 0 0 0 0 0.435294 0 0 0 1 0"/>
<feBlend mode="normal" in2="BackgroundImageFix" result="effect1_dropShadow_3705_137"/>
<feBlend mode="normal" in="SourceGraphic" in2="effect1_dropShadow_3705_137" result="shape"/>
</filter>
<radialGradient id="paint0_radial_3705_137" cx="0" cy="0" r="1" gradientUnits="userSpaceOnUse" gradientTransform="translate(140.946 142.256) rotate(89.9659) scale(91.2442 88.7782)">
<stop stop-color="#CBAC6F"/>
<stop offset="1" stop-color="#CBAC6F" stop-opacity="0"/>
</radialGradient>
<radialGradient id="paint1_radial_3705_137" cx="0" cy="0" r="1" gradientUnits="userSpaceOnUse" gradientTransform="translate(88 105.5) rotate(41.9191) scale(124.985 121.607)">
<stop stop-color="#CBAC6F"/>
<stop offset="1" stop-color="#CBAC6F" stop-opacity="0"/>
</radialGradient>
<radialGradient id="paint2_radial_3705_137" cx="0" cy="0" r="1" gradientUnits="userSpaceOnUse" gradientTransform="translate(162.5 111) rotate(143.13) scale(77.5 142.562)">
<stop stop-color="#CDC4B0"/>
<stop offset="1" stop-color="#CBAC6F" stop-opacity="0"/>
</radialGradient>
<radialGradient id="paint3_radial_3705_137" cx="0" cy="0" r="1" gradientUnits="userSpaceOnUse" gradientTransform="translate(68.5 180.5) rotate(-25.4454) scale(68.6604 118.579)">
<stop stop-color="white"/>
<stop offset="1" stop-color="white" stop-opacity="0"/>
</radialGradient>
</defs>
</svg>
