<svg viewBox="0 0 442 499" fill="none" xmlns="http://www.w3.org/2000/svg">
<g filter="url(#filter0_d_3705_155)">
<path d="M354 224.694C354 300.189 294.454 361.389 221 361.389C147.546 361.389 88 300.189 88 224.694C88 149.2 147.546 88 221 88C294.454 88 354 149.2 354 224.694Z" fill="url(#paint0_radial_3705_155)" shape-rendering="crispEdges"/>
<path d="M354 224.694C354 300.189 294.454 361.389 221 361.389C147.546 361.389 88 300.189 88 224.694C88 149.2 147.546 88 221 88C294.454 88 354 149.2 354 224.694Z" fill="url(#paint1_radial_3705_155)" shape-rendering="crispEdges"/>
<path d="M354 224.694C354 300.189 294.454 361.389 221 361.389C147.546 361.389 88 300.189 88 224.694C88 149.2 147.546 88 221 88C294.454 88 354 149.2 354 224.694Z" fill="url(#paint2_radial_3705_155)" shape-rendering="crispEdges"/>
<path d="M353.5 224.694C353.5 299.926 294.165 360.889 221 360.889C147.835 360.889 88.5 299.926 88.5 224.694C88.5 149.463 147.835 88.5 221 88.5C294.165 88.5 353.5 149.463 353.5 224.694Z" stroke="#FF4C25" shape-rendering="crispEdges"/>
</g>
<path d="M194.489 402.752C194.335 401.457 193.713 400.451 192.622 399.735C191.531 399.019 190.193 398.661 188.608 398.661C187.449 398.661 186.435 398.849 185.565 399.224C184.705 399.599 184.031 400.115 183.545 400.771C183.068 401.427 182.83 402.173 182.83 403.008C182.83 403.707 182.996 404.308 183.328 404.811C183.669 405.305 184.104 405.718 184.632 406.051C185.161 406.374 185.714 406.643 186.294 406.856C186.874 407.061 187.406 407.227 187.892 407.355L190.551 408.07C191.233 408.249 191.991 408.497 192.827 408.812C193.67 409.127 194.476 409.558 195.243 410.103C196.018 410.64 196.658 411.33 197.161 412.174C197.663 413.018 197.915 414.053 197.915 415.281C197.915 416.695 197.544 417.974 196.803 419.116C196.07 420.258 194.996 421.166 193.581 421.839C192.175 422.512 190.466 422.849 188.455 422.849C186.58 422.849 184.956 422.546 183.584 421.941C182.22 421.336 181.146 420.492 180.362 419.41C179.587 418.328 179.148 417.07 179.045 415.639H182.318C182.403 416.627 182.736 417.445 183.315 418.093C183.903 418.732 184.645 419.21 185.54 419.525C186.443 419.832 187.415 419.985 188.455 419.985C189.665 419.985 190.751 419.789 191.714 419.397C192.678 418.997 193.44 418.443 194.003 417.735C194.565 417.019 194.847 416.184 194.847 415.23C194.847 414.36 194.604 413.653 194.118 413.107C193.632 412.562 192.993 412.119 192.2 411.778C191.408 411.437 190.551 411.139 189.631 410.883L186.409 409.963C184.364 409.374 182.744 408.535 181.551 407.444C180.358 406.353 179.761 404.926 179.761 403.161C179.761 401.695 180.158 400.417 180.95 399.326C181.751 398.227 182.825 397.374 184.172 396.769C185.527 396.156 187.04 395.849 188.71 395.849C190.398 395.849 191.898 396.151 193.21 396.757C194.523 397.353 195.563 398.171 196.33 399.211C197.105 400.251 197.514 401.431 197.557 402.752H194.489ZM210.696 422.798C208.923 422.798 207.368 422.376 206.029 421.532C204.7 420.688 203.66 419.508 202.91 417.991C202.169 416.474 201.798 414.701 201.798 412.673C201.798 410.627 202.169 408.842 202.91 407.316C203.66 405.791 204.7 404.606 206.029 403.762C207.368 402.919 208.923 402.497 210.696 402.497C212.468 402.497 214.02 402.919 215.349 403.762C216.687 404.606 217.727 405.791 218.468 407.316C219.218 408.842 219.593 410.627 219.593 412.673C219.593 414.701 219.218 416.474 218.468 417.991C217.727 419.508 216.687 420.688 215.349 421.532C214.02 422.376 212.468 422.798 210.696 422.798ZM210.696 420.088C212.042 420.088 213.15 419.742 214.02 419.052C214.889 418.362 215.532 417.454 215.95 416.329C216.368 415.204 216.576 413.985 216.576 412.673C216.576 411.36 216.368 410.137 215.95 409.004C215.532 407.87 214.889 406.954 214.02 406.255C213.15 405.556 212.042 405.207 210.696 405.207C209.349 405.207 208.241 405.556 207.372 406.255C206.502 406.954 205.859 407.87 205.441 409.004C205.024 410.137 204.815 411.36 204.815 412.673C204.815 413.985 205.024 415.204 205.441 416.329C205.859 417.454 206.502 418.362 207.372 419.052C208.241 419.742 209.349 420.088 210.696 420.088ZM227.216 396.207V422.389H224.199V396.207H227.216ZM238.52 422.849C237.276 422.849 236.147 422.615 235.132 422.146C234.118 421.669 233.313 420.982 232.716 420.088C232.12 419.184 231.821 418.093 231.821 416.815C231.821 415.69 232.043 414.778 232.486 414.079C232.929 413.372 233.522 412.818 234.263 412.417C235.005 412.017 235.823 411.718 236.718 411.522C237.621 411.318 238.529 411.156 239.441 411.036C240.634 410.883 241.601 410.768 242.343 410.691C243.093 410.606 243.638 410.465 243.979 410.269C244.328 410.073 244.503 409.732 244.503 409.247V409.144C244.503 407.883 244.158 406.903 243.468 406.204C242.786 405.505 241.75 405.156 240.361 405.156C238.921 405.156 237.792 405.471 236.973 406.102C236.155 406.732 235.58 407.406 235.248 408.122L232.384 407.099C232.895 405.906 233.577 404.977 234.429 404.312C235.29 403.639 236.228 403.17 237.242 402.906C238.265 402.633 239.27 402.497 240.259 402.497C240.89 402.497 241.614 402.573 242.432 402.727C243.259 402.872 244.056 403.174 244.823 403.634C245.598 404.095 246.242 404.789 246.753 405.718C247.265 406.647 247.52 407.892 247.52 409.451V422.389H244.503V419.73H244.35C244.145 420.156 243.804 420.612 243.327 421.097C242.85 421.583 242.215 421.997 241.422 422.338C240.63 422.678 239.662 422.849 238.52 422.849ZM238.98 420.139C240.174 420.139 241.179 419.904 241.998 419.436C242.824 418.967 243.446 418.362 243.864 417.62C244.29 416.879 244.503 416.099 244.503 415.281V412.519C244.375 412.673 244.094 412.813 243.659 412.941C243.233 413.061 242.739 413.167 242.176 413.261C241.623 413.346 241.081 413.423 240.553 413.491C240.033 413.551 239.611 413.602 239.287 413.644C238.503 413.747 237.77 413.913 237.088 414.143C236.415 414.365 235.87 414.701 235.452 415.153C235.043 415.596 234.838 416.201 234.838 416.968C234.838 418.017 235.226 418.809 236.002 419.346C236.786 419.874 237.779 420.139 238.98 420.139ZM253.027 422.389V402.752H255.942V405.718H256.146C256.504 404.747 257.152 403.958 258.089 403.353C259.027 402.748 260.084 402.445 261.26 402.445C261.482 402.445 261.759 402.45 262.091 402.458C262.423 402.467 262.675 402.48 262.845 402.497V405.565C262.743 405.539 262.509 405.501 262.142 405.45C261.784 405.39 261.405 405.36 261.004 405.36C260.05 405.36 259.197 405.561 258.447 405.961C257.706 406.353 257.118 406.899 256.683 407.597C256.257 408.288 256.044 409.076 256.044 409.963V422.389H253.027Z" fill="white"/>
<defs>
<filter id="filter0_d_3705_155" x="0" y="0" width="442" height="449.389" filterUnits="userSpaceOnUse" color-interpolation-filters="sRGB">
<feFlood flood-opacity="0" result="BackgroundImageFix"/>
<feColorMatrix in="SourceAlpha" type="matrix" values="0 0 0 0 0 0 0 0 0 0 0 0 0 0 0 0 0 0 127 0" result="hardAlpha"/>
<feOffset/>
<feGaussianBlur stdDeviation="44"/>
<feComposite in2="hardAlpha" operator="out"/>
<feColorMatrix type="matrix" values="0 0 0 0 1 0 0 0 0 0.6 0 0 0 0 0 0 0 0 1 0"/>
<feBlend mode="normal" in2="BackgroundImageFix" result="effect1_dropShadow_3705_155"/>
<feBlend mode="normal" in="SourceGraphic" in2="effect1_dropShadow_3705_155" result="shape"/>
</filter>
<radialGradient id="paint0_radial_3705_155" cx="0" cy="0" r="1" gradientUnits="userSpaceOnUse" gradientTransform="translate(221 224.694) rotate(91.2406) scale(615.504 598.869)">
<stop stop-color="#FF0000"/>
<stop offset="1" stop-color="#FF0000" stop-opacity="0"/>
</radialGradient>
<radialGradient id="paint1_radial_3705_155" cx="0" cy="0" r="1" gradientUnits="userSpaceOnUse" gradientTransform="translate(221 224.694) rotate(105.604) scale(143.203 129.058)">
<stop stop-color="#FFD600"/>
<stop offset="1" stop-color="#FFD600" stop-opacity="0"/>
</radialGradient>
<radialGradient id="paint2_radial_3705_155" cx="0" cy="0" r="1" gradientUnits="userSpaceOnUse" gradientTransform="translate(221 224.694) rotate(137.938) scale(192.717 187.508)">
<stop stop-color="#FAFF01"/>
<stop offset="1" stop-color="#FAFF01" stop-opacity="0"/>
</radialGradient>
</defs>
</svg>
