<svg viewBox="0 0 282 285" fill="none" xmlns="http://www.w3.org/2000/svg">
<g filter="url(#filter0_d_3705_134)">
<path d="M193.735 142.256C193.735 172.22 170.1 196.512 140.946 196.512C111.791 196.512 88.1562 172.22 88.1562 142.256C88.1562 112.291 111.791 88 140.946 88C170.1 88 193.735 112.291 193.735 142.256Z" fill="#112827"/>
<path d="M193.735 142.256C193.735 172.22 170.1 196.512 140.946 196.512C111.791 196.512 88.1562 172.22 88.1562 142.256C88.1562 112.291 111.791 88 140.946 88C170.1 88 193.735 112.291 193.735 142.256Z" fill="url(#paint0_radial_3705_134)" fill-opacity="0.75"/>
<path d="M193.735 142.256C193.735 172.22 170.1 196.512 140.946 196.512C111.791 196.512 88.1562 172.22 88.1562 142.256C88.1562 112.291 111.791 88 140.946 88C170.1 88 193.735 112.291 193.735 142.256Z" fill="url(#paint1_radial_3705_134)" fill-opacity="0.9"/>
<path d="M193.735 142.256C193.735 172.22 170.1 196.512 140.946 196.512C111.791 196.512 88.1562 172.22 88.1562 142.256C88.1562 112.291 111.791 88 140.946 88C170.1 88 193.735 112.291 193.735 142.256Z" fill="url(#paint2_radial_3705_134)"/>
<path d="M193.235 142.256C193.235 171.957 169.811 196.012 140.946 196.012C112.08 196.012 88.6562 171.957 88.6562 142.256C88.6562 112.554 112.08 88.5 140.946 88.5C169.811 88.5 193.235 112.554 193.235 142.256Z" stroke="#417280"/>
</g>
<path d="M103.509 205.33H106.679V222.665C106.679 224.455 106.257 226.053 105.413 227.459C104.578 228.857 103.398 229.961 101.872 230.77C100.347 231.571 98.5568 231.972 96.5028 231.972C94.4489 231.972 92.6591 231.571 91.1335 230.77C89.608 229.961 88.4233 228.857 87.5795 227.459C86.7443 226.053 86.3267 224.455 86.3267 222.665V205.33H89.4972V222.409C89.4972 223.688 89.7784 224.826 90.3409 225.823C90.9034 226.811 91.7045 227.591 92.7443 228.162C93.7926 228.725 95.0455 229.006 96.5028 229.006C97.9602 229.006 99.2131 228.725 100.261 228.162C101.31 227.591 102.111 226.811 102.665 225.823C103.227 224.826 103.509 223.688 103.509 222.409V205.33ZM112.601 231.512V211.875H115.516V214.841H115.721C116.078 213.87 116.726 213.081 117.664 212.476C118.601 211.871 119.658 211.569 120.834 211.569C121.056 211.569 121.333 211.573 121.665 211.581C121.998 211.59 122.249 211.603 122.419 211.62V214.688C122.317 214.662 122.083 214.624 121.716 214.573C121.358 214.513 120.979 214.483 120.578 214.483C119.624 214.483 118.772 214.684 118.022 215.084C117.28 215.476 116.692 216.022 116.257 216.721C115.831 217.411 115.618 218.199 115.618 219.086V231.512H112.601ZM131.774 231.972C130.53 231.972 129.401 231.738 128.386 231.269C127.372 230.792 126.567 230.105 125.97 229.211C125.374 228.307 125.075 227.216 125.075 225.938C125.075 224.813 125.297 223.901 125.74 223.202C126.183 222.495 126.776 221.941 127.517 221.54C128.259 221.14 129.077 220.841 129.972 220.645C130.875 220.441 131.783 220.279 132.695 220.159C133.888 220.006 134.855 219.891 135.597 219.814C136.347 219.729 136.892 219.588 137.233 219.392C137.582 219.196 137.757 218.855 137.757 218.37V218.267C137.757 217.006 137.412 216.026 136.722 215.327C136.04 214.628 135.004 214.279 133.615 214.279C132.175 214.279 131.045 214.594 130.227 215.225C129.409 215.855 128.834 216.529 128.501 217.245L125.638 216.222C126.149 215.029 126.831 214.1 127.683 213.435C128.544 212.762 129.482 212.293 130.496 212.029C131.518 211.756 132.524 211.62 133.513 211.62C134.143 211.62 134.868 211.696 135.686 211.85C136.513 211.995 137.31 212.297 138.077 212.757C138.852 213.218 139.496 213.912 140.007 214.841C140.518 215.77 140.774 217.015 140.774 218.574V231.512H137.757V228.853H137.604C137.399 229.279 137.058 229.735 136.581 230.221C136.104 230.706 135.469 231.12 134.676 231.461C133.884 231.801 132.916 231.972 131.774 231.972ZM132.234 229.262C133.428 229.262 134.433 229.027 135.251 228.559C136.078 228.09 136.7 227.485 137.118 226.743C137.544 226.002 137.757 225.222 137.757 224.404V221.642C137.629 221.796 137.348 221.936 136.913 222.064C136.487 222.184 135.993 222.29 135.43 222.384C134.876 222.469 134.335 222.546 133.807 222.614C133.287 222.674 132.865 222.725 132.541 222.767C131.757 222.87 131.024 223.036 130.342 223.266C129.669 223.488 129.124 223.824 128.706 224.276C128.297 224.719 128.092 225.324 128.092 226.091C128.092 227.14 128.48 227.932 129.256 228.469C130.04 228.998 131.033 229.262 132.234 229.262ZM149.298 219.699V231.512H146.281V211.875H149.196V214.944H149.451C149.912 213.946 150.61 213.145 151.548 212.54C152.485 211.926 153.696 211.62 155.179 211.62C156.508 211.62 157.672 211.892 158.669 212.438C159.666 212.975 160.441 213.793 160.995 214.892C161.549 215.983 161.826 217.364 161.826 219.034V231.512H158.809V219.239C158.809 217.696 158.409 216.495 157.608 215.634C156.806 214.765 155.707 214.33 154.309 214.33C153.346 214.33 152.485 214.539 151.727 214.956C150.977 215.374 150.385 215.983 149.95 216.784C149.515 217.586 149.298 218.557 149.298 219.699ZM179.714 223.483V211.875H182.732V231.512H179.714V228.188H179.51C179.05 229.185 178.334 230.033 177.362 230.732C176.391 231.422 175.163 231.767 173.68 231.767C172.453 231.767 171.362 231.499 170.408 230.962C169.453 230.417 168.703 229.598 168.158 228.507C167.612 227.408 167.339 226.023 167.339 224.353V211.875H170.357V224.148C170.357 225.58 170.757 226.722 171.558 227.574C172.368 228.426 173.399 228.853 174.652 228.853C175.402 228.853 176.165 228.661 176.94 228.277C177.724 227.894 178.381 227.306 178.909 226.513C179.446 225.721 179.714 224.711 179.714 223.483ZM202.167 216.273L199.456 217.04C199.286 216.588 199.034 216.15 198.702 215.723C198.378 215.289 197.935 214.931 197.373 214.65C196.81 214.368 196.09 214.228 195.212 214.228C194.01 214.228 193.009 214.505 192.208 215.059C191.415 215.604 191.019 216.299 191.019 217.142C191.019 217.892 191.292 218.485 191.837 218.919C192.382 219.354 193.235 219.716 194.394 220.006L197.309 220.722C199.064 221.148 200.373 221.8 201.233 222.678C202.094 223.547 202.525 224.668 202.525 226.04C202.525 227.165 202.201 228.171 201.553 229.057C200.914 229.944 200.019 230.642 198.868 231.154C197.718 231.665 196.38 231.921 194.854 231.921C192.851 231.921 191.194 231.486 189.881 230.617C188.569 229.748 187.738 228.478 187.388 226.807L190.252 226.091C190.525 227.148 191.04 227.941 191.799 228.469C192.566 228.998 193.567 229.262 194.803 229.262C196.209 229.262 197.326 228.963 198.152 228.367C198.988 227.762 199.405 227.037 199.405 226.194C199.405 225.512 199.167 224.941 198.689 224.48C198.212 224.012 197.479 223.662 196.49 223.432L193.218 222.665C191.419 222.239 190.098 221.578 189.255 220.684C188.419 219.78 188.002 218.651 188.002 217.296C188.002 216.188 188.313 215.208 188.935 214.355C189.566 213.503 190.422 212.834 191.505 212.348C192.596 211.863 193.831 211.62 195.212 211.62C197.155 211.62 198.681 212.046 199.789 212.898C200.905 213.75 201.698 214.875 202.167 216.273Z" fill="white"/>
<defs>
<filter id="filter0_d_3705_134" x="0.15625" y="0" width="281.579" height="284.511" filterUnits="userSpaceOnUse" color-interpolation-filters="sRGB">
<feFlood flood-opacity="0" result="BackgroundImageFix"/>
<feColorMatrix in="SourceAlpha" type="matrix" values="0 0 0 0 0 0 0 0 0 0 0 0 0 0 0 0 0 0 127 0" result="hardAlpha"/>
<feOffset/>
<feGaussianBlur stdDeviation="44"/>
<feComposite in2="hardAlpha" operator="out"/>
<feColorMatrix type="matrix" values="0 0 0 0 0.254902 0 0 0 0 0.447059 0 0 0 0 0.501961 0 0 0 1 0"/>
<feBlend mode="normal" in2="BackgroundImageFix" result="effect1_dropShadow_3705_134"/>
<feBlend mode="normal" in="SourceGraphic" in2="effect1_dropShadow_3705_134" result="shape"/>
</filter>
<radialGradient id="paint0_radial_3705_134" cx="0" cy="0" r="1" gradientUnits="userSpaceOnUse" gradientTransform="translate(138 142) rotate(86.9069) scale(54.5911 53.0773)">
<stop stop-color="white"/>
<stop offset="0.628714" stop-opacity="0"/>
</radialGradient>
<radialGradient id="paint1_radial_3705_134" cx="0" cy="0" r="1" gradientUnits="userSpaceOnUse" gradientTransform="translate(120 142) rotate(144.265) scale(101.02 98.2895)">
<stop stop-color="#93E9FC"/>
<stop offset="1" stop-opacity="0"/>
</radialGradient>
<radialGradient id="paint2_radial_3705_134" cx="0" cy="0" r="1" gradientUnits="userSpaceOnUse" gradientTransform="translate(90 157) rotate(35.5377) scale(68.8186 99.3092)">
<stop stop-color="#417280"/>
<stop offset="1" stop-color="#417280" stop-opacity="0"/>
</radialGradient>
</defs>
</svg>
