<svg viewBox="0 0 282 285" fill="none" xmlns="http://www.w3.org/2000/svg">
<g filter="url(#filter0_d_3705_149)">
<path d="M193.579 142.256C193.579 172.22 169.944 196.512 140.789 196.512C111.635 196.512 88 172.22 88 142.256C88 112.291 111.635 88 140.789 88C169.944 88 193.579 112.291 193.579 142.256Z" fill="#112827"/>
<path d="M193.579 142.256C193.579 172.22 169.944 196.512 140.789 196.512C111.635 196.512 88 172.22 88 142.256C88 112.291 111.635 88 140.789 88C169.944 88 193.579 112.291 193.579 142.256Z" fill="url(#paint0_radial_3705_149)"/>
<path d="M193.579 142.256C193.579 172.22 169.944 196.512 140.789 196.512C111.635 196.512 88 172.22 88 142.256C88 112.291 111.635 88 140.789 88C169.944 88 193.579 112.291 193.579 142.256Z" fill="url(#paint1_radial_3705_149)"/>
<path d="M193.579 142.256C193.579 172.22 169.944 196.512 140.789 196.512C111.635 196.512 88 172.22 88 142.256C88 112.291 111.635 88 140.789 88C169.944 88 193.579 112.291 193.579 142.256Z" fill="url(#paint2_radial_3705_149)"/>
<path d="M193.079 142.256C193.079 171.957 169.655 196.012 140.789 196.012C111.924 196.012 88.5 171.957 88.5 142.256C88.5 112.554 111.924 88.5 140.789 88.5C169.655 88.5 193.079 112.554 193.079 142.256Z" stroke="#885312"/>
</g>
<path d="M96.2443 205.33L104.017 227.37H104.324L112.097 205.33H115.42L105.807 231.512H102.534L92.9205 205.33H96.2443ZM125.494 231.921C123.602 231.921 121.97 231.503 120.598 230.668C119.234 229.824 118.182 228.648 117.44 227.14C116.707 225.623 116.341 223.858 116.341 221.847C116.341 219.836 116.707 218.063 117.44 216.529C118.182 214.986 119.213 213.784 120.534 212.924C121.864 212.054 123.415 211.62 125.188 211.62C126.21 211.62 127.22 211.79 128.217 212.131C129.214 212.472 130.122 213.026 130.94 213.793C131.759 214.551 132.411 215.557 132.896 216.81C133.382 218.063 133.625 219.605 133.625 221.438V222.716H118.489V220.108H130.557C130.557 219 130.335 218.012 129.892 217.142C129.457 216.273 128.835 215.587 128.026 215.084C127.224 214.581 126.278 214.33 125.188 214.33C123.986 214.33 122.946 214.628 122.068 215.225C121.199 215.813 120.53 216.58 120.061 217.526C119.592 218.472 119.358 219.486 119.358 220.569V222.307C119.358 223.79 119.614 225.047 120.125 226.078C120.645 227.101 121.365 227.881 122.286 228.418C123.206 228.946 124.276 229.211 125.494 229.211C126.287 229.211 127.003 229.1 127.642 228.878C128.29 228.648 128.848 228.307 129.317 227.855C129.786 227.395 130.148 226.824 130.403 226.142L133.318 226.961C133.011 227.949 132.496 228.819 131.771 229.569C131.047 230.31 130.152 230.89 129.087 231.307C128.021 231.716 126.824 231.921 125.494 231.921ZM141.232 219.699V231.512H138.214V211.875H141.129V214.944H141.385C141.845 213.946 142.544 213.145 143.482 212.54C144.419 211.926 145.629 211.62 147.112 211.62C148.442 211.62 149.605 211.892 150.602 212.438C151.599 212.975 152.375 213.793 152.929 214.892C153.483 215.983 153.76 217.364 153.76 219.034V231.512H150.743V219.239C150.743 217.696 150.342 216.495 149.541 215.634C148.74 214.765 147.641 214.33 146.243 214.33C145.28 214.33 144.419 214.539 143.661 214.956C142.911 215.374 142.318 215.983 141.884 216.784C141.449 217.586 141.232 218.557 141.232 219.699ZM171.648 223.483V211.875H174.665V231.512H171.648V228.188H171.444C170.983 229.185 170.267 230.033 169.296 230.732C168.324 231.422 167.097 231.767 165.614 231.767C164.387 231.767 163.296 231.499 162.341 230.962C161.387 230.417 160.637 229.598 160.091 228.507C159.546 227.408 159.273 226.023 159.273 224.353V211.875H162.29V224.148C162.29 225.58 162.691 226.722 163.492 227.574C164.301 228.426 165.333 228.853 166.586 228.853C167.336 228.853 168.098 228.661 168.874 228.277C169.658 227.894 170.314 227.306 170.843 226.513C171.38 225.721 171.648 224.711 171.648 223.483ZM194.1 216.273L191.39 217.04C191.219 216.588 190.968 216.15 190.636 215.723C190.312 215.289 189.869 214.931 189.306 214.65C188.744 214.368 188.023 214.228 187.146 214.228C185.944 214.228 184.942 214.505 184.141 215.059C183.349 215.604 182.952 216.299 182.952 217.142C182.952 217.892 183.225 218.485 183.771 218.919C184.316 219.354 185.168 219.716 186.327 220.006L189.242 220.722C190.998 221.148 192.306 221.8 193.167 222.678C194.028 223.547 194.458 224.668 194.458 226.04C194.458 227.165 194.134 228.171 193.487 229.057C192.847 229.944 191.952 230.642 190.802 231.154C189.651 231.665 188.313 231.921 186.788 231.921C184.785 231.921 183.127 231.486 181.815 230.617C180.502 229.748 179.671 228.478 179.322 226.807L182.185 226.091C182.458 227.148 182.974 227.941 183.732 228.469C184.499 228.998 185.501 229.262 186.737 229.262C188.143 229.262 189.259 228.963 190.086 228.367C190.921 227.762 191.339 227.037 191.339 226.194C191.339 225.512 191.1 224.941 190.623 224.48C190.146 224.012 189.413 223.662 188.424 223.432L185.151 222.665C183.353 222.239 182.032 221.578 181.188 220.684C180.353 219.78 179.935 218.651 179.935 217.296C179.935 216.188 180.246 215.208 180.869 214.355C181.499 213.503 182.356 212.834 183.438 212.348C184.529 211.863 185.765 211.62 187.146 211.62C189.089 211.62 190.614 212.046 191.722 212.898C192.839 213.75 193.631 214.875 194.1 216.273Z" fill="white"/>
<defs>
<filter id="filter0_d_3705_149" x="0" y="0" width="281.579" height="284.511" filterUnits="userSpaceOnUse" color-interpolation-filters="sRGB">
<feFlood flood-opacity="0" result="BackgroundImageFix"/>
<feColorMatrix in="SourceAlpha" type="matrix" values="0 0 0 0 0 0 0 0 0 0 0 0 0 0 0 0 0 0 127 0" result="hardAlpha"/>
<feOffset/>
<feGaussianBlur stdDeviation="44"/>
<feComposite in2="hardAlpha" operator="out"/>
<feColorMatrix type="matrix" values="0 0 0 0 0.870588 0 0 0 0 0.607843 0 0 0 0 0.0235294 0 0 0 1 0"/>
<feBlend mode="normal" in2="BackgroundImageFix" result="effect1_dropShadow_3705_149"/>
<feBlend mode="normal" in="SourceGraphic" in2="effect1_dropShadow_3705_149" result="shape"/>
</filter>
<radialGradient id="paint0_radial_3705_149" cx="0" cy="0" r="1" gradientUnits="userSpaceOnUse" gradientTransform="translate(162.5 121.5) rotate(141.377) scale(120.957 117.688)">
<stop stop-color="#FFAE00"/>
<stop offset="1" stop-color="#FFAE00" stop-opacity="0"/>
</radialGradient>
<radialGradient id="paint1_radial_3705_149" cx="0" cy="0" r="1" gradientUnits="userSpaceOnUse" gradientTransform="translate(141 142) rotate(163.301) scale(26.1008 50.5728)">
<stop stop-color="#FAFF15"/>
<stop offset="1" stop-color="#9B9D2F" stop-opacity="0"/>
</radialGradient>
<radialGradient id="paint2_radial_3705_149" cx="0" cy="0" r="1" gradientUnits="userSpaceOnUse" gradientTransform="translate(114.5 132.5) rotate(91.7624) scale(97.5461 60.5691)">
<stop stop-color="#974C0D"/>
<stop offset="1" stop-color="#974C0D" stop-opacity="0"/>
</radialGradient>
</defs>
</svg>
