<svg width="240" height="240" viewBox="0 0 240 240" fill="none" xmlns="http://www.w3.org/2000/svg">
<g clip-path="url(#clip0_1_4)">
<path d="M120 240C186.274 240 240 186.274 240 120C240 53.7258 186.274 0 120 0C53.7258 0 0 53.7258 0 120C0 186.274 53.7258 240 120 240Z" fill="url(#paint0_linear_1_4)"/>
<path d="M81.229 128.772L95.466 168.178C95.466 168.178 97.246 171.865 99.152 171.865C101.058 171.865 129.407 142.373 129.407 142.373L160.932 81.483L81.737 118.6L81.229 128.772Z" fill="#C8DAEA"/>
<path d="M100.106 138.878L97.373 167.924C97.373 167.924 96.229 176.824 105.127 167.924C114.025 159.024 122.542 152.161 122.542 152.161" fill="#A9C6D8"/>
<path d="M81.486 130.178L52.2 120.636C52.2 120.636 48.7 119.216 49.827 115.996C50.059 115.332 50.527 114.767 51.927 113.796C58.416 109.273 172.033 68.436 172.033 68.436C172.033 68.436 175.241 67.355 177.133 68.074C177.601 68.2189 178.022 68.4855 178.353 68.8466C178.685 69.2076 178.914 69.6502 179.018 70.129C179.222 70.9747 179.308 71.8447 179.272 72.714C179.263 73.466 179.172 74.163 179.103 75.256C178.411 86.421 157.703 169.749 157.703 169.749C157.703 169.749 156.464 174.625 152.025 174.792C150.934 174.827 149.847 174.642 148.829 174.249C147.811 173.855 146.883 173.26 146.1 172.5C137.389 165.007 107.281 144.773 100.628 140.323C100.478 140.221 100.352 140.087 100.257 139.932C100.163 139.777 100.103 139.603 100.082 139.423C99.989 138.954 100.499 138.373 100.499 138.373C100.499 138.373 152.925 91.773 154.32 86.881C154.428 86.502 154.02 86.315 153.472 86.481C149.99 87.762 89.628 125.881 82.966 130.088C82.4865 130.233 81.9796 130.264 81.486 130.178Z" fill="white"/>
</g>
<defs>
<linearGradient id="paint0_linear_1_4" x1="120" y1="240" x2="120" y2="0" gradientUnits="userSpaceOnUse">
<stop stop-color="#1D93D2"/>
<stop offset="1" stop-color="#38B0E3"/>
</linearGradient>
<clipPath id="clip0_1_4">
<rect width="240" height="240" fill="white"/>
</clipPath>
</defs>
</svg>
