<svg  viewBox="0 0 207 47" fill="none" xmlns="http://www.w3.org/2000/svg">
<path d="M8.95455 2.09091L15.9943 13.9886H16.267L23.3409 2.09091H31.6761L21.0227 19.5455L31.9148 37H23.4261L16.267 25.0852H15.9943L8.83523 37H0.380682L11.3068 19.5455L0.585227 2.09091H8.95455ZM53.2761 37.4943C51.6057 37.4943 50.117 37.2045 48.8102 36.625C47.5034 36.0341 46.4693 35.1648 45.708 34.017C44.958 32.858 44.583 31.4148 44.583 29.6875C44.583 28.233 44.85 27.0114 45.3841 26.0227C45.9182 25.0341 46.6455 24.2386 47.5659 23.6364C48.4864 23.0341 49.5318 22.5795 50.7023 22.2727C51.8841 21.9659 53.1227 21.75 54.4182 21.625C55.9409 21.4659 57.1682 21.3182 58.1 21.1818C59.0318 21.0341 59.708 20.8182 60.1284 20.5341C60.5489 20.25 60.7591 19.8295 60.7591 19.2727V19.1705C60.7591 18.0909 60.4182 17.2557 59.7364 16.6648C59.0659 16.0739 58.1114 15.7784 56.8727 15.7784C55.5659 15.7784 54.5261 16.0682 53.7534 16.6477C52.9807 17.2159 52.4693 17.9318 52.2193 18.7955L45.5034 18.25C45.8443 16.6591 46.5148 15.2841 47.5148 14.125C48.5148 12.9545 49.8045 12.0568 51.3841 11.4318C52.975 10.7955 54.8159 10.4773 56.9068 10.4773C58.3614 10.4773 59.7534 10.6477 61.083 10.9886C62.4239 11.3295 63.6114 11.858 64.6455 12.5739C65.6909 13.2898 66.5148 14.2102 67.117 15.3352C67.7193 16.4489 68.0205 17.7841 68.0205 19.3409V37H61.1341V33.3693H60.9295C60.5091 34.1875 59.9466 34.9091 59.242 35.5341C58.5375 36.1477 57.6909 36.6307 56.7023 36.983C55.7136 37.3239 54.5716 37.4943 53.2761 37.4943ZM55.3557 32.483C56.4239 32.483 57.367 32.2727 58.1852 31.8523C59.0034 31.4205 59.6455 30.8409 60.1114 30.1136C60.5773 29.3864 60.8102 28.5625 60.8102 27.642V24.8636C60.583 25.0114 60.2705 25.1477 59.8727 25.2727C59.4864 25.3864 59.0489 25.4943 58.5602 25.5966C58.0716 25.6875 57.583 25.7727 57.0943 25.8523C56.6057 25.9205 56.1625 25.983 55.7648 26.0398C54.9125 26.1648 54.1682 26.3636 53.5318 26.6364C52.8955 26.9091 52.4011 27.2784 52.0489 27.7443C51.6966 28.1989 51.5205 28.767 51.5205 29.4489C51.5205 30.4375 51.8784 31.1932 52.5943 31.7159C53.3216 32.2273 54.242 32.483 55.3557 32.483ZM83.254 46.8182V10.8182H90.4131V15.2159H90.7369C91.0551 14.5114 91.5153 13.7955 92.1176 13.0682C92.7312 12.3295 93.5267 11.7159 94.504 11.2273C95.4926 10.7273 96.7199 10.4773 98.1858 10.4773C100.095 10.4773 101.856 10.9773 103.47 11.9773C105.084 12.9659 106.373 14.4602 107.339 16.4602C108.305 18.4489 108.788 20.9432 108.788 23.9432C108.788 26.8636 108.316 29.3295 107.373 31.3409C106.441 33.3409 105.169 34.858 103.555 35.892C101.953 36.9148 100.157 37.4261 98.1687 37.4261C96.7597 37.4261 95.5608 37.1932 94.5722 36.7273C93.5949 36.2614 92.7937 35.6761 92.1687 34.9716C91.5437 34.2557 91.0665 33.5341 90.7369 32.8068H90.5153V46.8182H83.254ZM90.3619 23.9091C90.3619 25.4659 90.5778 26.8239 91.0097 27.983C91.4415 29.142 92.0665 30.0455 92.8847 30.6932C93.7028 31.3295 94.6972 31.6477 95.8676 31.6477C97.0494 31.6477 98.0494 31.3239 98.8676 30.6761C99.6858 30.017 100.305 29.108 100.726 27.9489C101.157 26.7784 101.373 25.4318 101.373 23.9091C101.373 22.3977 101.163 21.0682 100.743 19.9205C100.322 18.7727 99.7028 17.875 98.8847 17.2273C98.0665 16.5795 97.0608 16.2557 95.8676 16.2557C94.6858 16.2557 93.6858 16.5682 92.8676 17.1932C92.0608 17.8182 91.4415 18.7045 91.0097 19.8523C90.5778 21 90.3619 22.3523 90.3619 23.9091ZM123.229 37V10.8182H130.49V20.9773H132.536L139.661 10.8182H148.184L138.928 23.8068L148.286 37H139.661L133.201 27.7102H130.49V37H123.229ZM160.954 37V10.8182H168.215V37H160.954ZM164.602 7.44318C163.522 7.44318 162.596 7.08523 161.823 6.36932C161.062 5.64204 160.681 4.77273 160.681 3.76136C160.681 2.76136 161.062 1.90341 161.823 1.1875C162.596 0.460226 163.522 0.0965891 164.602 0.0965891C165.681 0.0965891 166.602 0.460226 167.363 1.1875C168.136 1.90341 168.522 2.76136 168.522 3.76136C168.522 4.77273 168.136 5.64204 167.363 6.36932C166.602 7.08523 165.681 7.44318 164.602 7.44318ZM183.632 37V10.8182H194.797C198.024 10.8182 200.575 11.4318 202.45 12.6591C204.325 13.8864 205.263 15.6307 205.263 17.892C205.263 19.3125 204.734 20.4943 203.678 21.4375C202.621 22.3807 201.155 23.017 199.28 23.3466C200.848 23.4602 202.183 23.8182 203.286 24.4205C204.399 25.0114 205.246 25.7784 205.825 26.7216C206.416 27.6648 206.712 28.7102 206.712 29.858C206.712 31.3466 206.314 32.625 205.518 33.6932C204.734 34.7614 203.581 35.5795 202.058 36.1477C200.547 36.7159 198.7 37 196.518 37H183.632ZM190.399 31.5625H196.518C197.53 31.5625 198.32 31.3239 198.888 30.8466C199.467 30.358 199.757 29.6932 199.757 28.8523C199.757 27.9205 199.467 27.1875 198.888 26.6534C198.32 26.1193 197.53 25.8523 196.518 25.8523H190.399V31.5625ZM190.399 21.5909H194.95C195.678 21.5909 196.297 21.4886 196.808 21.2841C197.331 21.0682 197.729 20.7614 198.001 20.3636C198.286 19.9659 198.428 19.4943 198.428 18.9489C198.428 18.142 198.104 17.5114 197.456 17.0568C196.808 16.6023 195.922 16.375 194.797 16.375H190.399V21.5909Z" fill="white"/>
</svg>
