<svg viewBox="0 0 129 37" fill="none" xmlns="http://www.w3.org/2000/svg">
<path d="M21.1534 37L9.9375 22.1193H7.41477V37H0.0340909V2.09091H7.41477V16.0341H8.89773L20.4886 2.09091H29.6761L16.0568 18.2841L30.3068 37H21.1534ZM50.4196 27.4205L59.8457 10.8182H67.0048V37H60.0844V20.3466L50.6923 37H43.4821V10.8182H50.4196V27.4205ZM82.4258 37V10.8182H89.6872V37H82.4258ZM80.8747 7.23864C79.8974 7.23864 79.0565 6.89773 78.352 6.21591C77.6474 5.52273 77.2952 4.70454 77.2952 3.76136C77.2952 2.79545 77.6474 1.97727 78.352 1.30682C79.0565 0.636362 79.8974 0.301135 80.8747 0.301135C81.8633 0.301135 82.6986 0.636362 83.3804 1.30682C84.0736 1.97727 84.4202 2.79545 84.4202 3.76136C84.4202 4.70454 84.0736 5.52273 83.3804 6.21591C82.6986 6.89773 81.8633 7.23864 80.8747 7.23864ZM91.3065 7.23864C90.3293 7.23864 89.4883 6.89773 88.7838 6.21591C88.0793 5.52273 87.727 4.70454 87.727 3.76136C87.727 2.79545 88.0793 1.97727 88.7838 1.30682C89.4883 0.636362 90.3293 0.301135 91.3065 0.301135C92.2952 0.301135 93.1304 0.636362 93.8122 1.30682C94.5054 1.97727 94.852 2.79545 94.852 3.76136C94.852 4.70454 94.5054 5.52273 93.8122 6.21591C93.1304 6.89773 92.2952 7.23864 91.3065 7.23864ZM105.104 37V10.8182H116.269C119.496 10.8182 122.047 11.4318 123.922 12.6591C125.797 13.8864 126.735 15.6307 126.735 17.892C126.735 19.3125 126.206 20.4943 125.149 21.4375C124.093 22.3807 122.627 23.017 120.752 23.3466C122.32 23.4602 123.655 23.8182 124.757 24.4205C125.871 25.0114 126.718 25.7784 127.297 26.7216C127.888 27.6648 128.184 28.7102 128.184 29.858C128.184 31.3466 127.786 32.625 126.99 33.6932C126.206 34.7614 125.053 35.5795 123.53 36.1477C122.019 36.7159 120.172 37 117.99 37H105.104ZM111.871 31.5625H117.99C119.002 31.5625 119.791 31.3239 120.36 30.8466C120.939 30.358 121.229 29.6932 121.229 28.8523C121.229 27.9205 120.939 27.1875 120.36 26.6534C119.791 26.1193 119.002 25.8523 117.99 25.8523H111.871V31.5625ZM111.871 21.5909H116.422C117.149 21.5909 117.769 21.4886 118.28 21.2841C118.803 21.0682 119.201 20.7614 119.473 20.3636C119.757 19.9659 119.899 19.4943 119.899 18.9489C119.899 18.142 119.576 17.5114 118.928 17.0568C118.28 16.6023 117.394 16.375 116.269 16.375H111.871V21.5909Z" fill="white"/>
</svg>
