<svg viewBox="0 0 168 37" fill="none" xmlns="http://www.w3.org/2000/svg">
<path d="M0.142046 37V31.0682L1.13068 30.983C2.40341 30.8807 3.43182 30.3977 4.21591 29.5341C5 28.6591 5.58523 27.267 5.97159 25.358C6.36932 23.4375 6.625 20.858 6.73864 17.6193L7.31818 2.09091H31.0114V37H23.8352V8.00568H14.1705L13.625 20.1591C13.4432 24.0682 12.9773 27.2614 12.2273 29.7386C11.4886 32.2159 10.3068 34.0455 8.68182 35.2273C7.06818 36.4091 4.85795 37 2.05114 37H0.142046ZM51.1114 18.8636H58.9352C62.4011 18.8636 65.1057 19.6932 67.0489 21.3523C68.992 23 69.9636 25.2045 69.9636 27.9659C69.9636 29.7614 69.5261 31.3409 68.6511 32.7045C67.7761 34.0568 66.5148 35.1136 64.867 35.875C63.2193 36.625 61.242 37 58.9352 37H46.5602V10.8182H53.4977V31.2898H58.9352C60.1511 31.2898 61.1511 30.983 61.9352 30.3693C62.7193 29.7557 63.117 28.9716 63.1284 28.017C63.117 27.0057 62.7193 26.1818 61.9352 25.5455C61.1511 24.8977 60.1511 24.5739 58.9352 24.5739H51.1114V18.8636ZM84.379 37V10.8182H95.5437C98.771 10.8182 101.322 11.4318 103.197 12.6591C105.072 13.8864 106.01 15.6307 106.01 17.892C106.01 19.3125 105.481 20.4943 104.424 21.4375C103.368 22.3807 101.902 23.017 100.027 23.3466C101.595 23.4602 102.93 23.8182 104.032 24.4205C105.146 25.0114 105.993 25.7784 106.572 26.7216C107.163 27.6648 107.459 28.7102 107.459 29.858C107.459 31.3466 107.061 32.625 106.265 33.6932C105.481 34.7614 104.328 35.5795 102.805 36.1477C101.294 36.7159 99.4472 37 97.2653 37H84.379ZM91.146 31.5625H97.2653C98.2767 31.5625 99.0665 31.3239 99.6347 30.8466C100.214 30.358 100.504 29.6932 100.504 28.8523C100.504 27.9205 100.214 27.1875 99.6347 26.6534C99.0665 26.1193 98.2767 25.8523 97.2653 25.8523H91.146V31.5625ZM91.146 21.5909H95.6972C96.4244 21.5909 97.0437 21.4886 97.5551 21.2841C98.0778 21.0682 98.4756 20.7614 98.7483 20.3636C99.0324 19.9659 99.1744 19.4943 99.1744 18.9489C99.1744 18.142 98.8506 17.5114 98.2028 17.0568C97.5551 16.6023 96.6687 16.375 95.5437 16.375H91.146V21.5909ZM121.635 37V10.8182H128.897V37H121.635ZM125.283 7.44318C124.203 7.44318 123.277 7.08523 122.505 6.36932C121.743 5.64204 121.363 4.77273 121.363 3.76136C121.363 2.76136 121.743 1.90341 122.505 1.1875C123.277 0.460226 124.203 0.0965891 125.283 0.0965891C126.363 0.0965891 127.283 0.460226 128.044 1.1875C128.817 1.90341 129.203 2.76136 129.203 3.76136C129.203 4.77273 128.817 5.64204 128.044 6.36932C127.283 7.08523 126.363 7.44318 125.283 7.44318ZM144.313 37V10.8182H155.478C158.705 10.8182 161.257 11.4318 163.132 12.6591C165.007 13.8864 165.944 15.6307 165.944 17.892C165.944 19.3125 165.416 20.4943 164.359 21.4375C163.302 22.3807 161.836 23.017 159.961 23.3466C161.529 23.4602 162.864 23.8182 163.967 24.4205C165.08 25.0114 165.927 25.7784 166.507 26.7216C167.097 27.6648 167.393 28.7102 167.393 29.858C167.393 31.3466 166.995 32.625 166.2 33.6932C165.416 34.7614 164.262 35.5795 162.739 36.1477C161.228 36.7159 159.382 37 157.2 37H144.313ZM151.08 31.5625H157.2C158.211 31.5625 159.001 31.3239 159.569 30.8466C160.149 30.358 160.438 29.6932 160.438 28.8523C160.438 27.9205 160.149 27.1875 159.569 26.6534C159.001 26.1193 158.211 25.8523 157.2 25.8523H151.08V31.5625ZM151.08 21.5909H155.632C156.359 21.5909 156.978 21.4886 157.489 21.2841C158.012 21.0682 158.41 20.7614 158.683 20.3636C158.967 19.9659 159.109 19.4943 159.109 18.9489C159.109 18.142 158.785 17.5114 158.137 17.0568C157.489 16.6023 156.603 16.375 155.478 16.375H151.08V21.5909Z" fill="white"/>
</svg>
