<svg  viewBox="0 0 189 44" fill="none" xmlns="http://www.w3.org/2000/svg">
<path d="M33.1136 18.5455C33.1136 22.3523 32.392 25.5909 30.9489 28.2614C29.517 30.9318 27.5625 32.9716 25.0852 34.3807C22.6193 35.7784 19.8466 36.4773 16.767 36.4773C13.6648 36.4773 10.8807 35.7727 8.41477 34.3636C5.94886 32.9545 4 30.9148 2.56818 28.2443C1.13636 25.5739 0.420455 22.3409 0.420455 18.5455C0.420455 14.7386 1.13636 11.5 2.56818 8.82955C4 6.15909 5.94886 4.125 8.41477 2.72727C10.8807 1.31818 13.6648 0.613635 16.767 0.613635C19.8466 0.613635 22.6193 1.31818 25.0852 2.72727C27.5625 4.125 29.517 6.15909 30.9489 8.82955C32.392 11.5 33.1136 14.7386 33.1136 18.5455ZM25.6307 18.5455C25.6307 16.0795 25.2614 14 24.5227 12.3068C23.7955 10.6136 22.767 9.32955 21.4375 8.45455C20.108 7.57955 18.5511 7.14205 16.767 7.14205C14.983 7.14205 13.4261 7.57955 12.0966 8.45455C10.767 9.32955 9.73295 10.6136 8.99432 12.3068C8.26705 14 7.90341 16.0795 7.90341 18.5455C7.90341 21.0114 8.26705 23.0909 8.99432 24.7841C9.73295 26.4773 10.767 27.7614 12.0966 28.6364C13.4261 29.5114 14.983 29.9489 16.767 29.9489C18.5511 29.9489 20.108 29.5114 21.4375 28.6364C22.767 27.7614 23.7955 26.4773 24.5227 24.7841C25.2614 23.0909 25.6307 21.0114 25.6307 18.5455ZM45.9991 43.6705V30.2386H48.0105C48.5901 29.875 49.056 29.2955 49.4082 28.5C49.7719 27.7045 50.0673 26.767 50.2946 25.6875C50.5332 24.608 50.7151 23.4432 50.8401 22.1932C50.9764 20.9318 51.0957 19.6591 51.198 18.375L51.8798 9.81818H71.9594V30.2386H76.0162V43.6705H69.0957V36H53.0901V43.6705H45.9991ZM55.2378 30.2386H65.1071V15.4091H58.0503L57.7776 18.375C57.5844 21.1705 57.306 23.5455 56.9423 25.5C56.5787 27.4432 56.0105 29.0227 55.2378 30.2386ZM101.78 36.5114C99.0864 36.5114 96.7682 35.9659 94.825 34.875C92.8932 33.7727 91.4045 32.2159 90.3591 30.2045C89.3136 28.1818 88.7909 25.7898 88.7909 23.0284C88.7909 20.3352 89.3136 17.9716 90.3591 15.9375C91.4045 13.9034 92.8761 12.3182 94.7739 11.1818C96.683 10.0455 98.9216 9.47727 101.49 9.47727C103.217 9.47727 104.825 9.75568 106.314 10.3125C107.814 10.858 109.12 11.6818 110.234 12.7841C111.359 13.8864 112.234 15.2727 112.859 16.9432C113.484 18.6023 113.797 20.5455 113.797 22.7727V24.767H91.6886V20.267H106.961C106.961 19.2216 106.734 18.2955 106.28 17.4886C105.825 16.6818 105.194 16.0511 104.387 15.5966C103.592 15.1307 102.666 14.8977 101.609 14.8977C100.507 14.8977 99.5295 15.1534 98.6773 15.6648C97.8364 16.1648 97.1773 16.8409 96.7 17.6932C96.2227 18.5341 95.9784 19.4716 95.967 20.5057V24.7841C95.967 26.0795 96.2057 27.1989 96.683 28.142C97.1716 29.0852 97.8591 29.8125 98.7455 30.3239C99.6318 30.8352 100.683 31.0909 101.899 31.0909C102.706 31.0909 103.444 30.9773 104.115 30.75C104.785 30.5227 105.359 30.1818 105.836 29.7273C106.314 29.2727 106.677 28.7159 106.927 28.0568L113.643 28.5C113.302 30.1136 112.603 31.5227 111.547 32.7273C110.501 33.9205 109.149 34.8523 107.49 35.5227C105.842 36.1818 103.939 36.5114 101.78 36.5114ZM139.965 36.5114C137.283 36.5114 134.976 35.9432 133.044 34.8068C131.124 33.6591 129.647 32.0682 128.613 30.0341C127.59 28 127.078 25.6591 127.078 23.0114C127.078 20.3295 127.595 17.9773 128.63 15.9545C129.675 13.9205 131.158 12.3352 133.078 11.1989C134.999 10.0511 137.283 9.47727 139.931 9.47727C142.215 9.47727 144.215 9.89205 145.931 10.7216C147.647 11.5511 149.005 12.7159 150.005 14.2159C151.005 15.7159 151.556 17.4773 151.658 19.5H144.806C144.613 18.1932 144.101 17.142 143.272 16.3466C142.453 15.5398 141.38 15.1364 140.05 15.1364C138.925 15.1364 137.942 15.4432 137.101 16.0568C136.272 16.6591 135.624 17.5398 135.158 18.6989C134.692 19.858 134.459 21.2614 134.459 22.9091C134.459 24.5795 134.686 26 135.141 27.1705C135.607 28.3409 136.26 29.233 137.101 29.8466C137.942 30.4602 138.925 30.767 140.05 30.767C140.88 30.767 141.624 30.5966 142.283 30.2557C142.953 29.9148 143.505 29.4205 143.936 28.7727C144.38 28.1136 144.669 27.3239 144.806 26.4034H151.658C151.544 28.4034 150.999 30.1648 150.022 31.6875C149.056 33.1989 147.72 34.3807 146.016 35.233C144.311 36.0852 142.294 36.5114 139.965 36.5114ZM173.373 36.4943C171.703 36.4943 170.214 36.2045 168.907 35.625C167.6 35.0341 166.566 34.1648 165.805 33.017C165.055 31.858 164.68 30.4148 164.68 28.6875C164.68 27.233 164.947 26.0114 165.481 25.0227C166.015 24.0341 166.742 23.2386 167.663 22.6364C168.583 22.0341 169.629 21.5795 170.799 21.2727C171.981 20.9659 173.22 20.75 174.515 20.625C176.038 20.4659 177.265 20.3182 178.197 20.1818C179.129 20.0341 179.805 19.8182 180.225 19.5341C180.646 19.25 180.856 18.8295 180.856 18.2727V18.1705C180.856 17.0909 180.515 16.2557 179.833 15.6648C179.163 15.0739 178.208 14.7784 176.97 14.7784C175.663 14.7784 174.623 15.0682 173.85 15.6477C173.078 16.2159 172.566 16.9318 172.316 17.7955L165.6 17.25C165.941 15.6591 166.612 14.2841 167.612 13.125C168.612 11.9545 169.901 11.0568 171.481 10.4318C173.072 9.79545 174.913 9.47727 177.004 9.47727C178.458 9.47727 179.85 9.64773 181.18 9.98864C182.521 10.3295 183.708 10.858 184.742 11.5739C185.788 12.2898 186.612 13.2102 187.214 14.3352C187.816 15.4489 188.117 16.7841 188.117 18.3409V36H181.231V32.3693H181.026C180.606 33.1875 180.043 33.9091 179.339 34.5341C178.634 35.1477 177.788 35.6307 176.799 35.983C175.811 36.3239 174.668 36.4943 173.373 36.4943ZM175.453 31.483C176.521 31.483 177.464 31.2727 178.282 30.8523C179.1 30.4205 179.742 29.8409 180.208 29.1136C180.674 28.3864 180.907 27.5625 180.907 26.642V23.8636C180.68 24.0114 180.367 24.1477 179.97 24.2727C179.583 24.3864 179.146 24.4943 178.657 24.5966C178.168 24.6875 177.68 24.7727 177.191 24.8523C176.703 24.9205 176.259 24.983 175.862 25.0398C175.009 25.1648 174.265 25.3636 173.629 25.6364C172.992 25.9091 172.498 26.2784 172.146 26.7443C171.793 27.1989 171.617 27.767 171.617 28.4489C171.617 29.4375 171.975 30.1932 172.691 30.7159C173.418 31.2273 174.339 31.483 175.453 31.483Z" fill="white"/>
</svg>
